<?xml version="1.0" standalone="no"?><!DOCTYPE svg PUBLIC "-//W3C//DTD SVG 1.1//EN" "http://www.w3.org/Graphics/SVG/1.1/DTD/svg11.dtd"><svg t="1595990883138" class="icon" viewBox="0 0 1024 1024" version="1.1" xmlns="http://www.w3.org/2000/svg" p-id="8756" xmlns:xlink="http://www.w3.org/1999/xlink" width="200" height="200"><defs><style type="text/css"></style></defs><path d="M626.133333 804.821333a24.234667 24.234667 0 1 1 0 48.512H398.762667a24.234667 24.234667 0 1 1 0-48.512h227.413333zM738.133333 597.333333l50.218667 86.784c6.997333 7.936 10.922667 18.346667 11.093333 28.885334 0 24.618667-20.010667 44.586667-44.629333 44.586666H270.634667c-15.744 0-30.549333-8.533333-38.528-22.186666a44.8 44.8 0 0 1-0.170667-44.458667l54.442667-95.914667v-134.613333c0-41.642667 14.976-85.162667 42.581333-122.922667a240.64 240.64 0 0 1 87.936-73.514666A96 96 0 0 1 512.64 170.666667a96 96 0 0 1 95.744 94.08 242.133333 242.133333 0 0 1 87.722667 74.026666c27.050667 37.418667 41.856 80.725333 41.856 121.856v75.733334c0.128 12.202667 0.170667 32.512 0.170666 60.970666z m-225.706666-383.36c-22.570667 0-41.813333 14.464-49.237334 34.645334a271.957333 271.957333 0 0 1 98.688 0.384 52.736 52.736 0 0 0-49.408-34.986667z m148.394666 385.877334c-10.453333-19.456-16.426667-34.517333-17.92-45.184-1.621333-12.074667-1.877333-39.125333-0.725333-81.237334a23.509333 23.509333 0 0 0-23.509333-24.149333 25.770667 25.770667 0 0 0-25.728 24.448c-2.005333 38.741333-1.493333 65.706667 1.493333 80.938667 3.584 18.432 9.045333 35.456 16.341333 51.072a29.866667 29.866667 0 0 0 27.050667 17.194666h9.216a15.658667 15.658667 0 0 0 13.781333-23.082666z" fill="#027AFF" p-id="8757"></path></svg>