<?xml version="1.0" standalone="no"?><!DOCTYPE svg PUBLIC "-//W3C//DTD SVG 1.1//EN" "http://www.w3.org/Graphics/SVG/1.1/DTD/svg11.dtd"><svg t="1595990902516" class="icon" viewBox="0 0 1024 1024" version="1.1" xmlns="http://www.w3.org/2000/svg" p-id="9292" xmlns:xlink="http://www.w3.org/1999/xlink" width="200" height="200"><defs><style type="text/css"></style></defs><path d="M626.133333 804.821333H398.762667a24.234667 24.234667 0 1 0 0 48.512h227.413333a24.234667 24.234667 0 1 0 0-48.512z m162.218667-120.746666l-44.629333-78.506667c-12.8-31.061333-55.168-25.728-50.176 3.925333a22.613333 22.613333 0 0 0 1.28 3.157334l54.826666 96.64a31.573333 31.573333 0 0 0 1.664 2.56H272.853333l56.32-99.029334a22.613333 22.613333 0 0 0 2.944-11.52v-140.672c0-67.584 52.565333-137.770667 122.752-163.328 17.408-5.546667 30.378667-8.106667 38.144-9.258666 8.874667-1.28 25.728-1.450667 37.546667 0 11.52 1.493333 25.045333 4.821333 41.130667 10.197333 68.522667 25.941333 120.192 95.744 120.192 162.389333v75.733334c1.109333 21.461333 42.581333 23.893333 46.08 0v-75.733334c0-41.130667-14.805333-84.48-41.813334-121.856a242.133333 242.133333 0 0 0-87.765333-74.026666A96 96 0 0 0 512.64 170.666667 96 96 0 0 0 416.853333 263.978667a240.64 240.64 0 0 0-87.893333 73.514666c-27.648 37.76-42.624 81.28-42.624 122.922667v134.613333l-54.442667 95.914667a44.8 44.8 0 0 0 0.170667 44.458667c7.978667 13.653333 22.784 22.186667 38.528 22.186666h484.181333c24.618667 0 44.629333-19.968 44.629334-44.586666a44.970667 44.970667 0 0 0-11.093334-28.885334zM512.426667 214.016c22.741333 0 42.026667 14.634667 49.408 34.986667a271.957333 271.957333 0 0 0-98.688-0.341334 52.608 52.608 0 0 1 49.28-34.645333z m148.352 385.877333a15.701333 15.701333 0 0 1-13.781334 23.082667h-9.216a29.866667 29.866667 0 0 1-27.050666-17.194667A218.026667 218.026667 0 0 1 594.432 554.666667c-2.986667-15.232-3.498667-42.197333-1.493333-80.938667a25.770667 25.770667 0 0 1 26.368-24.448 23.509333 23.509333 0 0 1 22.869333 24.149333c-1.152 42.112-0.896 69.162667 0.725333 81.237334 1.493333 10.666667 7.466667 25.728 17.92 45.184z" fill="#B2B2B2" p-id="9293"></path></svg>