<?xml version="1.0" standalone="no"?><!DOCTYPE svg PUBLIC "-//W3C//DTD SVG 1.1//EN" "http://www.w3.org/Graphics/SVG/1.1/DTD/svg11.dtd"><svg t="1595990887831" class="icon" viewBox="0 0 1024 1024" version="1.1" xmlns="http://www.w3.org/2000/svg" p-id="8890" xmlns:xlink="http://www.w3.org/1999/xlink" width="200" height="200"><defs><style type="text/css"></style></defs><path d="M512 170.666667c-187.989333 0-341.333333 152.533333-341.333333 341.333333 0 187.989333 152.533333 341.333333 341.333333 341.333333 187.989333 0 341.333333-152.533333 341.333333-341.333333 0-187.989333-152.576-341.333333-341.333333-341.333333z m0 634.410666A292.992 292.992 0 0 1 218.922667 512 292.992 292.992 0 0 1 512 218.922667 292.992 292.992 0 0 1 805.077333 512 292.992 292.992 0 0 1 512 805.077333z m174.72-138.197333a177.152 177.152 0 0 0-100.053333-117.12 130.901333 130.901333 0 0 0 60.672-110.506667 131.242667 131.242667 0 0 0-131.157334-131.157333 131.242667 131.242667 0 0 0-131.157333 131.157333c0 46.677333 24.106667 87.552 60.714667 110.506667a175.872 175.872 0 0 0-100.437334 117.12c-3.114667 12.416 4.266667 25.301333 16.682667 28.458667 2.005333 0.384 3.925333 0.768 5.888 0.768a23.253333 23.253333 0 0 0 22.570667-17.578667 129.493333 129.493333 0 0 1 250.752 0 23.381333 23.381333 0 0 0 28.416 16.725333 22.954667 22.954667 0 0 0 17.066666-28.373333zM516.266667 354.773333a84.352 84.352 0 1 1 0 168.832 84.352 84.352 0 0 1-84.394667-84.437333c0-46.677333 37.717333-84.394667 84.394667-84.394667z" fill="#B2B2B2" p-id="8891"></path></svg>