<?xml version="1.0" standalone="no"?><!DOCTYPE svg PUBLIC "-//W3C//DTD SVG 1.1//EN" "http://www.w3.org/Graphics/SVG/1.1/DTD/svg11.dtd"><svg t="1595990872144" class="icon" viewBox="0 0 1024 1024" version="1.1" xmlns="http://www.w3.org/2000/svg" p-id="8488" xmlns:xlink="http://www.w3.org/1999/xlink" width="200" height="200"><defs><style type="text/css"></style></defs><path d="M317.994667 213.333333h387.925333a117.461333 117.461333 0 0 1 117.418667 117.418667v405.162667A117.418667 117.418667 0 0 1 705.92 853.333333H317.994667A117.461333 117.461333 0 0 1 200.533333 735.914667V330.752A117.418667 117.418667 0 0 1 317.994667 213.333333z m52.736 226.688l-29.141334-43.733333a23.509333 23.509333 0 0 0-39.125333 26.026667L349.44 492.8a23.466667 23.466667 0 0 0 37.888 1.664l93.994667-117.461333a23.509333 23.509333 0 0 0-36.693334-29.354667l-73.941333 92.330667z m162.688 4.522667h168.448a23.466667 23.466667 0 0 0 0-46.976h-168.448a23.466667 23.466667 0 1 0 0 46.976z m168.448 234.88a23.466667 23.466667 0 0 0 0-46.933333h-168.448a23.466667 23.466667 0 1 0 0 46.933333h168.448z m-321.109334 58.752a82.218667 82.218667 0 1 0 0-164.437333 82.218667 82.218667 0 0 0 0 164.437333z m0-47.018667a35.242667 35.242667 0 1 1 0-70.4 35.242667 35.242667 0 0 1 0 70.4z" fill="#027AFF" p-id="8489"></path></svg>