<?xml version="1.0" standalone="no"?><!DOCTYPE svg PUBLIC "-//W3C//DTD SVG 1.1//EN" "http://www.w3.org/Graphics/SVG/1.1/DTD/svg11.dtd"><svg t="1595990893415" class="icon" viewBox="0 0 1024 1024" version="1.1" xmlns="http://www.w3.org/2000/svg" p-id="9024" xmlns:xlink="http://www.w3.org/1999/xlink" width="200" height="200"><defs><style type="text/css"></style></defs><path d="M317.994667 213.333333h387.925333a117.461333 117.461333 0 0 1 117.418667 117.418667v405.162667A117.418667 117.418667 0 0 1 705.92 853.333333H317.994667A117.461333 117.461333 0 0 1 200.533333 735.914667V330.752A117.418667 117.418667 0 0 1 317.994667 213.333333z m0 46.976A70.485333 70.485333 0 0 0 247.466667 330.752v405.162667c0 38.912 31.573333 70.4 70.442666 70.4h387.925334c38.912 0 70.485333-31.488 70.485333-70.4V330.752c0-38.912-31.573333-70.4-70.485333-70.4H317.994667z m52.736 179.712l73.856-92.373333a23.509333 23.509333 0 0 1 36.693333 29.354667L387.370667 494.506667a23.466667 23.466667 0 0 1-37.888-1.664L302.506667 422.4a23.509333 23.509333 0 0 1 39.082666-26.069333l29.141334 43.733333z m162.688 4.522667a23.466667 23.466667 0 1 1 0-46.976h168.448a23.466667 23.466667 0 0 1 0 46.976h-168.448z m168.448 234.88h-168.448a23.466667 23.466667 0 1 1 0-46.933333h168.448a23.466667 23.466667 0 0 1 0 46.933333z m-321.109334 58.752a82.218667 82.218667 0 1 1 0-164.437333 82.218667 82.218667 0 0 1 0 164.437333z m0-47.018667a35.242667 35.242667 0 1 0 0-70.4 35.242667 35.242667 0 0 0 0 70.4z" fill="#B2B2B2" p-id="9025"></path></svg>