<?xml version="1.0" standalone="no"?><!DOCTYPE svg PUBLIC "-//W3C//DTD SVG 1.1//EN" "http://www.w3.org/Graphics/SVG/1.1/DTD/svg11.dtd"><svg t="1595990879795" class="icon" viewBox="0 0 1024 1024" version="1.1" xmlns="http://www.w3.org/2000/svg" p-id="8622" xmlns:xlink="http://www.w3.org/1999/xlink" width="200" height="200"><defs><style type="text/css"></style></defs><path d="M170.666667 689.706667V260.437333C170.666667 234.410667 191.658667 213.333333 217.770667 213.333333h588.458666C832.256 213.333333 853.333333 234.410667 853.333333 260.437333v429.269334c0 26.026667-20.992 47.104-47.104 47.104H217.770667c-26.026667 0-47.104-21.077333-47.104-47.104z m560.554666 157.269333H292.864a23.466667 23.466667 0 0 1-23.509333-23.466667v-1.109333a23.466667 23.466667 0 0 1 23.466666-23.594667h438.4c13.013333 0 23.509333 10.581333 23.509334 23.594667v1.109333a23.466667 23.466667 0 0 1-23.466667 23.466667z m-243.285333-47.658667l1.109333-62.506666h45.994667v62.506666h-47.104z m-143.274667-284.885333a22.357333 22.357333 0 0 0 0 44.672h127.445334a22.357333 22.357333 0 0 0 0-44.672H344.661333z m0-111.786667a22.357333 22.357333 0 0 0 0 44.672h315.136a22.357333 22.357333 0 0 0 0.085334-44.672H344.661333z" fill="currentColor" p-id="8623"></path></svg>