<?xml version="1.0" standalone="no"?><!DOCTYPE svg PUBLIC "-//W3C//DTD SVG 1.1//EN" "http://www.w3.org/Graphics/SVG/1.1/DTD/svg11.dtd"><svg t="1595581270306" class="icon" viewBox="0 0 1024 1024" version="1.1" xmlns="http://www.w3.org/2000/svg" p-id="8578" xmlns:xlink="http://www.w3.org/1999/xlink" width="200" height="200"><defs><style type="text/css"></style></defs><path d="M760.064 235.52H264.277333c-51.413333 0-93.013333 41.6-93.013333 92.885333v382.421334c0 51.370667 41.6 92.928 93.013333 92.928h495.786667c51.413333 0 93.013333-41.6 93.013333-92.928V328.405333a92.885333 92.885333 0 0 0-93.013333-92.885333z m-139.562667 250.112l186.112-142.890667v367.658667l-186.112-224.768z m139.52-203.605333c12.586667 0 23.893333 5.034667 32.256 13.098666l-284.032 218.026667-275.754666-218.026667-0.256-0.128c8.362667-7.978667 19.541333-12.970667 32-12.970666h495.786666zM217.770667 710.485333v-367.786666l186.453333 147.413333-186.453333 220.373333z m46.506666 46.762667a46.08 46.08 0 0 1-20.693333-5.333333l197.12-232.96 52.949333 41.941333a23.210667 23.210667 0 0 0 28.586667 0.170667l61.44-47.146667 197.034667 238.037333a45.525333 45.525333 0 0 1-20.608 5.290667H264.277333z" fill="#B2B2B2" p-id="8579"></path></svg>