<?xml version="1.0" standalone="no"?><!DOCTYPE svg PUBLIC "-//W3C//DTD SVG 1.1//EN" "http://www.w3.org/Graphics/SVG/1.1/DTD/svg11.dtd"><svg t="1595574218400" class="icon" viewBox="0 0 1024 1024" version="1.1" xmlns="http://www.w3.org/2000/svg" p-id="8321" xmlns:xlink="http://www.w3.org/1999/xlink" width="200" height="200"><defs><style type="text/css"></style></defs><path d="M724.565333 407.893333h-6.528C725.333333 320 682.666667 170.666667 510.378667 170.666667S298.666667 320 304.042667 407.893333h-6.570667c-88.490667 0-105.045333 37.973333-105.045333 83.84v276.48c0 45.866667 16.554667 83.84 62.378666 83.84h513.749334c45.824 0 62.592-37.973333 62.592-83.84v-276.48c-1.28-45.866667-18.048-83.84-106.581334-83.84z m-214.186666-188.757333C662.357333 219.136 682.666667 384 669.568 407.893333H351.146667C341.333333 384 358.4 219.136 510.378667 219.136z m270.762666 549.12c0 19.626667-15.701333 35.328-35.328 35.328H274.730667a35.2 35.2 0 0 1-35.370667-35.370667v-276.48c0-19.626667 15.701333-35.370667 35.370667-35.370666h471.04c19.626667 0 35.413333 15.701333 35.413333 35.370666v276.48z" fill="#B2B2B2" p-id="8322"></path><path d="M510.378667 551.424a23.466667 23.466667 0 0 0-23.594667 23.552v92.970667a23.466667 23.466667 0 0 0 23.594667 23.552 23.466667 23.466667 0 0 0 23.552-23.552v-92.970667a23.466667 23.466667 0 0 0-23.552-23.552z" fill="#B2B2B2" p-id="8323"></path></svg>