<svg xmlns="http://www.w3.org/2000/svg" xmlns:xlink="http://www.w3.org/1999/xlink" fill="none" version="1.1" width="40" height="40" viewBox="0 0 40 40"><g style="mix-blend-mode:passthrough"><g style="mix-blend-mode:passthrough"><ellipse cx="20" cy="20" rx="20" ry="20" fill="#F5F5F5" fill-opacity="1"/><ellipse cx="20" cy="20" rx="19.5" ry="19.5" fill-opacity="0" stroke-opacity="1" stroke="#E0E0E0" fill="none" stroke-width="1"/></g><g style="mix-blend-mode:passthrough"><g style="mix-blend-mode:passthrough" transform="matrix(-1,0,0,1,56.458740234375,0)"><path d="M36.562700117187504,28.333251953125C36.562700117187504,28.793451953125,36.1895301171875,29.166551953125,35.7293701171875,29.166551953125L29.0627031171875,29.166551953125C28.6025471171875,29.166551953125,28.2293701171875,28.793451953125,28.2293701171875,28.333251953125L28.2293701171875,11.666584953125C28.2293701171875,11.206428953125,28.6025471171875,10.833251953125,29.0627031171875,10.833251953125L42.3960701171875,10.833251953125C42.8561701171875,10.833251953125,43.2293701171875,11.206428953125,43.2293701171875,11.666584953125L43.2293701171875,19.192621953125C43.2293701171875,19.652781953125,42.8561701171875,20.025961953124998,42.3960701171875,20.025961953124998C41.9358701171875,20.025961953124998,41.5626701171875,19.652781953125,41.5626701171875,19.192621953125L41.5626701171875,12.499921953125L29.8960401171875,12.499921953125L29.8960401171875,27.499951953125L35.7293701171875,27.499951953125C36.1895301171875,27.499951953125,36.562700117187504,27.873051953125,36.562700117187504,28.333251953125ZM39.0628701171875,16.666661953125L32.3962001171875,16.666661953125C31.9360401171875,16.666661953125,31.5628701171875,16.293491953125,31.5628701171875,15.833331953125C31.5628701171875,15.373181953125,31.9360401171875,15.000001953125,32.3962001171875,15.000001953125L39.0628701171875,15.000001953125C39.5230701171875,15.000001953125,39.8961701171875,15.373181953125,39.8961701171875,15.833331953125C39.8961701171875,16.293491953125,39.5230701171875,16.666661953125,39.0628701171875,16.666661953125ZM39.0628701171875,20.833451953125L32.3962001171875,20.833451953125C31.9360401171875,20.833451953125,31.5628701171875,20.460241953125,31.5628701171875,20.000081953124997C31.5628701171875,19.539921953125003,31.9360401171875,19.166751953125,32.3962001171875,19.166751953125L39.0628701171875,19.166751953125C39.5230701171875,19.166751953125,39.8961701171875,19.539921953125003,39.8961701171875,20.000081953124997C39.8961701171875,20.460241953125,39.5230701171875,20.833451953125,39.0628701171875,20.833451953125ZM39.3070701171875,21.910651953125L36.8070401171875,24.410651953125L36.8067801171875,24.410351953125C36.4812601171875,24.735651953125,36.4812601171875,25.263251953125,36.8067801171875,25.588751953124998L39.3067701171875,28.088751953125C39.4695701171875,28.251551953125,39.6828701171875,28.332751953125,39.8960701171875,28.332751953125C40.1093701171875,28.332751953125,40.3226701171875,28.251551953125,40.4854701171875,28.088751953125C40.8109701171875,27.763551953125,40.8109701171875,27.235951953125,40.4854701171875,26.910351953125L39.4080701171875,25.833051953125L44.0630701171875,25.833051953125C44.523170117187505,25.833051953125,44.8963701171875,25.459851953125,44.8963701171875,24.999751953125C44.8963701171875,24.539551953125,44.523170117187505,24.166351953125,44.0630701171875,24.166351953125L39.4080701171875,24.166351953125L40.4854701171875,23.089051953125C40.8109701171875,22.763751953125002,40.8106701171875,22.236151953125002,40.4854701171875,21.910651953125C40.1601701171875,21.585151953125,39.6325701171875,21.585151953125,39.3070701171875,21.910651953125Z" fill-rule="evenodd" fill="#999999" fill-opacity="1"/></g><g style="opacity:0;mix-blend-mode:passthrough"><rect x="10" y="10" width="20" height="20" rx="0" fill="#999999" fill-opacity="1"/></g></g></g></svg>