<svg xmlns="http://www.w3.org/2000/svg" xmlns:xlink="http://www.w3.org/1999/xlink" fill="none" version="1.1" width="40" height="40" viewBox="0 0 40 40"><g style="mix-blend-mode:passthrough"><g style="mix-blend-mode:passthrough"><ellipse cx="20" cy="20" rx="20" ry="20" fill="#F5F5F5" fill-opacity="1"/><ellipse cx="20" cy="20" rx="19.5" ry="19.5" fill-opacity="0" stroke-opacity="1" stroke="#E0E0E0" fill="none" stroke-width="1"/></g><g style="mix-blend-mode:passthrough"><g style="mix-blend-mode:passthrough"><path d="M19.192709999999998,27.5000298828125L14.16667,27.5000298828125L14.16667,12.5000398828125L25.8333,12.5000398828125L25.8333,18.333369882812498C25.8333,18.7936098828125,26.206400000000002,19.166709882812498,26.6667,19.166709882812498C27.1269,19.166709882812498,27.5,18.7936098828125,27.5,18.333369882812498L27.5,11.6667068828125C27.5,11.2064698828125,27.1269,10.8333740238125,26.6667,10.8333740238125L13.333333,10.8333740238125C12.873096,10.8333740238125,12.5,11.2064698828125,12.5,11.6667068828125L12.5,28.3333298828125C12.5,28.7936298828125,12.873096,29.1667298828125,13.333333,29.1667298828125L19.192709999999998,29.1667298828125C19.65295,29.1667298828125,20.026040000000002,28.7936298828125,20.026040000000002,28.3333298828125C20.026040000000002,27.8731298828125,19.65295,27.5000298828125,19.192709999999998,27.5000298828125ZM15.8335,15.8334598828125C15.8335,15.3732198828125,16.20659,15.0001198828125,16.66683,15.0001198828125L23.3335,15.0001198828125C23.7937,15.0001198828125,24.166800000000002,15.3732198828125,24.166800000000002,15.8334598828125C24.166800000000002,16.2936898828125,23.7937,16.666789882812502,23.3335,16.666789882812502L16.66683,16.666789882812502C16.20659,16.666789882812502,15.8335,16.2936898828125,15.8335,15.8334598828125ZM16.66683,19.1668698828125C16.20659,19.1668698828125,15.8335,19.5399698828125,15.8335,20.000199882812502C15.8335,20.4604398828125,16.20659,20.8335298828125,16.66683,20.8335298828125L20.8335,20.8335298828125C21.29373,20.8335298828125,21.666829999999997,20.4604398828125,21.666829999999997,20.000199882812502C21.666829999999997,19.5399698828125,21.29373,19.1668698828125,20.8335,19.1668698828125L16.66683,19.1668698828125ZM25.9735,26.7371298828125L25.833199999999998,26.6667298828125L25.833199999999998,25.690429882812502C26.854100000000003,25.3286298828125,27.526600000000002,24.3514298828125,27.4998,23.268629882812498C27.4668,21.957429882812498,26.4103,20.8858298828125,25.099600000000002,20.8347298828125C23.863300000000002,20.7842798828125,22.776,21.6458298828125,22.5425,22.8609298828125C22.30903,24.0760298828125,22.999499999999998,25.279129882812498,24.1665,25.690429882812502L24.1665,26.6667298828125L24.0261,26.7371298828125C23.4212,27.0394298828125,22.798299999999998,27.3022298828125,22.175359999999998,27.5654298828125C21.866799999999998,27.6959298828125,21.666339999999998,27.9984298828125,21.6665,28.3334298828125C21.6665,28.7937298828125,22.0396,29.1667298828125,22.49984,29.1667298828125L27.4998,29.1667298828125C27.9601,29.1667298828125,28.333199999999998,28.7937298828125,28.333199999999998,28.3334298828125C28.3333,27.9984298828125,28.1329,27.6959298828125,27.8243,27.5654298828125C27.2014,27.3022298828125,26.5785,27.0394298828125,25.9735,26.7371298828125ZM25.833199999999998,23.3334298828125C25.833199999999998,22.873229882812502,25.4601,22.5001298828125,24.9998,22.5001298828125C24.5396,22.5001298828125,24.1665,22.873229882812502,24.1665,23.3334298828125C24.1665,23.7937298828125,24.5396,24.1668298828125,24.9998,24.1668298828125C25.4601,24.1668298828125,25.833199999999998,23.7937298828125,25.833199999999998,23.3334298828125Z" fill-rule="evenodd" fill="#999999" fill-opacity="1"/></g><g style="opacity:0;mix-blend-mode:passthrough"><rect x="10" y="10" width="20" height="20" rx="0" fill="#999999" fill-opacity="1"/></g></g></g></svg>