<svg xmlns="http://www.w3.org/2000/svg" xmlns:xlink="http://www.w3.org/1999/xlink" fill="none" version="1.1" width="40" height="40" viewBox="0 0 40 40"><g style="mix-blend-mode:passthrough"><g style="mix-blend-mode:passthrough"><ellipse cx="20" cy="20" rx="20" ry="20" fill="#3370FF" fill-opacity="1"/><ellipse cx="20" cy="20" rx="19.5" ry="19.5" fill-opacity="0" stroke-opacity="1" stroke="#3370FF" fill="none" stroke-width="1"/></g><g style="mix-blend-mode:passthrough"><g style="mix-blend-mode:passthrough"><path d="M20,27.5000298828125L14.16667,27.5000298828125L14.16667,12.5000398828125L25.8333,12.5000398828125L25.8333,18.333369882812498C25.8333,18.7936098828125,26.206400000000002,19.166709882812498,26.6667,19.166709882812498C27.1269,19.166709882812498,27.5,18.7936098828125,27.5,18.333369882812498L27.5,11.6667068828125C27.5,11.2064698828125,27.1269,10.8333740238125,26.6667,10.8333740238125L13.333333,10.8333740238125C12.873096,10.8333740238125,12.5,11.2064698828125,12.5,11.6667068828125L12.5,28.3333298828125C12.5,28.7936298828125,12.873096,29.1667298828125,13.333333,29.1667298828125L20,29.1667298828125C20.46024,29.1667298828125,20.83333,28.7936298828125,20.83333,28.3333298828125C20.83333,27.8731298828125,20.46024,27.5000298828125,20,27.5000298828125ZM15.8335,15.8334598828125C15.8335,15.3732198828125,16.20659,15.0001198828125,16.66683,15.0001198828125L23.3335,15.0001198828125C23.7937,15.0001198828125,24.166800000000002,15.3732198828125,24.166800000000002,15.8334598828125C24.166800000000002,16.2936898828125,23.7937,16.666789882812502,23.3335,16.666789882812502L16.66683,16.666789882812502C16.20659,16.666789882812502,15.8335,16.2936898828125,15.8335,15.8334598828125ZM15.8335,20.000199882812502C15.8335,19.5399698828125,16.20659,19.1668698828125,16.66683,19.1668698828125L21.666829999999997,19.1668698828125C22.12707,19.1668698828125,22.5002,19.5399698828125,22.5002,20.000199882812502C22.5002,20.4604398828125,22.12707,20.8335298828125,21.666829999999997,20.8335298828125L16.66683,20.8335298828125C16.20659,20.8335298828125,15.8335,20.4604398828125,15.8335,20.000199882812502ZM27.4999,25.0003298828125C27.721,25.0003298828125,27.933,24.9125298828125,28.0893,24.756129882812502C28.2456,24.5998298828125,28.333399999999997,24.3879298828125,28.333399999999997,24.1668298828125C28.333399999999997,23.9458298828125,28.2456,23.7338298828125,28.0893,23.5775298828125L25.5893,21.0775298828125C25.433,20.9212298828125,25.221,20.8333298828125,24.9999,20.8333298828125C24.7789,20.8333298828125,24.5669,20.9212298828125,24.410600000000002,21.0775298828125L21.91061,23.5775298828125C21.585140000000003,23.9030298828125,21.585140000000003,24.4307298828125,21.91061,24.756129882812502C22.23608,25.0816298828125,22.7638,25.0816298828125,23.0893,24.756129882812502L24.166600000000003,23.6788298828125L24.166600000000003,28.3335298828125C24.166600000000003,28.7937298828125,24.5397,29.1668298828125,24.9999,29.1668298828125C25.4602,29.1668298828125,25.8333,28.7937298828125,25.8333,28.3335298828125L25.8333,23.6788298828125L26.910600000000002,24.756129882812502C27.0669,24.9125298828125,27.2789,25.0003298828125,27.4999,25.0003298828125Z" fill-rule="evenodd" fill="#FFFFFF" fill-opacity="1"/></g><g style="opacity:0;mix-blend-mode:passthrough"><rect x="10" y="10" width="20" height="20" rx="0" fill="#FFFFFF" fill-opacity="1"/></g></g></g></svg>