<svg xmlns="http://www.w3.org/2000/svg" xmlns:xlink="http://www.w3.org/1999/xlink" fill="none" version="1.1" width="40" height="40" viewBox="0 0 40 40"><g style="mix-blend-mode:passthrough"><g style="mix-blend-mode:passthrough"><ellipse cx="20" cy="20" rx="20" ry="20" fill="#F5F5F5" fill-opacity="1"/><ellipse cx="20" cy="20" rx="19.5" ry="19.5" fill-opacity="0" stroke-opacity="1" stroke="#E0E0E0" fill="none" stroke-width="1"/></g><g style="mix-blend-mode:passthrough"><g style="mix-blend-mode:passthrough"><path d="M28.27330908203125,16.3572501171875L26.60670908203125,12.1905841171875C26.48020908203125,11.8741671171875,26.17370908203125,11.6666585031875,25.83300908203125,11.6666259761875L14.16631908203125,11.6666259761875C13.82554908203125,11.6666585031875,13.51912908203125,11.8741671171875,13.39261908203125,12.1905841171875L11.72595618203125,16.3572501171875C11.68658628203125,16.4556501171875,11.66634609903125,16.5606501171875,11.66632080103125,16.666630117187502L11.66632080103125,27.4999701171875C11.66632080103125,27.9601701171875,12.03941708203125,28.3332701171875,12.49965408203125,28.3332701171875L27.49960908203125,28.3332701171875C27.95990908203125,28.3332701171875,28.33300908203125,27.9601701171875,28.33300908203125,27.4999701171875L28.33300908203125,16.666630117187502C28.33300908203125,16.5606501171875,28.31270908203125,16.4556501171875,28.27330908203125,16.3572501171875ZM19.16644908203125,13.3331301171875L14.73076908203125,13.3331301171875L13.73076908203125,15.833130117187501L19.16644908203125,15.833130117187501L19.16644908203125,13.3331301171875ZM26.26850908203125,15.833130117187501L20.83330908203125,15.833130117187501L20.83330908203125,13.3331301171875L25.26900908203125,13.3331301171875L26.26850908203125,15.833130117187501ZM13.33330908203125,26.6665701171875L13.33330908203125,17.4998801171875L26.66660908203125,17.4998801171875L26.66660908203125,26.6665701171875L13.33330908203125,26.6665701171875ZM24.99980908203125,20.833210117187498C24.99980908203125,21.2934501171875,24.626709082031248,21.666540117187502,24.16650908203125,21.666540117187502L20.833149082031248,21.666540117187502C20.37290908203125,21.666540117187502,19.99981908203125,21.2934501171875,19.99981908203125,20.833210117187498C19.99981908203125,20.3729701171875,20.37290908203125,19.9998801171875,20.833149082031248,19.9998801171875L24.16650908203125,19.9998801171875C24.626709082031248,19.9998801171875,24.99980908203125,20.3729701171875,24.99980908203125,20.833210117187498ZM24.99960908203125,24.1664701171875C24.99960908203125,24.6266701171875,24.626509082031248,24.999770117187502,24.166309082031248,24.999770117187502L17.49965908203125,24.999770117187502C17.03941908203125,24.999770117187502,16.66631908203125,24.6266701171875,16.66631908203125,24.1664701171875C16.66631908203125,23.7062701171875,17.03941908203125,23.3331701171875,17.49965908203125,23.3331701171875L24.166309082031248,23.3331701171875C24.626509082031248,23.3331701171875,24.99960908203125,23.7062701171875,24.99960908203125,24.1664701171875Z" fill-rule="evenodd" fill="#999999" fill-opacity="1"/></g><g style="opacity:0;mix-blend-mode:passthrough"><rect x="10" y="10" width="20" height="20" rx="0" fill="#999999" fill-opacity="1"/></g></g></g></svg>