<?xml version="1.0" standalone="no"?><!DOCTYPE svg PUBLIC "-//W3C//DTD SVG 1.1//EN" "http://www.w3.org/Graphics/SVG/1.1/DTD/svg11.dtd"><svg t="1599275343528" class="icon" viewBox="0 0 1024 1024" version="1.1" xmlns="http://www.w3.org/2000/svg" p-id="8466" xmlns:xlink="http://www.w3.org/1999/xlink" width="200" height="200"><defs><style type="text/css"></style></defs><path d="M525.368889 32.768l45.511111 26.282667 346.282667 199.850666a32.256 32.256 0 0 1 16.099555 27.875556v452.323555a32.256 32.256 0 0 1-16.099555 27.875556l-391.793778 226.247111a32.824889 32.824889 0 0 1-32.142222 0l-391.793778-226.247111a32.256 32.256 0 0 1-16.099556-27.875556V286.72c0-11.491556 6.144-22.072889 16.099556-27.875556L454.200889 55.352889 493.226667 32.768a32.085333 32.085333 0 0 1 32.142222 0zM280.064 424.789333L480.426667 540.444444v228.750223a28.728889 28.728889 0 1 0 57.571555 0V540.785778l201.045334-116.110222a28.785778 28.785778 0 0 0-28.785778-49.891556L509.553778 490.666667 308.906667 374.784a28.899556 28.899556 0 0 0-28.785778 50.005333z" fill="#027AFF" p-id="8467"></path></svg>