<svg t="1593416034436" class="icon" viewBox="0 0 1024 1024" version="1.1" xmlns="http://www.w3.org/2000/svg" p-id="6791" width="200" height="200"><path d="M875.605333 690.773333h-37.973333l-56.533333-72.277333a78.08 78.08 0 0 0 41.216-68.522667 78.421333 78.421333 0 0 0-78.336-78.336 78.421333 78.421333 0 0 0-78.336 78.336c0 29.696 16.810667 55.253333 41.216 68.522667l-56.533334 72.277333h-37.973333a36.992 36.992 0 0 0-36.906667 36.906667v62.976c0 20.394667 16.554667 36.949333 36.949334 36.949333h263.210666a36.992 36.992 0 0 0 36.906667-36.949333v-62.976a36.992 36.992 0 0 0-36.906667-36.906667z m-131.626666-181.248a40.533333 40.533333 0 0 1 0 80.896 40.533333 40.533333 0 0 1 0-80.896z m0 122.965334l45.568 58.282666h-91.136l45.568-58.282666zM874.666667 789.76l-261.333334 0.938667-0.938666-62.08 262.272-0.938667v62.08z" fill="currentColor" p-id="6792"></path><path d="M797.44 488.917333h-47.445333c-8.96-143.786667-122.624-253.866667-265.728-253.866666-149.12 0-266.24 119.552-266.24 272.213333 0 150.272 119.466667 272.213333 266.24 272.213333 35.541333 0 69.504-7.168 100.522666-20.138666v50.602666a307.072 307.072 0 0 1-100.522666 16.853334c-172.8 0-313.6-143.189333-313.6-319.573334C170.666667 328.618667 307.925333 187.733333 484.266667 187.733333c170.24 0 304.085333 131.285333 313.173333 301.184z m-332.117333 32.512V340.394667c0-13.013333 10.666667-23.68 23.68-23.68 13.013333 0 23.68 10.666667 23.68 23.68v182.997333a17.92 17.92 0 0 1 1.194666 6.357333c1.109333 7.936-3.2 15.872-8.746666 20.693334a16.810667 16.810667 0 0 1-6.826667 4.864L389.546667 631.509333a23.893333 23.893333 0 0 1-13.013334 3.541334c-10.666667 0-18.944-7.082667-22.485333-16.554667a21.546667 21.546667 0 0 1 9.472-26.026667l101.76-71.04z" fill="currentColor" p-id="6793"></path></svg>