<?xml version="1.0" standalone="no"?><!DOCTYPE svg PUBLIC "-//W3C//DTD SVG 1.1//EN" "http://www.w3.org/Graphics/SVG/1.1/DTD/svg11.dtd"><svg t="1606891319241" class="icon" viewBox="0 0 1024 1024" version="1.1" xmlns="http://www.w3.org/2000/svg" p-id="19192" xmlns:xlink="http://www.w3.org/1999/xlink" width="200" height="200"><defs><style type="text/css"></style></defs><path d="M635.050667 681.301333c148.224 0 218.282667-78.890667 218.282666-191.317333C853.333333 302.506667 701.781333 170.666667 512 170.666667c-188.714667 0-341.333333 152.618667-341.333333 341.333333s152.618667 341.333333 341.333333 341.333333a342.613333 342.613333 0 0 0 202.453333-66.474666 16.512 16.512 0 0 0 2.901334-23.68l-7.04-8.533334a16.384 16.384 0 0 0-22.4-2.901333A298.496 298.496 0 0 1 512 809.301333 297.088 297.088 0 0 1 214.698667 512 297.088 297.088 0 0 1 512 214.698667c162.986667 0 297.301333 110.08 297.301333 275.285333 0 100.309333-72.661333 148.906667-159.786666 148.906667-27.136 0-32.64-14.848-26.88-46.634667l44.202666-225.877333a16.554667 16.554667 0 0 0-16.213333-19.669334h-17.066667a16.64 16.64 0 0 0-16.256 13.354667c-3.157333 16.213333-4.010667 18.56-5.376 35.242667-16.085333-37.333333-53.12-59.221333-101.034666-59.221334-93.568 0-183.338667 86.741333-183.338667 216.106667 0 84.778667 46.677333 135.424 124.842667 135.424 54.613333 0 97.194667-33.450667 119.210666-64.682667-1.365333 38.4 24.234667 58.368 63.445334 58.368z m-175.232-39.082666c-50.474667 0-80.64-34.56-80.64-92.501334 0-102.826667 69.930667-167.253333 133.802666-167.253333 53.504 0 79.957333 38.272 79.957334 90.453333 0 80.085333-52.736 169.301333-133.12 169.301334z" fill="#B2B2B2" p-id="19193"></path></svg>