<?xml version="1.0" standalone="no"?><!DOCTYPE svg PUBLIC "-//W3C//DTD SVG 1.1//EN" "http://www.w3.org/Graphics/SVG/1.1/DTD/svg11.dtd"><svg t="1592987998864" class="icon" viewBox="0 0 1024 1024" version="1.1" xmlns="http://www.w3.org/2000/svg" p-id="6692" xmlns:xlink="http://www.w3.org/1999/xlink" width="200" height="200"><defs><style type="text/css"></style></defs><path d="M152.701754 71.859649m35.929825 0l646.736842 0q35.929825 0 35.929825 35.929825l0 808.421052q0 35.929825-35.929825 35.929825l-646.736842 0q-35.929825 0-35.929825-35.929825l0-808.421052q0-35.929825 35.929825-35.929825Z" fill="#F1F1F1" p-id="6693"></path><path d="M161.684211 80.842105m35.929824 0l628.77193 0q35.929825 0 35.929824 35.929825l0 790.45614q0 35.929825-35.929824 35.929825l-628.77193 0q-35.929825 0-35.929824-35.929825l0-790.45614q0-35.929825 35.929824-35.929825Z" fill="#FFFFFF" p-id="6694"></path><path d="M233.54386 179.649123h89.824561v35.929824H233.54386zM233.54386 242.526316h251.508772v53.894737H233.54386zM538.947368 179.649123h89.824562v35.929824H538.947368zM538.947368 242.526316h251.508772v53.894737H538.947368zM233.54386 368.280702h179.649122v35.929824H233.54386zM233.54386 431.157895h556.91228v53.894737H233.54386zM233.54386 556.912281h179.649122v35.929824H233.54386zM233.54386 619.789474h556.91228v224.561403H233.54386z" fill="#F1F1F1" p-id="6695"></path><path d="M781.087439 996.289123C701.925053 996.289123 637.754386 932.109474 637.754386 852.947088 637.754386 773.784702 701.925053 709.614035 781.087439 709.614035c79.171368 0 143.342035 64.170667 143.342035 143.333053 0 79.171368-64.170667 143.342035-143.342035 143.342035z" fill="#27B766" p-id="6696"></path><path d="M864.956632 807.316211a9.278877 9.278877 0 0 0-13.123369 0L761.838035 897.302456l-51.208982-51.208982a9.072281 9.072281 0 1 0-12.844913 12.844912l55.736141 55.727158c0.431158 0.871298 0.898246 1.733614 1.625824 2.461193a9.269895 9.269895 0 0 0 13.114386 0l96.696141-96.696141a9.278877 9.278877 0 0 0 0-13.114385z" fill="#FFFFFF" p-id="6697"></path></svg>