<?xml version="1.0" standalone="no"?><!DOCTYPE svg PUBLIC "-//W3C//DTD SVG 1.1//EN" "http://www.w3.org/Graphics/SVG/1.1/DTD/svg11.dtd"><svg class="icon" width="200px" height="200.00px" viewBox="0 0 1024 1024" version="1.1" xmlns="http://www.w3.org/2000/svg"><path fill="currentColor" d="M920.519111 28.444444C960.369778 28.444444 992.711111 60.757333 992.711111 100.579556v819.939555c0 39.850667-32.312889 72.163556-72.163555 72.163556H100.579556A72.135111 72.135111 0 0 1 28.444444 920.519111V100.579556C28.444444 60.757333 60.757333 28.444444 100.579556 28.444444h819.939555z m0 72.135112H100.579556v819.939555h819.939555V100.579556zM366.279111 546.616889a108.202667 108.202667 0 1 1 0 216.462222 108.202667 108.202667 0 0 1 0-216.462222z m396.8 72.163555v72.135112h-216.462222v-72.135112h216.462222z m-396.8 0a36.067556 36.067556 0 1 0 0 72.135112 36.067556 36.067556 0 0 0 0-72.135112z m76.515556-329.016888l51.029333 51.000888-153.031111 153.031112-102.058667-102.030223 51.029334-51.000889 51.000888 51.000889 101.973334-101.973333h0.028444z m320.284444 76.515555v72.135111h-216.462222v-72.135111h216.462222z"  /></svg>