<?xml version="1.0" standalone="no"?><!DOCTYPE svg PUBLIC "-//W3C//DTD SVG 1.1//EN" "http://www.w3.org/Graphics/SVG/1.1/DTD/svg11.dtd"><svg t="1631504559599" class="icon" viewBox="0 0 1024 1024" version="1.1" xmlns="http://www.w3.org/2000/svg" p-id="13560" width="200" height="200" xmlns:xlink="http://www.w3.org/1999/xlink"><defs><style type="text/css"></style></defs><path d="M405.68 707.703H189.462c-7.368-0.205-14.838-0.307-22.205-0.512-21.899-3.99-39.09-13.302-50.55-27.628-9.108-11.461-15.76-24.354-19.34-41.341-2.252-10.642-1.024-24.661-1.024-36.94V533.54 256.537v-61.704c0-11.768-0.92-24.866 1.33-34.791 4.708-21.182 14.838-38.68 29.369-50.039 9.926-7.777 21.386-13.712 35.917-16.884 9.926-2.15 23.126-1.023 34.587-1.023h329.497c12.689 0 25.992-0.614 35.918 2.148 22 6.038 38.475 19.34 49.22 36.634 5.525 8.903 9.107 19.442 11.665 31.415 2.046 9.823 1.023 22.41 1.023 33.768v63.034c0 93.017 0.819 49.118 0.819 142.135 14.326-1.228 27.628-0.512 43.387-1.024V256.742v-62.216c0-13.302 0.716-27.014-1.637-38.475-3.991-19.545-9.824-35.508-18.726-49.834-15.657-24.764-39.499-43.694-70.3-53.21-15.963-4.913-36.122-4.708-57.406-4.708H199.898c-15.349 0-32.028-1.023-44.922 1.842-24.15 5.321-41.647 14.838-57.918 27.629-21.693 16.986-36.224 43.591-43.08 75.723-2.558 12.279-1.842 27.424-1.842 41.954V602.1c0 16.475-0.614 33.36 2.354 46.969 5.423 23.945 15.144 42.261 28.038 58.532 15.451 19.544 38.782 34.075 66.616 41.136 24.354 6.14 61.601 3.172 90.97 3.172H411.41c-0.92-5.014-1.74-10.028-2.66-15.042a1337.973 1337.973 0 0 0-3.07-29.164z m73.268-480.841c-4.605-1.74-11.87-1.228-18.215-1.228H248.197c-7.265 2.968-12.279 3.889-16.065 9.824-7.777 12.177 0.205 26.605 10.54 30.698 5.73 2.251 15.247 1.535 23.228 1.535h161.167c30.29 0 61.602 6.447 65.9-19.647 0.614-3.48-0.921-7.06-1.842-9.312-2.456-5.526-6.447-9.721-12.177-11.87z m14.019 154.209c0.614-3.889-1.023-7.675-2.149-10.13-8.084-18.317-38.578-12.996-64.365-12.996H248.71c-7.777 3.172-12.79 4.093-16.884 10.642-7.572 12.28 0.614 27.117 10.54 31.108 5.73 2.353 15.247 1.535 23.228 1.535H457.05c21.386 0 33.052-2.252 35.917-20.16zM360.963 489.23h-0.204c0 0.103 0.102 0 0.204 0z m-113.38-0.306c-8.186 3.684-11.972 3.274-16.27 11.46-7.367 14.02 2.15 29.471 12.28 32.643 4.707 1.433 11.767 0.512 17.19 0.512h73.984c3.07-9.926 12.996-24.559 18.42-33.154 2.353-3.582-38.68-9.21 7.572-11.256-67.128 0-46.048-0.103-113.176-0.205z m113.38 0.307h0.307c0.103-0.102-0.102 0-0.307 0z m395.909 61.909v-41.546c0-8.595 0.511-17.703-1.023-24.968-4.81-23.74-18.42-39.703-45.741-39.499-2.456 0.307-4.81 0.717-7.266 1.024-5.423 1.432-10.846 3.274-15.247 6.037-8.697 5.423-14.837 12.689-21.693 19.954l-14.121 15.35c-11.257 12.279-22.513 24.558-33.871 36.838-15.759 20.158-19.647 29.368-36.327 53.006h-88.207c-22.307 0-44.001 17.907-44.001 48.094v174.47c0 24.047 26.912 41.955 47.48 41.955h84.83c28.653 31.107 37.76 54.234 66.412 85.341 5.628 6.14 11.358 12.382 16.986 18.522 5.219 6.856 11.87 13.916 18.931 18.726 4.81 3.172 10.335 5.833 16.27 7.675 25.378 7.981 45.23-8.494 52.188-25.992 4.604-11.563 4.297-27.629 4.297-44.513V831.93c0.103-93.528 0.103-187.159 0.103-280.79z m-45.536 361.116c-2.252 5.935-7.47 4.605-11.563 1.433-8.289-6.447-15.452-15.554-22.717-23.33-8.8-9.62-17.6-19.239-26.401-28.857l-14.428-15.964c-6.345-7.163-12.791-14.223-19.136-21.386-10.949-12.382-14.735-17.498-27.117-26.299h-69.071c-12.28 0-27.424-8.084-27.424-22.717 0-23.74 0.102-101.202 0.102-124.943 0-15.349 10.54-27.526 35.917-27.526 17.6 0 39.908-1.228 57.509-1.228 16.372-11.46 20.465-15.554 31.721-28.447l40.523-45.127c2.967-3.07 6.037-6.242 9.004-9.312 4.708-5.014 9.415-10.028 14.122-14.94 8.39-7.163 12.688-15.144 23.024-20.977 8.39 0.102 7.674 13.712 7.674 22.615v356c-0.204 10.028 1.126 23.228-1.74 31.005z m267.179-213.252v-16.372c-1.74-11.87-1.74-23.536-3.99-34.485-8.085-39.601-20.16-71.528-37.044-100.794-6.446-11.153-13.507-21.08-20.875-31.21-3.07-3.581-6.14-7.163-9.21-10.847-6.344-8.595-9.516-15.246-24.251-15.144-3.172 1.432-6.14 1.535-8.8 3.377-8.187 5.423-14.94 20.363-7.982 33.052 2.558 4.707 6.754 6.651 9.721 10.642 4.605 5.935 9.312 11.87 13.917 17.907 20.977 30.187 33.359 60.272 42.262 103.966 1.535 7.572 1.842 16.066 3.07 24.354 0.102 4.196 0.204 8.289 0.409 12.484 0.102 3.991 0.102 7.88 0.204 11.87-0.204 5.014-0.511 10.13-0.716 15.145-1.535 10.028-1.842 19.954-3.99 29.266-8.699 37.759-21.592 68.253-40.113 94.96-7.573 10.95-16.475 22.82-26.196 31.415-4.81 4.196-10.95 8.187-14.122 14.122-9.107 16.782 3.172 33.359 16.987 35.917 11.46 2.149 15.86-6.344 21.182-11.052 15.554-13.61 28.856-30.8 40.522-48.605 18.726-28.652 31.21-58.43 41.647-96.7 2.866-10.438 3.582-21.183 5.526-32.644 1.944-12.177 1.842-26.298 1.842-40.624z m-134.869-88.207c-4.502-6.958-9.72-12.893-14.121-19.545-0.716-1.74-1.535-3.479-2.251-5.218-4.4-7.163-11.563-11.461-22.717-11.461-3.377 1.535-6.447 1.637-9.21 3.581-8.595 5.833-14.223 21.182-7.265 33.666 3.48 6.345 10.95 11.154 15.35 17.498 12.586 18.01 20.465 37.146 25.581 63.853 1.33 7.061 3.07 20.16 1.74 29.062-0.614 6.14-1.228 12.381-1.944 18.521-4.4 21.387-10.95 39.192-20.875 54.439-3.889 5.935-8.494 11.256-12.587 16.884-3.581 4.81-8.8 7.675-11.256 13.712-7.06 17.191 4.298 31.517 17.396 34.075 8.903 1.74 14.121-3.786 18.317-7.265 5.116-4.195 6.037-5.833 9.414-12.075 1.944-2.251 3.786-4.605 5.73-6.856 4.093-5.73 7.982-11.563 11.666-17.907 10.847-18.624 18.93-39.09 24.047-64.262 11.256-54.95-6.55-109.185-27.015-140.702z" p-id="13561"></path><path d="M471.58 357.228H250.142c-11.768 0-21.49 9.62-21.49 21.49 0 11.767 9.62 21.488 21.49 21.488H471.58c11.768 0 21.49-9.619 21.49-21.489 0-11.87-9.722-21.489-21.49-21.489zM352.06 488.925H251.166c-12.382 0-22.512 10.13-22.512 22.512s10.13 22.512 22.512 22.512h100.896c12.381 0 22.512-10.13 22.512-22.512s-10.13-22.512-22.512-22.512zM471.99 225.532H250.142c-11.768 0-21.387 9.619-21.387 21.386 0 11.768 9.619 21.387 21.387 21.387h221.95c11.768 0 21.387-9.619 21.387-21.387 0-11.767-9.62-21.386-21.49-21.386z" p-id="13562"></path></svg>