<?xml version="1.0" standalone="no"?><!DOCTYPE svg PUBLIC "-//W3C//DTD SVG 1.1//EN" "http://www.w3.org/Graphics/SVG/1.1/DTD/svg11.dtd"><svg t="1602928350058" class="icon" viewBox="0 0 1024 1024" version="1.1" xmlns="http://www.w3.org/2000/svg" p-id="17648" xmlns:xlink="http://www.w3.org/1999/xlink" width="24" height="24"><defs><style type="text/css"></style></defs><path d="M597.205333 192H414.72c-25.173333 0-45.653333 20.437333-45.653333 45.653333h-26.88a128.384 128.384 0 0 0-128.170667 128l-0.341333 342.101334a123.050667 123.050667 0 0 0 123.306666 123.136l100.650667-0.213334a22.826667 22.826667 0 0 0 0-45.653333H345.258667c-47.104 0-85.333333-38.186667-85.333334-85.333333l-0.170666-331.221334a85.290667 85.290667 0 0 1 85.333333-85.333333h24.021333a45.653333 45.653333 0 0 0 45.653334 45.781333h182.357333c25.301333 0 45.781333-20.48 45.781333-45.781333h23.722667c47.104 0.042667 85.290667 38.272 85.333333 85.333333v165.888a22.826667 22.826667 0 1 0 45.653334 0V365.525333c0.085333-70.656-57.216-128-127.914667-128-0.042667 0-0.085333 0-0.128 0.128h-26.666667c0-25.173333-20.48-45.653333-45.653333-45.653333z m0.042667 91.136H414.72V237.653333h182.528v45.44h0.042667z m-204.970667 227.669333l136.32 0.341334a23.04 23.04 0 0 1 0 45.994666H392.277333a23.210667 23.210667 0 0 1 0-46.336z m-0.256-90.752h227.925334a22.954667 22.954667 0 1 1 0 45.909334H392.021333a22.954667 22.954667 0 1 1 0-45.909334z m296.533334 274.048l68.48-0.170666a22.698667 22.698667 0 1 1 0 45.482666h-68.522667v68.352a22.826667 22.826667 0 0 1-45.653333 0V739.413333h-68.437334a22.784 22.784 0 0 1 0-45.525333h68.48V625.493333a22.826667 22.826667 0 0 1 45.653334 0v68.608z m-296.277334-91.52l45.098667-0.170666a22.869333 22.869333 0 0 1 22.997333 22.912c0 12.714667-10.24 23.04-22.997333 23.168l-45.098667 0.384a22.997333 22.997333 0 0 1-23.168-22.997334c0-12.8 10.368-23.210667 23.168-23.296z" fill="#B2B2B2" p-id="17649"></path></svg>