<?xml version="1.0" standalone="no"?><!DOCTYPE svg PUBLIC "-//W3C//DTD SVG 1.1//EN" "http://www.w3.org/Graphics/SVG/1.1/DTD/svg11.dtd"><svg t="1599449007627" class="icon" viewBox="0 0 1024 1024" version="1.1" xmlns="http://www.w3.org/2000/svg" p-id="8562" xmlns:xlink="http://www.w3.org/1999/xlink" width="200" height="200"><defs><style type="text/css"></style></defs><path d="M277.77024 529.27488h619.56608v354.20672a10.24 10.24 0 0 1-10.24 10.24H288.01024a10.24 10.24 0 0 1-10.24-10.24v-354.20672z" fill="#F5F7FA" p-id="8563"></path><path d="M684.35968 757.17632c0 2.92352 1.14176 5.65248 3.21536 7.7056 2.06848 2.048 4.8128 3.17952 7.72608 3.17952s5.64736-1.1264 7.5264-3.01568l49.37728-40.54016c2.1504-2.1248 3.29728-5.14048 3.12832-7.97696a10.752 10.752 0 0 0-3.31776-8.42752l-49.00352-40.23296c-4.12672-4.08064-11.27936-4.096-15.44704 0.00512a10.8032 10.8032 0 0 0-3.20512 7.71584c0 2.9184 1.14176 5.64224 3.39968 7.86944l40.09472 32.92672-40.27392 33.09056c-2.07872 2.048-3.2256 4.7872-3.2256 7.70048zM561.55136 792.97536c2.0992 0.60928 3.92704 0.90112 5.5808 0.90112 3.97824 0 7.02464-1.72544 9.30816-5.7344l41.8816-139.70432a10.752 10.752 0 0 0 1.11104-8.33024 10.89536 10.89536 0 0 0-5.20704-6.64064 7.55712 7.55712 0 0 0-3.76832-0.93184c-4.7616 0-10.07616 3.67616-10.66496 4.096l-0.75776 0.5376-42.1376 140.5696a11.70432 11.70432 0 0 0-0.83456 10.11712c1.01888 2.57024 2.9696 4.38784 5.48864 5.12zM478.53568 764.8768a10.8544 10.8544 0 0 0 7.72096 3.18464c2.91328 0 5.65248-1.1264 7.70048-3.1744a10.8032 10.8032 0 0 0-0.17408-15.58528l-40.0896-32.93696 40.27392-33.10592c2.08384-2.05824 3.23072-4.79744 3.23072-7.71584 0-2.92352-1.14688-5.66272-3.23072-7.72608-4.13184-4.07552-11.47392-3.90656-15.24224-0.15872l-49.3568 40.576a10.48576 10.48576 0 0 0-3.14368 7.9872c-0.16384 3.13344 0.97792 6.144 3.32288 8.43264l48.98816 40.22272z" fill="#FFFFFF" p-id="8564"></path><path d="M277.77024 528.896h619.56608V448.02048a10.24 10.24 0 0 0-10.24-10.24H288.01024a10.24 10.24 0 0 0-10.24 10.24V528.896z" fill="#EBEEF5" p-id="8565"></path><path d="M122.88 219.1104h619.56096V138.24a10.24 10.24 0 0 0-10.24-10.24H133.12a10.24 10.24 0 0 0-10.24 10.24v80.8704z" fill="#2B8FFF" p-id="8566"></path><path d="M186.65984 171.80672a16.47616 16.47616 0 1 0 32.9472 0 16.47616 16.47616 0 0 0-32.9472 0zM244.3776 171.80672a16.47616 16.47616 0 1 0 32.9472 0 16.47616 16.47616 0 0 0-32.9472 0zM302.10048 171.80672a16.47616 16.47616 0 1 0 32.9472 0 16.47616 16.47616 0 0 0-32.9472 0z" fill="#FFFFFF" p-id="8567"></path><path d="M122.88 219.1104h619.56096v354.21184a10.24 10.24 0 0 1-10.24 10.24H133.12a10.24 10.24 0 0 1-10.24-10.24V219.1104z" fill="#B3D7FF" p-id="8568"></path><path d="M286.72 418.28352L430.97088 256l144.25088 162.28352H485.06368V501.76H376.8832V418.28352zM485.0688 520.68352V537.6H376.87296v-16.91648z" fill="#FFFFFF" p-id="8569"></path></svg>