<?xml version="1.0" standalone="no"?><!DOCTYPE svg PUBLIC "-//W3C//DTD SVG 1.1//EN" "http://www.w3.org/Graphics/SVG/1.1/DTD/svg11.dtd"><svg t="1586516382266" class="icon" viewBox="0 0 1024 1024" version="1.1" xmlns="http://www.w3.org/2000/svg" p-id="1942" xmlns:xlink="http://www.w3.org/1999/xlink" width="200" height="200"><defs><style type="text/css"></style></defs><path d="M512 1024C229.053 1024 0 794.947 0 512S229.053 0 512 0s512 229.053 512 512-229.053 512-512 512z m0-916.21c-222.316 0-404.21 181.894-404.21 404.21S289.683 916.21 512 916.21 916.21 734.317 916.21 512 734.317 107.79 512 107.79z" fill="#9DDCFE" p-id="1943"></path><path d="M970.105 565.895c-29.642 0-53.894-24.253-53.894-53.895 0-106.442-41.769-207.495-115.874-282.947-20.21-21.558-20.21-55.242 0-76.8 21.558-20.21 55.242-20.21 76.8 0C971.453 249.263 1024 377.263 1024 512c0 29.642-24.253 53.895-53.895 53.895z" fill="#027aff" p-id="1944"></path></svg>