<?xml version="1.0" standalone="no"?><!DOCTYPE svg PUBLIC "-//W3C//DTD SVG 1.1//EN" "http://www.w3.org/Graphics/SVG/1.1/DTD/svg11.dtd"><svg t="1597196682899" class="icon" viewBox="0 0 1024 1024" version="1.1" xmlns="http://www.w3.org/2000/svg" p-id="9285" xmlns:xlink="http://www.w3.org/1999/xlink" width="200" height="200"><defs><style type="text/css"></style></defs><path fill="currentColor" d="M657.237333 506.026667h-120.618666V312.192a1.536 1.536 0 0 0-1.493334-1.536h-45.866666a1.536 1.536 0 0 0-1.493334 1.536v241.109333c0 0.853333 0.682667 1.536 1.493334 1.536h167.893333c0.853333 0 1.536-0.682667 1.536-1.536v-45.824c0.042667-0.768-0.64-1.450667-1.450667-1.450666z" p-id="9286"></path><path fill="currentColor" d="M730.794667 755.882667a316.458667 316.458667 0 0 0 96.042666-227.242667 315.861333 315.861333 0 0 0-64.597333-191.744 97.706667 97.706667 0 1 0-157.568-111.061333 316.501333 316.501333 0 0 0-190.464 0 97.664 97.664 0 1 0-157.568 111.061333A315.733333 315.733333 0 0 0 192 528.64c0 83.712 32.554667 159.914667 85.674667 216.746667l-70.613334 70.570666c-0.597333 0.597333-0.597333 1.621333 0 2.133334l32.426667 32.426666c0.597333 0.597333 1.621333 0.597333 2.133333 0l72.106667-72.106666a316.032 316.032 0 0 0 195.712 67.626666c68.394667 0 131.84-21.76 183.68-58.709333l63.146667 63.146667c0.597333 0.554667 1.578667 0.554667 2.133333 0l32.426667-32.426667c0.554667-0.64 0.554667-1.621333 0-2.133333l-60.032-60.032zM692.48 219.605333a48.938667 48.938667 0 0 1 37.12 80.64 318.72 318.72 0 0 0-79.445333-56.106666 48.64 48.64 0 0 1 42.325333-24.533334z m-366.208 0c17.92 0 33.877333 9.685333 42.368 24.490667a318.72 318.72 0 0 0-79.488 56.021333 48.853333 48.853333 0 0 1 37.12-80.512zM240.853333 528.64a268.8 268.8 0 0 1 268.586667-268.586667 268.8 268.8 0 0 1 268.544 268.586667 268.8 268.8 0 0 1-268.544 268.544 268.885333 268.885333 0 0 1-268.586667-268.544z" p-id="9287"></path></svg>