<svg t="1590478898418" class="icon" viewBox="0 0 1024 1024" version="1.1" xmlns="http://www.w3.org/2000/svg" p-id="2499" width="200" height="200"><path d="M640.426667 838.912H385.536a27.136 27.136 0 1 0 0 54.4h254.890667a27.136 27.136 0 1 0 0-54.4z m181.845333-135.338667l-50.048-87.978666c-14.336-34.901333-61.866667-28.885333-56.234667 4.352 0.426667 1.237333 0.853333 2.261333 1.450667 3.498666l61.44 108.373334a35.413333 35.413333 0 0 0 1.877333 2.901333H244.394667l63.104-111.061333a25.344 25.344 0 0 0 3.328-12.842667v-157.781333c0-75.733333 58.922667-154.453333 137.6-183.04a270.506667 270.506667 0 0 1 42.752-10.410667c9.984-1.450667 28.842667-1.664 42.154666 0 12.842667 1.706667 27.989333 5.418667 46.08 11.434667 76.8 29.056 134.698667 107.306667 134.698667 182.016v84.906666c1.28 24.064 47.744 26.794667 51.669333 0v-84.906666c0-46.08-16.597333-94.634667-46.933333-136.533334a271.445333 271.445333 0 0 0-98.346667-83.072A107.605333 107.605333 0 0 0 513.194667 128a107.605333 107.605333 0 0 0-107.306667 104.618667 269.738667 269.738667 0 0 0-98.602667 82.389333c-30.933333 42.368-47.786667 91.136-47.786666 137.813333v150.912l-61.013334 107.52c-8.704 15.36-8.704 34.474667 0.256 49.834667 8.917333 15.36 25.514667 24.917333 43.136 24.917333h542.805334c27.605333 0 50.005333-22.442667 50.005333-50.048a50.389333 50.389333 0 0 0-12.416-32.384z m-309.333333-527.018666c25.6 0 47.146667 16.426667 55.466666 39.253333a304.896 304.896 0 0 0-110.634666-0.426667c8.277333-22.613333 29.866667-38.826667 55.210666-38.826666z" fill="currentColor" p-id="2500"></path></svg>