<?xml version="1.0" encoding="UTF-8"?>
<svg width="176px" height="135px" viewBox="0 0 176 135" version="1.1" xmlns="http://www.w3.org/2000/svg" xmlns:xlink="http://www.w3.org/1999/xlink">
    <!-- Generator: Sketch 55.2 (78181) - https://sketchapp.com -->
    <title>已终止</title>
    <desc>Created with Sketch.</desc>
    <g id="切图" stroke="none" stroke-width="1" fill="none" fill-rule="evenodd">
        <g id="已终止" fill="#303133">
            <g id="审批中" fill-rule="nonzero">
                <path d="M119.681641,28.3261719 L122.148438,30.9726562 L123.46875,27.7089844 L126.816406,26.2988281 L123.910156,24.0058594 L123.556641,20.4785156 L120.474609,22.4179687 L116.863281,21.6230469 L117.832031,25.0625 L115.982422,28.1484375 L119.681641,28.3261719 L119.681641,28.3261719 Z M79.2578125,130.707031 C50.3710938,126.826172 28.7929688,103.634766 25.359375,75.7695313 L21.6601563,74.1816406 C24.5664063,104.515625 47.640625,130.001953 78.8164063,134.234375 C97.6640625,136.791016 115.806641,131.060547 129.544922,119.685547 L125.845703,118.097656 C113.076172,127.974609 96.5195313,133 79.2578125,130.707031 Z" id="形状"></path>
                <path d="M39.5390625,94.640625 L42.09375,97.375 L43.2382812,94.0234375 L46.4082031,92.5253906 L43.5019531,90.2324219 L42.9726562,86.6171875 L40.0664062,88.5566406 L36.5429688,87.8515625 L37.5996094,91.3789062 L35.9257813,94.5527344 L39.5390625,94.640625 L39.5390625,94.640625 Z M93.2597656,27.0917969 C106.382812,28.8554687 117.126953,36.8808594 123.115234,47.7265625 L128.046875,49.7539062 C122.146484,35.9980469 109.552734,25.5917969 93.7871094,23.4746094 C86.4765625,22.5058594 78.9921875,23.3867187 72.1210938,26.1210937 L76.9648438,28.1503906 C82.1640625,26.7402344 87.8007813,26.3867187 93.2597656,27.0917969 L93.2597656,27.0917969 Z M99.953125,12.8945312 L98.1914062,9.80859375 L96.078125,12.8066406 L92.4667969,13.5117187 L94.6699219,16.2460937 L94.1425781,19.7734375 L97.5761719,18.5390625 L100.923828,19.9511719 L100.835937,16.4238281 L103.390625,13.7773437 L99.953125,12.8945312 L99.953125,12.8945312 Z" id="形状"></path>
                <path d="M96.34375,4.25390625 C125.230469,8.13476563 146.806641,31.3261719 150.242188,59.1933594 L153.941406,60.7792969 C151.035156,30.4433594 127.960938,4.95898438 96.7851563,0.7265625 C77.9394531,-1.83007812 59.796875,3.99023438 46.0566406,15.2773438 L49.7558594,16.8632813 C62.5253906,6.98632813 79.0820313,1.9609375 96.34375,4.25390625 L96.34375,4.25390625 Z" id="路径"></path>
                <path d="M135.708984,40.1425781 L132.978516,37.6738281 L132.097656,41.1132812 L129.015625,42.7890625 L132.097656,44.90625 L132.890625,48.4335938 L135.708984,46.2285156 L139.320313,46.7578125 L138,43.3183594 L139.408203,40.0566406 L135.708984,40.1425781 L135.708984,40.1425781 Z M72.4765625,14.2167969 L69.921875,11.8378906 L68.7773438,15.3652344 L65.5195312,17.2167969 L68.5136719,19.15625 L69.1308594,22.6835937 L72.0371094,20.390625 L75.6484375,20.7441406 L74.5019531,17.3925781 L76.0878906,14.1289062 L72.4765625,14.2167969 L72.4765625,14.2167969 Z M171.113281,71.8886719 L26.0644531,10.6914062 C22.5410156,9.19140625 18.4023438,10.8671875 16.90625,14.484375 L0.69921875,53.8125 C-0.798828125,57.4277344 0.875,61.5722656 4.3984375,63.0722656 L149.447266,124.271484 C152.970703,125.769531 157.109375,124.095703 158.605469,120.478516 L174.810547,81.2363281 C176.398438,77.5332031 174.724609,73.3886719 171.113281,71.8886719 Z M171.025391,81.4140625 L156.140625,117.392578 C154.996094,120.125 151.914063,121.359375 149.271484,120.302734 L7.39257813,60.4257812 C4.75,59.2792969 3.4296875,56.1914062 4.57421875,53.4589844 L19.4589844,17.4804688 C20.6054688,14.7460938 23.6875,13.5117188 26.328125,14.6582031 L168.119141,74.4453125 C170.849609,75.59375 172.082031,78.7675781 171.025391,81.4140625 Z M60.5859375,108.925781 L58.1191406,106.28125 L56.7988281,109.542969 L53.4511719,110.953125 L56.2695312,113.246094 L56.6210938,116.773438 L59.703125,114.833984 L63.3144531,115.626953 L62.3457031,112.1875 L64.1953125,109.101563 L60.5859375,108.925781 L60.5859375,108.925781 Z M106.029297,121.183594 L108.583984,123.564453 L109.640625,120.125 L112.810547,118.273438 L109.904297,116.333984 L109.287109,112.806641 L106.380859,115.099609 L102.857422,114.748047 L104.001953,118.097656 L102.416016,121.361328 L106.029297,121.183594 L106.029297,121.183594 Z M80.4023438,122.59375 L82.1640625,125.679688 L84.2773437,122.681641 L87.8886719,121.976562 L85.6855469,119.244141 L86.2128906,115.716797 L82.7792969,116.951172 L79.5214844,115.541016 L79.609375,119.068359 L77.0546875,121.714844 L80.4023437,122.59375 L80.4023438,122.59375 Z M98.7207031,106.632813 C93.3998157,108.146335 87.8274591,108.566238 82.3398437,107.867188 C69.2167969,106.103516 58.4726562,98.078125 52.484375,87.2324219 L47.5527344,85.2050781 C53.453125,98.9609375 66.046875,109.367188 81.8125,111.482422 C89.1210937,112.453125 96.6074219,111.570313 103.478516,108.835938 L98.7207031,106.632813 L98.7207031,106.632813 Z" id="形状"></path>
            </g>
            <text transform="translate(89.000000, 68.000000) rotate(23.000000) translate(-89.000000, -68.000000) " font-family="SourceHanSansCN-Bold, Source Han Sans CN" font-size="36" font-weight="bold">
                <tspan x="35" y="82">已终止</tspan>
            </text>
        </g>
    </g>
</svg>