<svg xmlns="http://www.w3.org/2000/svg" xmlns:xlink="http://www.w3.org/1999/xlink" fill="none" version="1.1" width="40" height="40" viewBox="0 0 40 40"><g style="mix-blend-mode:passthrough"><g style="mix-blend-mode:passthrough"><ellipse cx="20" cy="20" rx="20" ry="20" fill="#F5F5F5" fill-opacity="1"/><ellipse cx="20" cy="20" rx="19.5" ry="19.5" fill-opacity="0" stroke-opacity="1" stroke="#E0E0E0" fill="none" stroke-width="1"/></g><g style="mix-blend-mode:passthrough"><g style="mix-blend-mode:passthrough"><path d="M20.83333,28.3333298828125C20.83333,28.7936298828125,20.46024,29.1667298828125,20,29.1667298828125L13.333333,29.1667298828125C12.873096,29.1667298828125,12.5,28.7936298828125,12.5,28.3333298828125L12.5,11.6667068828125C12.5,11.2064698828125,12.873096,10.8333740238125,13.333333,10.8333740238125L26.6667,10.8333740238125C27.1269,10.8333740238125,27.5,11.2064698828125,27.5,11.6667068828125L27.5,19.1927498828125C27.5,19.6529898828125,27.1269,20.0260798828125,26.6667,20.0260798828125C26.206400000000002,20.0260798828125,25.8333,19.6529898828125,25.8333,19.1927498828125L25.8333,12.5000398828125L14.16667,12.5000398828125L14.16667,27.5000298828125L20,27.5000298828125C20.46024,27.5000298828125,20.83333,27.8731298828125,20.83333,28.3333298828125ZM16.66683,16.666789882812502L23.3335,16.666789882812502C23.7937,16.666789882812502,24.166800000000002,16.2936898828125,24.166800000000002,15.8334598828125C24.166800000000002,15.3732198828125,23.7937,15.0001198828125,23.3335,15.0001198828125L16.66683,15.0001198828125C16.20659,15.0001198828125,15.8335,15.3732198828125,15.8335,15.8334598828125C15.8335,16.2936898828125,16.20659,16.666789882812502,16.66683,16.666789882812502ZM16.66683,20.8335298828125L23.3595,20.8335298828125C23.8198,20.8335298828125,24.1929,20.4604398828125,24.1929,20.000199882812502C24.1929,19.5399698828125,23.8198,19.1668698828125,23.3595,19.1668698828125L16.66683,19.1668698828125C16.20659,19.1668698828125,15.8335,19.5399698828125,15.8335,20.000199882812502C15.8335,20.4604398828125,16.20659,20.8335298828125,16.66683,20.8335298828125ZM28.8179,21.8230298828125C28.4439,21.5559298828125,27.9242,21.6422298828125,27.6565,22.0157298828125L24.1505,26.9227298828125L22.33354,24.5008298828125C22.0574,24.132629882812502,21.535069999999997,24.058029882812498,21.16688,24.3342298828125C20.79869,24.6103298828125,20.724069999999998,25.132629882812502,21.00021,25.5008298828125L23.5002,28.8342298828125C23.6578,29.0437298828125,23.9047,29.1669298828125,24.1669,29.1667298828125L24.1765,29.1667298828125C24.4419,29.1633298828125,24.689700000000002,29.0337298828125,24.844,28.8178298828125L29.0106,22.9844298828125C29.2777,22.6104298828125,29.1914,22.0907298828125,28.8179,21.8230298828125Z" fill-rule="evenodd" fill="#999999" fill-opacity="1"/></g><g style="opacity:0;mix-blend-mode:passthrough"><rect x="10" y="10" width="20" height="20" rx="0" fill="#999999" fill-opacity="1"/></g></g></g></svg>