<svg xmlns="http://www.w3.org/2000/svg" xmlns:xlink="http://www.w3.org/1999/xlink" fill="none" version="1.1" width="40" height="40" viewBox="0 0 40 40"><g style="mix-blend-mode:passthrough"><g style="mix-blend-mode:passthrough"><ellipse cx="20" cy="20" rx="20" ry="20" fill="#F5F5F5" fill-opacity="1"/><ellipse cx="20" cy="20" rx="19.5" ry="19.5" fill-opacity="0" stroke-opacity="1" stroke="#E0E0E0" fill="none" stroke-width="1"/></g><g style="mix-blend-mode:passthrough"><g style="mix-blend-mode:passthrough"><path d="M20.83333,28.333251953125C20.83333,28.793451953125,20.460160000000002,29.166551953125,20,29.166551953125L13.333333,29.166551953125C12.873177,29.166551953125,12.5,28.793451953125,12.5,28.333251953125L12.5,11.666584953125C12.5,11.206428953125,12.873177,10.833251953125,13.333333,10.833251953125L26.6667,10.833251953125C27.1268,10.833251953125,27.5,11.206428953125,27.5,11.666584953125L27.5,19.192621953125C27.5,19.652781953125,27.1268,20.025961953124998,26.6667,20.025961953124998C26.2065,20.025961953124998,25.8333,19.652781953125,25.8333,19.192621953125L25.8333,12.499921953125L14.16667,12.499921953125L14.16667,27.499951953125L20,27.499951953125C20.460160000000002,27.499951953125,20.83333,27.873051953125,20.83333,28.333251953125ZM23.3335,16.666661953125L16.66683,16.666661953125C16.20667,16.666661953125,15.8335,16.293491953125,15.8335,15.833331953125C15.8335,15.373181953125,16.20667,15.000001953125,16.66683,15.000001953125L23.3335,15.000001953125C23.7937,15.000001953125,24.166800000000002,15.373181953125,24.166800000000002,15.833331953125C24.166800000000002,16.293491953125,23.7937,16.666661953125,23.3335,16.666661953125ZM23.3335,20.833451953125L16.66683,20.833451953125C16.20667,20.833451953125,15.8335,20.460241953125,15.8335,20.000081953124997C15.8335,19.539921953125003,16.20667,19.166751953125,16.66683,19.166751953125L23.3335,19.166751953125C23.7937,19.166751953125,24.166800000000002,19.539921953125003,24.166800000000002,20.000081953124997C24.166800000000002,20.460241953125,23.7937,20.833451953125,23.3335,20.833451953125ZM26.422800000000002,21.910651953125L28.9228,24.410651953125L28.9231,24.410351953125C29.2486,24.735651953125,29.2486,25.263251953125,28.9231,25.588751953124998L26.423099999999998,28.088751953125C26.2603,28.251551953125,26.047,28.332751953125,25.8338,28.332751953125C25.6205,28.332751953125,25.4072,28.251551953125,25.2444,28.088751953125C24.9189,27.763551953125,24.9189,27.235951953125,25.2444,26.910351953125L26.3218,25.833051953125L21.666829999999997,25.833051953125C21.206670000000003,25.833051953125,20.8335,25.459851953125,20.8335,24.999751953125C20.8335,24.539551953125,21.206670000000003,24.166351953125,21.666829999999997,24.166351953125L26.3218,24.166351953125L25.2444,23.089051953125C24.9189,22.763751953125002,24.9192,22.236151953125002,25.2444,21.910651953125C25.569699999999997,21.585151953125,26.0973,21.585151953125,26.422800000000002,21.910651953125Z" fill-rule="evenodd" fill="#999999" fill-opacity="1"/></g><g style="opacity:0;mix-blend-mode:passthrough"><rect x="10" y="10" width="20" height="20" rx="0" fill="#999999" fill-opacity="1"/></g></g></g></svg>