<svg xmlns="http://www.w3.org/2000/svg" xmlns:xlink="http://www.w3.org/1999/xlink" fill="none" version="1.1" width="40" height="40" viewBox="0 0 40 40"><g style="mix-blend-mode:passthrough"><g style="mix-blend-mode:passthrough"><ellipse cx="20" cy="20" rx="20" ry="20" fill="#F2F5FF" fill-opacity="1"/><ellipse cx="20" cy="20" rx="19.5" ry="19.5" fill-opacity="0" stroke-opacity="1" stroke="#3370FF" fill="none" stroke-width="1"/></g><g style="mix-blend-mode:passthrough"><g style="opacity:0;mix-blend-mode:passthrough"><rect x="10" y="10" width="20" height="20" rx="0" fill="#3370FF" fill-opacity="1"/></g><g style="mix-blend-mode:passthrough"><path d="M22.5,28.3333298828125C22.5,28.7936298828125,22.1269,29.1667298828125,21.66667,29.1667298828125L13.333333,29.1667298828125C12.873096,29.1667298828125,12.5,28.7936298828125,12.5,28.3333298828125L12.5,11.6667068828125C12.5,11.2064698828125,12.873096,10.8333740238125,13.333333,10.8333740238125L26.6667,10.8333740238125C27.1269,10.8333740238125,27.5,11.2064698828125,27.5,11.6667068828125L27.5,18.333369882812498C27.5,18.7936098828125,27.1269,19.166709882812498,26.6667,19.166709882812498C26.206400000000002,19.166709882812498,25.8333,18.7936098828125,25.8333,18.333369882812498L25.8333,12.5000398828125L14.16667,12.5000398828125L14.16667,27.5000298828125L21.66667,27.5000298828125C22.1269,27.5000298828125,22.5,27.8731298828125,22.5,28.3333298828125ZM23.3335,15.0001198828125C23.7937,15.0001198828125,24.166800000000002,15.3732198828125,24.166800000000002,15.8334598828125C24.166800000000002,16.2936898828125,23.7937,16.666789882812502,23.3335,16.666789882812502L16.66683,16.666789882812502C16.20659,16.666789882812502,15.8335,16.2936898828125,15.8335,15.8334598828125C15.8335,15.3732198828125,16.20659,15.0001198828125,16.66683,15.0001198828125L23.3335,15.0001198828125ZM21.666829999999997,19.1668698828125C22.12707,19.1668698828125,22.5002,19.5399698828125,22.5002,20.000199882812502C22.5002,20.4604398828125,22.12707,20.8335298828125,21.666829999999997,20.8335298828125L16.66683,20.8335298828125C16.20659,20.8335298828125,15.8335,20.4604398828125,15.8335,20.000199882812502C15.8335,19.5399698828125,16.20659,19.1668698828125,16.66683,19.1668698828125L21.666829999999997,19.1668698828125ZM28.9227,21.077429882812503C28.6918,20.846029882812502,28.346899999999998,20.7709398828125,28.0407,20.8855298828125L21.37401,23.3855298828125C21.05753,23.5043298828125,20.844160000000002,23.8025298828125,20.83388,24.140429882812498C20.823610000000002,24.4782298828125,21.018459999999997,24.7888298828125,21.32714,24.9266298828125L23.948700000000002,26.0972298828125L25.0685,28.6657298828125C25.2009,28.9702298828125,25.5014,29.1670298828125,25.833399999999997,29.1667298828125L25.8553,29.1667298828125C26.1949,29.1582298828125,26.4954,28.9443298828125,26.6146,28.6261298828125L29.1146,21.9595298828125C29.2292,21.6532298828125,29.1542,21.3083298828125,28.9227,21.077429882812503ZM25.3473,25.1355298828125L25.775199999999998,26.1159298828125L26.9085,23.0907298828125L23.8604,24.2339298828125L24.9221,24.7079298828125C25.1122,24.7923298828125,25.2639,24.9448298828125,25.3473,25.1355298828125Z" fill-rule="evenodd" fill="#3370FF" fill-opacity="1"/></g></g></g></svg>