<?xml version="1.0" standalone="no"?><!DOCTYPE svg PUBLIC "-//W3C//DTD SVG 1.1//EN" "http://www.w3.org/Graphics/SVG/1.1/DTD/svg11.dtd"><svg t="1606795394706" class="icon" viewBox="0 0 1024 1024" version="1.1" xmlns="http://www.w3.org/2000/svg" p-id="10676" xmlns:xlink="http://www.w3.org/1999/xlink" width="200" height="200"><defs><style type="text/css"></style></defs><path d="M564.906667 426.666667a20.992 20.992 0 1 1 0 41.984H335.488a20.992 20.992 0 1 1 0-41.984h229.418667z m-94.293334 131.669333a20.992 20.992 0 1 1 0 42.026667H335.445333a20.992 20.992 0 1 1 0-42.026667h135.082667zM533.034667 170.666667h276.48a42.666667 42.666667 0 0 1 42.538666 42.666666v214.272a42.666667 42.666667 0 0 1-42.581333 42.581334h-17.92l6.912 35.114666a20.992 20.992 0 0 1-32.426667 21.461334l-36.394666-24.746667v208.682667c0 27.648-22.528 50.176-50.176 50.176h-247.424l-156.757334 77.653333a20.778667 20.778667 0 0 1-23.381333 0.128 21.034667 21.034667 0 0 1-9.045333-21.589333l11.093333-56.234667h-33.152A50.218667 50.218667 0 0 1 170.666667 710.656V321.92c0-27.648 22.528-50.176 50.176-50.176h269.653333V213.333333a42.666667 42.666667 0 0 1 42.581333-42.666666zM425.685333 718.805333h253.824a8.149333 8.149333 0 0 0 8.149334-8.192v-388.693333a8.192 8.192 0 0 0-8.149334-8.192H220.842667a8.192 8.192 0 0 0-8.192 8.192v388.736c0 4.48 3.712 8.149333 8.192 8.149333h58.88a20.992 20.992 0 0 1 20.565333 25.173334c-2.005333 9.728-4.138667 20.522667-6.186667 30.976l119.722667-52.48a21.418667 21.418667 0 0 1 11.861333-3.669334z m383.829334-290.56a0.682667 0.682667 0 0 0 0.64-0.597333V234.666667c0-0.256-0.213333-21.290667-0.554667-21.290667h-276.48c-0.256 0-0.554667 20.949333-0.554667 21.333333v37.12h146.986667c27.648 0 50.176 22.528 50.176 50.176v129.28l17.664 11.989334-1.962667-9.813334a21.12 21.12 0 0 1 20.565334-25.173333h43.52z" fill="currentColor" p-id="10677"></path></svg>