<?xml version="1.0" standalone="no"?><!DOCTYPE svg PUBLIC "-//W3C//DTD SVG 1.1//EN" "http://www.w3.org/Graphics/SVG/1.1/DTD/svg11.dtd"><svg t="1599276429520" class="icon" viewBox="0 0 1024 1024" version="1.1" xmlns="http://www.w3.org/2000/svg" p-id="8496" xmlns:xlink="http://www.w3.org/1999/xlink" width="200" height="200"><defs><style type="text/css"></style></defs><path d="M736.711111 934.684444c-14.392889 0-30.606222-4.152889-45.681778-11.719111l-178.915555-89.429333L332.231111 922.737778c-13.937778 7.395556-29.525333 11.320889-45.340444 11.264-20.764444 0-41.073778-6.542222-57.912889-18.773334l-0.512-0.398222a100.807111 100.807111 0 0 1-38.570667-97.052444l0.056889-0.398222 36.807111-190.122667L87.267556 496.64l-0.398223-0.398222a103.822222 103.822222 0 0 1-26.282666-100.181334l0.398222-1.251555c11.946667-37.205333 42.382222-63.260444 79.530667-68.266667l195.413333-35.498666 88.291555-178.801778A99.555556 99.555556 0 0 1 512.170667 56.888889c18.602667 0 36.864 5.404444 52.849777 15.587555 15.758222 9.841778 28.216889 24.177778 35.669334 41.244445l87.267555 177.152 196.096 34.417778a97.450667 97.450667 0 0 1 78.279111 68.380444c11.434667 35.555556 1.991111 74.524444-24.462222 100.864l-0.739555 0.739556-140.060445 132.096 35.384889 190.634666a98.474667 98.474667 0 0 1-38.115555 96.483556c-15.473778 12.856889-36.408889 20.195556-57.685334 20.195555zM585.614222 245.418667a21.105778 21.105778 0 0 0-39.424 14.563555c6.656 26.510222 21.959111 63.715556 46.08 111.616a56.888889 56.888889 0 0 0 46.08 31.175111c52.451556 4.380444 91.704889 6.542222 117.816889 6.542223a19.569778 19.569778 0 0 0 2.844445-38.912l-119.466667-17.066667-53.930667-107.918222z" fill="#F5A623" p-id="8497"></path></svg>