<?xml version="1.0" standalone="no"?><!DOCTYPE svg PUBLIC "-//W3C//DTD SVG 1.1//EN" "http://www.w3.org/Graphics/SVG/1.1/DTD/svg11.dtd"><svg t="1599270038792" class="icon" viewBox="0 0 1024 1024" version="1.1" xmlns="http://www.w3.org/2000/svg" p-id="8436" xmlns:xlink="http://www.w3.org/1999/xlink" width="200" height="200"><defs><style type="text/css"></style></defs><path d="M646.272 820.224l-134.186667-67.072L377.173333 820.053333c-10.453333 5.546667-22.144 8.490667-34.005333 8.448-15.573333 0-30.805333-4.906667-43.434667-14.08l-0.384-0.298666a75.605333 75.605333 0 0 1-28.928-72.789334l0.042667-0.298666 27.605333-142.592-104.576-98.005334-0.298666-0.298666a77.866667 77.866667 0 0 1-19.712-75.136l0.298666-0.938667c8.96-27.904 31.786667-47.445333 59.648-51.2l146.56-26.624 66.218667-134.101333A74.666667 74.666667 0 0 1 512.128 170.666667c13.952 0 27.648 4.053333 39.637333 11.690666 11.818667 7.381333 21.162667 18.133333 26.752 30.933334l65.450667 132.864 147.072 25.813333a73.088 73.088 0 0 1 58.709333 51.285333c8.576 26.666667 1.493333 55.893333-18.346666 75.648l-0.554667 0.554667-105.045333 99.072 26.538666 142.976a73.856 73.856 0 0 1-28.586666 72.362667c-11.605333 9.642667-27.306667 15.146667-43.264 15.146666-15.274667-2.048-26.666667-4.992-34.218667-8.789333z m-79.018667-508.16a15.829333 15.829333 0 0 0-29.568 10.922667c4.992 19.882667 16.469333 47.786667 34.56 83.712a42.666667 42.666667 0 0 0 34.56 23.381333c39.338667 3.285333 68.778667 4.906667 88.362667 4.906667a14.677333 14.677333 0 0 0 2.133333-29.184l-89.6-12.8-40.448-80.938667z" fill="#F5A623" p-id="8437"></path></svg>