<svg t="1590552147116" class="icon" viewBox="0 0 1024 1024" version="1.1" xmlns="http://www.w3.org/2000/svg" p-id="2748" width="200" height="200"><path d="M827.306667 384.128a64.853333 64.853333 0 0 1-12.629334 66.858667c-31.530667 34.090667-31.530667 88.277333 0 123.605333 16.384 17.664 21.461333 44.117333 12.586667 66.858667-11.306667 29.013333-27.733333 56.704-46.634667 80.682666a64.426667 64.426667 0 0 1-63.061333 22.741334 91.904 91.904 0 0 0-65.578667 10.069333c-20.224 11.349333-34.090667 30.293333-41.6 51.712-7.594667 23.936-27.733333 40.32-51.712 44.117333-15.146667 1.28-31.573333 2.56-46.677333 2.56-15.146667 0-31.530667-1.28-46.677333-3.84a64.298667 64.298667 0 0 1-51.712-44.074666c-13.866667-45.397333-60.501333-71.850667-107.178667-61.824a63.402667 63.402667 0 0 1-63.061333-22.698667c-18.901333-25.173333-35.328-51.754667-46.634667-80.725333a64.853333 64.853333 0 0 1 12.586667-66.858667c31.530667-34.048 31.530667-88.234667 0-123.562667a64.853333 64.853333 0 0 1-12.586667-66.858666c11.306667-29.013333 27.733333-56.746667 46.634667-80.725334 15.146667-18.944 40.32-27.733333 64.341333-22.741333 22.741333 5.077333 45.397333 1.28 65.578667-10.069333 20.181333-11.306667 34.048-30.250667 41.6-51.712 7.594667-23.893333 27.733333-40.32 51.712-44.117334a383.36 383.36 0 0 1 93.312 0c23.936 3.797333 44.117333 20.181333 51.712 44.117334 6.357333 21.461333 21.504 40.32 41.6 51.712a91.562667 91.562667 0 0 0 65.621333 10.069333c23.893333-5.034667 49.152 3.84 63.018667 22.741333 17.664 26.538667 34.090667 52.992 45.397333 82.005334z m-46.677334 18.944a285.525333 285.525333 0 0 0-40.32-68.096c-2.56-3.84-7.637333-5.12-12.629333-3.84a140.714667 140.714667 0 0 1-100.906667-15.104 136.533333 136.533333 0 0 1-64.298666-80.725333c-1.28-5.077333-5.12-8.789333-10.069334-8.789334a278.272 278.272 0 0 0-79.445333 0c-5.12 1.28-8.832 3.797333-10.069333 8.789334a136.704 136.704 0 0 1-64.426667 80.725333c-30.250667 17.664-66.816 22.741333-102.101333 15.146667a13.952 13.952 0 0 0-12.586667 3.797333 311.210667 311.210667 0 0 0-40.32 68.096c-1.28 5.077333-1.28 10.069333 2.56 13.866667a142.933333 142.933333 0 0 1 0 191.701333 11.946667 11.946667 0 0 0-2.56 12.586667c10.069333 25.173333 23.893333 47.914667 39.04 68.138666 2.56 3.797333 8.832 5.077333 12.629333 5.077334 71.850667-16.426667 143.786667 26.453333 166.4 95.829333 1.28 5.077333 5.12 7.594667 10.069334 8.789333 12.629333 1.28 26.453333 2.56 39.082666 2.56 13.866667 0 26.453333-1.28 40.32-2.56 5.077333-1.28 8.789333-3.797333 10.069334-8.789333a136.533333 136.533333 0 0 1 64.298666-80.725333c30.293333-17.664 66.858667-22.741333 102.144-15.104 5.034667 1.28 10.069333-1.28 12.586667-3.84 16.384-21.461333 30.293333-44.117333 40.32-68.096 1.28-3.84 1.28-10.069333-2.56-13.866667a142.933333 142.933333 0 0 1 0-191.701333c4.010667-3.797333 4.010667-8.789333 2.773333-13.866667z m-273.706666 235.818667a126.464 126.464 0 0 1-126.08-126.08 126.506667 126.506667 0 0 1 126.08-126.122667 126.506667 126.506667 0 0 1 126.122666 126.122667c0 69.376-55.466667 126.08-126.122666 126.08z m0-50.432c41.6 0 75.648-34.090667 75.648-75.648 0-41.6-34.048-75.690667-75.648-75.690667-41.6 0-75.648 34.090667-75.648 75.690667 0 41.557333 34.048 75.648 75.648 75.648z" fill="currentColor" p-id="2749"></path></svg>