<?xml version="1.0" standalone="no"?><!DOCTYPE svg PUBLIC "-//W3C//DTD SVG 1.1//EN" "http://www.w3.org/Graphics/SVG/1.1/DTD/svg11.dtd"><svg t="1596073924645" class="icon" viewBox="0 0 1044 1024" version="1.1" xmlns="http://www.w3.org/2000/svg" p-id="1257" xmlns:xlink="http://www.w3.org/1999/xlink" width="203.90625" height="200"><defs><style type="text/css"></style></defs><path d="M87.520653 767.070041c0 91.125551 82.849959 175.333878 217.354449 220.891428 134.50449 45.568 300.225306 45.568 434.729796 0 134.509714-45.557551 217.359673-129.765878 217.359673-220.891428s-82.849959-175.333878-217.354449-220.896653c-134.509714-45.562776-300.230531-45.562776-434.73502 0-134.50449 45.562776-217.354449 129.771102-217.354449 220.891428z" fill="#E6F7FF" p-id="1258"></path><path d="M837.057306 607.399184v-6.191021c0-4.984163 3.94449-8.944327 8.923429-8.944326h150.627265c4.973714 0 8.923429 3.960163 8.923429 8.944326v6.191021c0 4.989388-3.949714 8.944327-8.923429 8.944326H930.220408c-4.973714 0-8.923429 3.960163-8.923428 8.944327v6.708245c0 4.989388 3.949714 8.944327 8.923428 8.944326h12.69551c4.973714 0 8.918204 3.954939 8.918204 8.944327l0.172409 10.663183c0 4.989388-3.94449 9.116735-8.918204 9.116735h-129.870368a8.871184 8.871184 0 0 1-8.923428-8.944326v-10.318368c0-4.989388 3.94449-8.944327 8.923428-8.944326l59.015837-0.344817c4.806531 0 8.918204-3.954939 8.918204-8.944326l0.172408-7.053061a8.75102 8.75102 0 0 0-9.090612-9.111511l-26.075429 0.339592c-5.151347 0-9.090612-3.954939-9.090612-8.944326zM1021.011592 603.877878a11.608816 11.608816 0 1 0 23.217632 0 11.608816 11.608816 0 0 0-23.217632 0zM165.564082 800.783673v-6.018612c0-4.806531-3.871347-8.818939-8.818939-8.818939H10.234776c-4.811755 0-8.829388 3.876571-8.829388 8.818939v6.149225a8.672653 8.672653 0 0 0 8.693551 8.693551h64.569469c4.806531 0 8.818939 3.876571 8.818939 8.818939v6.55151c0 4.811755-3.876571 8.824163-8.818939 8.824163h-12.298449c-4.81698 0-8.693551 3.876571-8.829388 8.688327l-0.130612 10.428081a8.761469 8.761469 0 0 0 8.824163 8.954776h126.458776c4.811755 0 8.824163-3.876571 8.824163-8.824164v-10.292245c0-4.811755-3.876571-8.688327-8.688326-8.824163l-57.349225-0.397061c-4.811755 0-8.688327-3.876571-8.688326-8.557714l-0.135837-6.948572a8.761469 8.761469 0 0 1 8.824163-8.96l25.40147 0.266449a8.474122 8.474122 0 0 0 8.688326-8.55249z" fill="#E6F7FF" p-id="1259"></path><path d="M352.684408 703.869388c-31.033469 16.425796-53.211429 38.922449-52.276245 66.946612-78.315102 0-91.428571 75.086367-91.428571 75.086367h626.938775c0 2.089796-22.925061-97.07102-78.106122-75.086367 6.044735-24.476735-23.186286-85.159184-110.236735-80.718367-12.120816-54.371265-37.005061-68.096-51.879183-62.354286-55.917714 21.582367-31.326041-47.82498-31.326041-47.82498H490.401959s14.848 54.716082-26.059755 52.741225c-33.922612-1.635265-42.684082 49.946122-46.95249 57.432816-4.278857 7.486694-33.677061-2.66449-64.705306 13.77698z" fill="#FFFFFF" p-id="1260"></path><path d="M593.010939 709.093878c-31.033469 16.425796-53.211429 38.922449-52.276245 66.946612-78.315102 0-91.428571 75.086367-91.428572 75.086367h386.612245c0 2.089796-22.925061-97.07102-78.106122-75.086367 6.044735-24.476735-23.186286-85.159184-110.236735-80.718368 0.261224-0.46498-23.536327-2.66449-54.564571 13.771756z" fill="#FAFAFA" p-id="1261"></path><path d="M425.257796 146.254367c-64.992653 84.809143-118.099592 158.108735-158.61551 258.915266-4.702041 11.316245 5.658122 21.681633 16.948245 18.860408l123.423347-34.868245m222.61551-237.682939c65.008327 84.798694 123.329306 152.884245 163.850449 253.690776 4.696816 11.316245-5.663347 21.681633-16.95347 18.860408l-123.423347-34.868245-23.468408-237.682939z" fill="#66AEFF" p-id="1262"></path><path d="M389.548408 516.001959C365.056 435.931429 359.392653 351.137959 377.29698 269.155265c21.122612-94.51102 49.820735-171.812571 113.423673-244.845714l6.593306-7.544163a37.464816 37.464816 0 0 1 57.458939 0l6.588082 7.544163c65.013551 73.482449 92.692898 151.588571 113.413224 244.856163 18.834286 81.977469 13.197061 166.776163-11.300571 246.851919l-273.92-0.015674z" fill="#2B8FFF" p-id="1263"></path><path d="M403.173878 402.014041a489.947429 489.947429 0 0 1 5.642449-165.825306c19.842612-88.32 49.376653-160.412735 106.386285-230.723919-7.523265 1.891265-14.116571 5.652898-18.83951 11.300572l-6.593306 7.544163C426.64751 97.802449 398.043429 174.957714 377.317878 269.181388c-17.914776 81.961796-12.251429 166.76049 12.256653 246.846694l273.899102-0.010449a432.911673 432.911673 0 0 0 9.424979-32.97698H497.397551c-47.119673-0.015673-87.635592-34.868245-94.228898-81.031837z" fill="#027AFF" p-id="1264"></path><path d="M428.690286 525.437388l196.743836-0.010449a10.44898 10.44898 0 0 1 10.44898 10.448979v30.923755a10.44898 10.44898 0 0 1-10.44898 10.44898H428.700735c-5.767837 0-10.44898-4.681143-10.44898-10.44898l-0.005224-30.913306a10.44898 10.44898 0 0 1 10.443755-10.448979z" fill="#66AEFF" p-id="1265"></path><path d="M452.080327 264.542041a73.32049 73.32049 0 0 0 37.21404 63.623837 75.253551 75.253551 0 0 0 74.422857 0.020898 73.32049 73.32049 0 0 0 37.22449-63.655184c-0.010449-40.578612-33.347918-73.482449-74.433306-73.482449-41.116735 0-74.428082 32.903837-74.43853 73.482449l0.010449 0.010449z" fill="#E6F7FF" p-id="1266"></path><path d="M300.408163 776.04049c-78.315102 0-91.428571 75.086367-91.428571 75.086367h391.836735c0 2.089796-61.84751-71.408327-117.028572-49.423673C489.837714 777.226449 454.530612 707.918367 391.836735 720.979592c-60.081633-28.734694-92.363755 27.041959-91.428572 55.060898z" fill="#F5F7FA" p-id="1267"></path><path d="M464.979592 271.673469c0 34.622694 28.071184 62.693878 62.693877 62.693878s62.693878-28.071184 62.693878-62.693878-28.071184-62.693878-62.693878-62.693877-62.693878 28.071184-62.693877 62.693877z" fill="#E6F7FF" p-id="1268"></path><path d="M527.751837 311.034776l-40.40098-64.010449h20.359837l30.208 47.872-10.166857 16.143673z m14.63902-23.45796L532.088163 271.673469l15.548082-24.628245h20.359837l-25.615674 40.55249 0.010449-0.015673z" fill="#4A90E2" p-id="1269"></path></svg>