<svg t="1590652239032" class="icon" viewBox="0 0 1024 1024" version="1.1" xmlns="http://www.w3.org/2000/svg" p-id="3048" width="200" height="200"><path d="M0 0m64 0l896 0q64 0 64 64l0 896q0 64-64 64l-896 0q-64 0-64-64l0-896q0-64 64-64Z" fill="#1AAC18" p-id="3049"></path><path d="M635.296 396.992c8 0 16 0.544 23.904 1.472C637.696 298.4 530.688 224 408.448 224 271.808 224 160 317.12 160 435.328c0 68.256 37.28 124.352 99.52 167.776l-24.864 74.816 86.848-43.552c31.104 6.144 56.096 12.416 87.104 12.416 7.744 0 15.488-0.416 23.232-0.96a186.784 186.784 0 0 1-7.616-52.064c-0.128-108.608 92.96-196.8 211.072-196.8z m-133.6-67.328c18.72 0 31.136 12.288 31.136 30.976 0 18.56-12.416 31.136-31.136 31.136-18.56 0-37.28-12.416-37.28-31.136 0-18.688 18.56-30.976 37.28-30.976z m-173.92 62.112c-18.56 0-37.408-12.416-37.408-31.136 0-18.688 18.848-30.976 37.408-30.976 18.56 0 31.008 12.288 31.008 30.976 0 18.72-12.448 31.136-31.008 31.136z" fill="#FFFFFF" p-id="3050"></path><path d="M862.08 590.688c0-99.392-99.36-180.352-211.04-180.352-118.208 0-211.328 80.96-211.328 180.352 0 99.52 93.12 180.32 211.328 180.32 24.704 0 49.696-6.272 74.56-12.416l68.096 37.28-18.688-62.144c49.952-37.248 87.104-86.944 87.104-143.04z m-279.552-31.008c-12.448 0-24.864-12.288-24.864-24.832 0-12.416 12.576-24.864 24.864-24.864 18.816 0 31.104 12.448 31.104 24.864 0 12.544-12.288 24.832-31.104 24.832z m136.64 0c-12.288 0-24.704-12.288-24.704-24.832 0-12.416 12.416-24.864 24.704-24.864 18.56 0 31.136 12.448 31.136 24.864 0 12.544-12.448 24.832-31.136 24.832z" fill="#FFFFFF" p-id="3051"></path></svg>