<svg t="1596368806024" class="icon" viewBox="0 0 1024 1024" version="1.1" xmlns="http://www.w3.org/2000/svg" p-id="11303" width="200" height="200"><path d="M768 256a128 128 0 0 1 128 128v384a128 128 0 0 1-128 128H384a128 128 0 0 1-128-128 128 128 0 0 1-128-128V256a128 128 0 0 1 128-128h384a128 128 0 0 1 128 128z m-42.666667 0a85.333333 85.333333 0 0 0-85.333333-85.333333H256a85.333333 85.333333 0 0 0-85.333333 85.333333v384a85.333333 85.333333 0 0 0 85.333333 85.333333V384a128 128 0 0 1 128-128h341.333333z m27.136 252.16l-0.042666-0.085333a5.12 5.12 0 0 0 0-6.997334l-29.098667-30.293333a4.608 4.608 0 0 0-6.656 0l-178.389333 185.941333-87.210667-90.965333a4.608 4.608 0 0 0-6.741333 0l-29.056 30.293333a5.12 5.12 0 0 0 0 7.04l119.68 124.8a4.608 4.608 0 0 0 6.698666 0l210.773334-219.733333z" fill="currentColor" p-id="11304"></path></svg>