<?xml version="1.0" standalone="no"?><!DOCTYPE svg PUBLIC "-//W3C//DTD SVG 1.1//EN" "http://www.w3.org/Graphics/SVG/1.1/DTD/svg11.dtd"><svg t="1606824085446" class="icon" viewBox="0 0 1024 1024" version="1.1" xmlns="http://www.w3.org/2000/svg" p-id="9195" xmlns:xlink="http://www.w3.org/1999/xlink" width="32" height="32"><defs><style type="text/css"></style></defs><path d="M238.208 412.458667A24.96 24.96 0 0 1 213.333333 387.541333V275.541333C213.333333 240.725333 240.725333 213.333333 275.541333 213.333333h112c13.696 0 24.917333 11.221333 24.917334 24.874667 0 13.696-11.221333 24.917333-24.917334 24.917333H275.541333a13.397333 13.397333 0 0 0-12.416 12.416v112c0 13.696-11.221333 24.917333-24.917333 24.917334z m547.584 0a24.96 24.96 0 0 1-24.917333-24.917334V275.541333a13.397333 13.397333 0 0 0-12.416-12.416h-112a24.96 24.96 0 0 1-24.917334-24.917333c0-13.653333 11.221333-24.874667 24.917334-24.874667h112C783.274667 213.333333 810.666667 240.725333 810.666667 275.541333v112c0 13.696-11.178667 24.917333-24.874667 24.917334zM748.458667 810.666667h-112a24.96 24.96 0 0 1-24.917334-24.874667c0-13.696 11.221333-24.917333 24.917334-24.917333h112a13.397333 13.397333 0 0 0 12.416-12.416v-112c0-13.696 11.221333-24.917333 24.917333-24.917334 13.653333 0 24.874667 11.221333 24.874667 24.917334v112c0 34.816-27.392 62.208-62.208 62.208z m-360.917334 0H275.541333A61.610667 61.610667 0 0 1 213.333333 748.458667v-112c0-13.696 11.178667-24.917333 24.874667-24.917334 13.696 0 24.917333 11.221333 24.917333 24.917334v112c0 6.186667 6.186667 12.416 12.416 12.416h112a24.96 24.96 0 0 1 0 49.792z m-21.333333-267.52A24.96 24.96 0 0 1 341.333333 518.186667c0-13.696 11.178667-24.874667 24.874667-24.874667h291.584c13.653333 0 24.874667 11.178667 24.874667 24.874667 0 13.653333-11.221333 24.874667-24.874667 24.874666H366.208z" fill="#B2B2B2" p-id="9196"></path></svg>