<?xml version="1.0" standalone="no"?><!DOCTYPE svg PUBLIC "-//W3C//DTD SVG 1.1//EN" "http://www.w3.org/Graphics/SVG/1.1/DTD/svg11.dtd"><svg t="1595991050609" class="icon" viewBox="0 0 1024 1024" version="1.1" xmlns="http://www.w3.org/2000/svg" p-id="24408" xmlns:xlink="http://www.w3.org/1999/xlink" width="200" height="200"><defs><style type="text/css"></style></defs><path d="M151.970676 869.171609c-198.845718-198.845718-198.845718-521.255581 0-720.101299 198.803066-198.803066 521.212929-198.803066 720.058648 0 198.845718 198.845718 198.845718 521.255581 0 720.101299-198.803066 198.845718-521.212929 198.845718-720.058648 0z m29.984672-30.027324c182.296568 182.296568 477.792736 182.296568 660.089304 0 182.253915-182.253915 182.253915-477.792736 0-660.046651-182.296568-182.296568-477.792736-182.296568-660.089304 0-182.253915 182.253915-182.253915 477.792736 0 660.046651z" fill="#FFFFFF" p-id="24409"></path><path d="M512 479.114962l177.519494-177.519494c9.682106-9.682106 25.59147-9.426191 35.486837 0.51183a25.122293 25.122293 0 0 1 0.51183 35.486837l-177.519494 177.519494 171.548151 171.54815c9.639454 9.639454 9.383539 25.59147-0.51183 35.486838a25.122293 25.122293 0 0 1-35.486837 0.51183L512 551.112296l-171.548151 171.548151a25.122293 25.122293 0 0 1-35.486837-0.51183 25.122293 25.122293 0 0 1-0.51183-35.486838l171.548151-171.54815-177.519494-177.519494a25.122293 25.122293 0 0 1 0.51183-35.486837 25.122293 25.122293 0 0 1 35.486837-0.51183L512 479.114962z" fill="#FFFFFF" p-id="24410"></path></svg>