<svg t="1596368748788" class="icon" viewBox="0 0 1024 1024" version="1.1" xmlns="http://www.w3.org/2000/svg" p-id="11177" width="200" height="200"><path d="M768 256a128 128 0 0 1 128 128v384a128 128 0 0 1-128 128H384a128 128 0 0 1-128-128 128 128 0 0 1-128-128V256a128 128 0 0 1 128-128h384a128 128 0 0 1 128 128z m-42.666667 0a85.333333 85.333333 0 0 0-85.333333-85.333333H256a85.333333 85.333333 0 0 0-85.333333 85.333333v384a85.333333 85.333333 0 0 0 85.333333 85.333333V384a128 128 0 0 1 128-128h341.333333zM384 298.666667a85.333333 85.333333 0 0 0-85.333333 85.333333v384a85.333333 85.333333 0 0 0 85.333333 85.333333h384a85.333333 85.333333 0 0 0 85.333333-85.333333V384a85.333333 85.333333 0 0 0-85.333333-85.333333H384z m368.469333 209.493333l-210.773333 219.733333a4.608 4.608 0 0 1-6.741333 0l-119.68-124.8a5.12 5.12 0 0 1 0-6.997333l29.056-30.293333a4.608 4.608 0 0 1 6.741333 0l87.210667 90.922666 178.346666-185.941333a4.608 4.608 0 0 1 6.698667 0l29.098667 30.293333a5.12 5.12 0 0 1 0 6.997334v0.042666z" fill="currentColor" p-id="11178"></path></svg>