<?xml version="1.0" standalone="no"?><!DOCTYPE svg PUBLIC "-//W3C//DTD SVG 1.1//EN" "http://www.w3.org/Graphics/SVG/1.1/DTD/svg11.dtd"><svg t="1596425011171" class="icon" viewBox="0 0 1024 1024" version="1.1" xmlns="http://www.w3.org/2000/svg" p-id="1469" xmlns:xlink="http://www.w3.org/1999/xlink" width="200" height="200"><defs><style type="text/css"></style></defs><path d="M512 853.333333a341.333333 341.333333 0 1 1 0-682.666666 341.333333 341.333333 0 0 1 0 682.666666z m-0.554667-46.08a295.808 295.808 0 1 0 0-591.616 295.808 295.808 0 0 0 0 591.616z" fill="#303133" p-id="1470"></path><path d="M490.666667 490.666667V323.541333c0-13.738667 11.477333-24.874667 25.6-24.874666 14.122667 0 25.6 11.136 25.6 24.874666V490.666667h158.592c13.738667 0 24.874667 11.477333 24.874666 25.6 0 14.122667-11.136 25.6-24.874666 25.6H541.866667v158.592a25.258667 25.258667 0 0 1-25.6 24.874666 25.258667 25.258667 0 0 1-25.6-24.874666V541.866667H323.541333A25.258667 25.258667 0 0 1 298.666667 516.266667c0-14.122667 11.136-25.6 24.874666-25.6H490.666667z" fill="#303133" p-id="1471"></path></svg>