<?xml version="1.0" standalone="no"?><!DOCTYPE svg PUBLIC "-//W3C//DTD SVG 1.1//EN" "http://www.w3.org/Graphics/SVG/1.1/DTD/svg11.dtd"><svg t="1595918967570" class="icon" viewBox="0 0 1024 1024" version="1.1" xmlns="http://www.w3.org/2000/svg" p-id="15691" xmlns:xlink="http://www.w3.org/1999/xlink" width="200" height="200"><defs><style type="text/css"></style></defs><path d="M230.272 812.032a37.76 37.76 0 0 1-38.272-37.248v-225.109333c0-15.36 10.794667-27.818667 26.197333-27.818667 15.36 0 26.197333 12.458667 26.197334 27.818667v217.173333h535.210666v-217.173333c0-15.36 10.837333-27.818667 26.197334-27.818667s23.296 12.458667 23.296 27.818667v225.109333a37.76 37.76 0 0 1-38.272 37.248H230.272z" fill="currentColor" p-id="15692"></path><path d="M485.802667 286.165333v315.349334c4.053333 12.928 12.8 19.413333 26.197333 19.413333 13.44 0 22.186667-6.826667 26.197333-20.48V285.653333l102.186667 102.186667a26.197333 26.197333 0 1 0 37.034667-37.034667L527.36 200.789333c-5.546667-1.28-10.624-1.706667-15.146667-1.28a45.482667 45.482667 0 0 0-15.104 1.28L347.050667 350.848a26.197333 26.197333 0 1 0 37.034666 37.034667l101.717334-101.717334z" fill="currentColor" p-id="15693"></path></svg>