<?xml version="1.0" standalone="no"?><!DOCTYPE svg PUBLIC "-//W3C//DTD SVG 1.1//EN" "http://www.w3.org/Graphics/SVG/1.1/DTD/svg11.dtd"><svg t="1596425014671" class="icon" viewBox="0 0 1024 1024" version="1.1" xmlns="http://www.w3.org/2000/svg" p-id="1610" xmlns:xlink="http://www.w3.org/1999/xlink" width="200" height="200"><defs><style type="text/css"></style></defs><path d="M512 853.333333a341.333333 341.333333 0 1 1 0-682.666666 341.333333 341.333333 0 0 1 0 682.666666z m-0.554667-46.08a295.808 295.808 0 1 0 0-591.616 295.808 295.808 0 0 0 0 591.616z" fill="#303133" p-id="1611"></path><path d="M682.496 469.333333a42.837333 42.837333 0 1 1 0 85.717334 42.837333 42.837333 0 0 1 0-85.717334zM512 469.333333a42.666667 42.666667 0 1 1 0 85.333334 42.666667 42.666667 0 0 1 0-85.333334z m-170.666667 0.384a42.666667 42.666667 0 1 1 0 85.333334 42.666667 42.666667 0 0 1 0-85.333334z" fill="#303133" p-id="1612"></path></svg>