<?xml version="1.0" standalone="no"?><!DOCTYPE svg PUBLIC "-//W3C//DTD SVG 1.1//EN" "http://www.w3.org/Graphics/SVG/1.1/DTD/svg11.dtd"><svg t="1596250722135" class="icon" viewBox="0 0 1024 1024" version="1.1" xmlns="http://www.w3.org/2000/svg" p-id="26519" xmlns:xlink="http://www.w3.org/1999/xlink" width="200" height="200"><defs><style type="text/css"></style></defs><path d="M512 810.666667a298.666667 298.666667 0 1 1 0-597.333334 298.666667 298.666667 0 0 1 0 597.333334z m-0.469333-45.909334a253.226667 253.226667 0 1 0 0-506.453333 253.226667 253.226667 0 0 0 0 506.453333zM512 481.834667l87.978667-88.021334a25.258667 25.258667 0 0 1 35.712 0.512c9.984 10.026667 10.24 26.026667 0.512 35.712l-87.978667 87.978667 81.92 81.962667a25.258667 25.258667 0 0 1-0.469333 35.712 25.258667 25.258667 0 0 1-35.712 0.512L512 554.24l-81.962667 81.92a25.258667 25.258667 0 0 1-35.712-0.426667 25.258667 25.258667 0 0 1-0.512-35.754666l81.962667-81.92-87.978667-88.021334a25.258667 25.258667 0 0 1 0.512-35.712 25.258667 25.258667 0 0 1 35.712-0.512L512 481.834667z" fill="#B2B2B2" p-id="26520"></path></svg>