<?xml version="1.0" standalone="no"?><!DOCTYPE svg PUBLIC "-//W3C//DTD SVG 1.1//EN" "http://www.w3.org/Graphics/SVG/1.1/DTD/svg11.dtd"><svg t="1595996409498" class="icon" viewBox="0 0 1024 1024" version="1.1" xmlns="http://www.w3.org/2000/svg" p-id="32539" xmlns:xlink="http://www.w3.org/1999/xlink" width="200" height="200"><defs><style type="text/css"></style></defs><path d="M510.72 1021.293714A510.610286 510.610286 0 1 1 510.72 0a510.610286 510.610286 0 0 1 0 1021.293714z" fill="#27B766" p-id="32540"></path><path d="M809.508571 348.086857a33.060571 33.060571 0 0 0-46.811428 0L442.258286 668.672 259.693714 486.180571a32.329143 32.329143 0 1 0-45.714285 45.787429l198.509714 198.509714a32.182857 32.182857 0 0 0 5.851428 8.777143 33.060571 33.060571 0 0 0 46.738286 0l344.429714-344.502857a33.060571 33.060571 0 0 0 0-46.665143z" fill="#FFFFFF" p-id="32541"></path></svg>