<?xml version="1.0" standalone="no"?><!DOCTYPE svg PUBLIC "-//W3C//DTD SVG 1.1//EN" "http://www.w3.org/Graphics/SVG/1.1/DTD/svg11.dtd"><svg t="1595996422141" class="icon" viewBox="0 0 1024 1024" version="1.1" xmlns="http://www.w3.org/2000/svg" p-id="32674" xmlns:xlink="http://www.w3.org/1999/xlink" width="200" height="200"><defs><style type="text/css"></style></defs><path d="M512 0A512 512 0 1 0 512 1024a512 512 0 0 0 0.146286-1024z" fill="#F56C6C" p-id="32675"></path><path d="M750.518857 709.193143a29.476571 29.476571 0 1 1-41.691428 41.691428L513.462857 555.446857l-195.437714 195.291429a29.330286 29.330286 0 0 1-41.691429 0 29.476571 29.476571 0 0 1 0-41.691429l195.291429-195.291428-195.291429-195.364572a29.476571 29.476571 0 1 1 41.691429-41.691428L513.462857 472.064l195.291429-195.364571a29.476571 29.476571 0 1 1 41.764571 41.691428l-195.291428 195.291429 195.291428 195.437714z" fill="#FFFFFF" p-id="32676"></path></svg>