<?xml version="1.0" standalone="no"?><!DOCTYPE svg PUBLIC "-//W3C//DTD SVG 1.1//EN" "http://www.w3.org/Graphics/SVG/1.1/DTD/svg11.dtd"><svg t="1595996433490" class="icon" viewBox="0 0 1024 1024" version="1.1" xmlns="http://www.w3.org/2000/svg" p-id="32809" xmlns:xlink="http://www.w3.org/1999/xlink" width="200" height="200"><defs><style type="text/css"></style></defs><path d="M512 1024A512 512 0 1 1 512 0a512 512 0 0 1 0 1024z" fill="#FFCD00" p-id="32810"></path><path d="M402.505143 493.421714l34.816 20.260572a522.605714 522.605714 0 0 1-11.702857 7.168l-23.405715 13.750857a348.891429 348.891429 0 0 0-50.249142 34.084571c-18.285714 15.798857-29.257143 31.890286-29.257143 52.150857V706.56h64.146285V626.395429c0-2.194286 1.462857-4.461714 6.948572-9.142858a301.348571 301.348571 0 0 1 41.252571-27.574857l23.552-13.897143a417.645714 417.645714 0 0 0 22.162286-14.043428c22.454857-15.36 33.865143-27.282286 33.865143-48.128 0-20.918857-11.410286-32.694857-34.011429-47.981714-10.313143-7.021714 0.438857-0.731429-45.860571-27.501715a474.038857 474.038857 0 0 1-31.890286-19.748571c-11.117714-7.68-16.091429-9.801143-16.091428-14.336V322.706286h-64.146286v87.04c0 24.649143 15.506286 41.764571 43.666286 61.220571 9.801143 6.802286 20.48 13.385143 36.205714 22.454857zM626.761143 493.421714c15.725714-9.069714 26.404571-15.652571 36.278857-22.454857 28.086857-19.456 43.593143-36.571429 43.593143-61.147428v-87.04h-64.146286v81.188571c0 4.608-4.900571 6.729143-16.091428 14.409143a455.68 455.68 0 0 1-31.890286 19.748571c-46.226286 26.770286-35.474286 20.48-45.787429 27.501715-22.601143 15.286857-34.084571 27.062857-34.084571 47.981714 0 20.845714 11.410286 32.694857 33.865143 48.128 6.144 4.169143 13.092571 8.557714 22.235428 13.970286l23.552 13.897142c20.114286 11.995429 32.475429 20.187429 41.179429 27.648 5.485714 4.681143 7.021714 6.948571 7.021714 9.142858V706.56h64.146286V620.836571c0-20.260571-10.971429-36.352-29.257143-52.150857a348.891429 348.891429 0 0 0-50.322286-34.084571l-23.405714-13.750857a522.605714 522.605714 0 0 1-11.702857-7.168l34.816-20.260572zM290.669714 258.706286a32.036571 32.036571 0 0 0 0 64h448a31.963429 31.963429 0 1 0 0-64H290.669714zM290.669714 706.706286a32.036571 32.036571 0 0 0 0 64h448a32.036571 32.036571 0 0 0 0-64H290.669714z" fill="#FFFFFF" p-id="32811"></path></svg>