<?xml version="1.0" standalone="no"?><!DOCTYPE svg PUBLIC "-//W3C//DTD SVG 1.1//EN" "http://www.w3.org/Graphics/SVG/1.1/DTD/svg11.dtd"><svg class="icon" width="200px" height="200.00px" viewBox="0 0 1024 1024" version="1.1" xmlns="http://www.w3.org/2000/svg"><path fill="currentColor" d="M922.225778 116.224L540.273778 4.209778a70.627556 70.627556 0 0 0-45.824 0L107.406222 116.224c-20.366222 5.12-35.669333 25.486222-35.669333 50.944v509.269333c20.394667 61.127111 56.035556 117.134222 101.859555 157.866667 61.127111 56.035556 208.782222 132.408889 290.304 173.169778l20.366223 10.183111c5.091556 5.091556 15.274667 5.091556 25.457777 5.091555s20.366222 0 30.549334-5.12c71.310222-35.612444 244.451556-122.197333 310.670222-183.324444 45.824-45.824 81.493333-96.739556 101.831111-157.866667l5.12-509.269333c0-20.366222-15.274667-40.760889-35.669333-50.915556zM881.493333 661.162667a272.782222 272.782222 0 0 1-81.493333 122.225777c-56.007111 56.035556-218.965333 132.408889-290.275556 168.049778l-15.274666-5.091555c-71.310222-35.640889-218.993778-112.042667-275.000889-162.986667-35.669333-35.612444-66.218667-76.373333-81.493333-122.197333V182.442667L514.844444 70.4l371.768889 112.071111-5.12 478.691556z"  /><path fill="currentColor" d="M520.192 537.656889c-97.28 0-174.08-76.8-174.08-174.08s76.8-174.08 174.08-174.08 174.08 76.8 174.08 174.08-76.8 174.08-174.08 174.08z m0-290.958222c-63.317333 0-116.906667 53.560889-116.906667 116.906666 0 63.288889 53.589333 116.849778 116.906667 116.849778 63.317333 0 116.878222-53.560889 116.878222-116.878222s-53.560889-116.878222-116.906666-116.878222z"  /><path fill="currentColor" d="M520.192 787.512889c-18.375111 0-30.606222-7.623111-30.606222-19.057778v-258.958222c0-11.406222 12.231111-19.057778 30.606222-19.057778 18.346667 0 30.606222 7.651556 30.606222 19.057778v258.958222c0 11.434667-12.231111 19.057778-30.606222 19.057778z"  /><path fill="currentColor" d="M524.942222 737.877333h-112.64c-15.36 0-25.6-11.946667-25.6-29.866666 0-17.891556 10.24-29.838222 25.6-29.838223h112.64c15.36 0 25.6 11.946667 25.6 29.866667 0 17.92-10.24 29.866667-25.6 29.866667z"  /></svg>