<?xml version="1.0" standalone="no"?><!DOCTYPE svg PUBLIC "-//W3C//DTD SVG 1.1//EN" "http://www.w3.org/Graphics/SVG/1.1/DTD/svg11.dtd"><svg t="1591422005211" class="icon" viewBox="0 0 1024 1024" version="1.1" xmlns="http://www.w3.org/2000/svg" p-id="4984" xmlns:xlink="http://www.w3.org/1999/xlink" width="200" height="200"><defs><style type="text/css"></style></defs><path d="M747.690667 807.253333H280.96c-37.205333 0-67.413333-30.250667-67.413333-67.413333V273.194667c0-37.205333 30.293333-67.413333 67.413333-67.413334h337.066667a28.586667 28.586667 0 0 1 0 57.130667h-337.066667a10.410667 10.410667 0 0 0-10.368 10.368V739.84c0 5.674667 4.693333 10.368 10.368 10.368h466.730667c5.674667 0 10.368-4.693333 10.368-10.368v-337.066667a28.586667 28.586667 0 0 1 57.088 0v337.066667a67.584 67.584 0 0 1-67.456 67.413333z" fill="currentColor" p-id="4985"></path><path d="M536.490667 512.981333a28.586667 28.586667 0 0 1-20.181334-48.768L779.946667 200.533333a28.586667 28.586667 0 0 1 40.362666 40.362667l-263.68 263.68c-5.546667 5.546667-12.842667 8.405333-20.138666 8.405333z" fill="currentColor" p-id="4986"></path></svg>