<?xml version="1.0" standalone="no"?><!DOCTYPE svg PUBLIC "-//W3C//DTD SVG 1.1//EN" "http://www.w3.org/Graphics/SVG/1.1/DTD/svg11.dtd"><svg class="icon" width="200px" height="200.00px" viewBox="0 0 1024 1024" version="1.1" xmlns="http://www.w3.org/2000/svg"><path fill="currentColor" d="M877.795556 24.263111L597.845333 1.28a131.271111 131.271111 0 0 0-103.594666 38.030222L52.963556 480.625778a179.029333 179.029333 0 0 0 0 253.155555l236.288 236.316445a179.029333 179.029333 0 0 0 253.155555 0l441.230222-441.230222a131.271111 131.271111 0 0 0 37.973334-103.907556l-23.751111-280.917333a131.271111 131.271111 0 0 0-120.035556-119.779556h-0.028444z m48.696888 125.809778l23.779556 280.945778a59.676444 59.676444 0 0 1-17.265778 47.217777L491.776 919.466667a107.406222 107.406222 0 0 1-151.893333 0L103.537778 683.150222a107.406222 107.406222 0 0 1 0-151.893333L544.910222 89.884444a59.676444 59.676444 0 0 1 47.075556-17.265777l279.950222 22.983111a59.676444 59.676444 0 0 1 54.556444 54.442666z"  /><path fill="currentColor" d="M799.488 219.989333a155.164444 155.164444 0 1 0-221.411556 217.400889 155.164444 155.164444 0 0 0 221.411556-217.400889z m-50.631111 50.631111a83.541333 83.541333 0 1 1-118.129778 118.158223 83.541333 83.541333 0 0 1 118.129778-118.158223z"  /></svg>