<?xml version="1.0" standalone="no"?><!DOCTYPE svg PUBLIC "-//W3C//DTD SVG 1.1//EN" "http://www.w3.org/Graphics/SVG/1.1/DTD/svg11.dtd"><svg class="icon" width="200px" height="200.00px" viewBox="0 0 1024 1024" version="1.1" xmlns="http://www.w3.org/2000/svg"><path fill="currentColor" d="M681.358222 574.520889a32.597333 32.597333 0 0 0-32.512-31.971556h-70.115555l66.56-64.199111a31.203556 31.203556 0 0 0-0.312889-44.942222 34.104889 34.104889 0 0 0-46.648889-0.341333l-82.289778 79.36-82.289778-79.36a34.104889 34.104889 0 0 0-46.620444 0.341333 31.203556 31.203556 0 0 0-0.341333 44.942222l66.588444 64.199111h-70.115556c-18.375111 0-33.223111 14.307556-33.223111 31.971556 0 17.720889 14.848 32.028444 33.194667 32.028444h99.640889v64h-99.640889c-18.346667 0-33.194667 14.364444-33.194667 32.028445 0 17.664 14.848 32.028444 33.194667 32.028444h99.640889v85.333334c0 17.692444 14.848 32 33.166222 32 18.346667 0 33.194667-14.307556 33.194667-31.971556v-85.361778h99.612444c8.732444 0 17.152-3.356444 23.466667-9.386666a31.402667 31.402667 0 0 0 0-45.283556 33.820444 33.820444 0 0 0-23.466667-9.386667h-99.555555v-64h99.555555a32.597333 32.597333 0 0 0 32.512-32.028444z m330.865778 111.246222C1004.373333 477.354667 818.915556 338.488889 731.477333 284.444444c28.984889-31.175111 58.055111-75.093333 64.938667-121.031111 5.034667-33.28-2.673778-63.800889-22.272-88.064-25.031111-30.947556-54.755556-37.461333-75.292444-37.461333-25.742222 0-49.550222 10.24-68.010667 21.674667C609.28 31.687111 572.302222 0.199111 514.844444 0h-1.905777c-56.376889 0.853333-92.785778 31.943111-114.062223 59.477333-18.488889-11.377778-42.268444-21.560889-67.982222-21.560889-20.48 0-50.204444 6.456889-75.264 37.404445-19.626667 24.32-27.335111 54.755556-22.328889 88.177778 6.912 45.909333 35.982222 89.742222 64.967111 120.888889C210.801778 338.488889 25.230222 477.354667 17.436444 685.795556c-3.84 103.082667 21.731556 211.256889 75.946667 265.528888C159.118222 1016.945778 246.613333 1024 281.144889 1024h467.484444c34.56 0 122.026667-7.054222 187.704889-72.704 54.243556-54.272 79.843556-162.417778 75.918222-265.528889zM313.827556 119.04c8.135111-10.012444 14.193778-10.012444 17.095111-10.012444 17.749333 0 42.296889 19.228444 51.313777 28.472888 8.704 9.045333 21.560889 13.084444 34.104889 10.638223 12.373333-2.275556 22.755556-10.666667 27.505778-22.328889 0.824889-2.247111 21.845333-53.76 70.001778-54.698667l1.251555 0.028445c48.64 0.170667 69.944889 52.423111 70.769778 54.414222 4.579556 11.747556 14.904889 20.309333 27.306667 22.613333 12.458667 2.474667 25.315556-1.479111 34.247111-10.524444 9.102222-9.386667 33.678222-28.643556 51.484444-28.643556 2.901333 0 8.96 0 17.066667 10.040889 4.579556 5.660444 10.382222 15.36 7.480889 34.190222C717.738667 191.431111 660.48 257.422222 660.48 257.422222l-290.901333 0.199111S312.035556 191.658667 306.289778 153.315556c-2.844444-18.858667 2.901333-28.558222 7.509333-34.247112h0.028445zM748.657778 952.888889H281.088c-25.116444 0-88.547556-4.977778-134.599111-51.000889-39.822222-39.793778-58.453333-130.503111-55.381333-213.504 7.964444-212.195556 270.478222-361.728 275.000888-361.728h295.338667c4.152889 0 269.141333 149.845333 277.105778 361.728 3.100444 82.972444-15.473778 173.710222-55.296 213.447111-46.023111 46.08-109.482667 51.057778-134.627556 51.057778z"  /></svg>