<?xml version="1.0" standalone="no"?><!DOCTYPE svg PUBLIC "-//W3C//DTD SVG 1.1//EN" "http://www.w3.org/Graphics/SVG/1.1/DTD/svg11.dtd"><svg class="icon" width="200px" height="200.00px" viewBox="0 0 1024 1024" version="1.1" xmlns="http://www.w3.org/2000/svg"><path fill="currentColor" d="M876.999111 131.356444c4.949333 10.325333 4.664889 22.385778-0.739555 32.455112l-8.476445 15.928888c-14.734222 28.131556-25.315556 50.631111-31.715555 67.356445l-1.507556 4.124444-2.844444 8.561778a334.592 334.592 0 0 1 94.663111 128.056889l3.754666 9.386667h57.713778c18.403556 0 33.820444 13.994667 35.584 32.312889l0.142222 3.413333v247.665778c0 18.403556-13.966222 33.820444-32.312889 35.584l-3.413333 0.170666H919.893333a335.075556 335.075556 0 0 1-148.309333 153.514667l-8.135111 4.067556-27.221333 102.001777c-3.868444 14.506667-16.384 25.059556-31.345778 26.396445l-3.214222 0.142222h-71.537778c-14.990222 0-28.416-9.386667-33.564445-23.438222l-0.967111-3.100445-18.346666-68.835555H334.791111l-6.656-0.028445-18.375111 68.864c-3.868444 14.506667-16.384 25.059556-31.345778 26.396445l-3.214222 0.142222H203.662222c-15.018667 0-28.444444-9.386667-33.564444-23.466667l-0.995556-3.072-36.551111-137.045333C49.578667 775.822222 0.910222 620.657778 0.995556 516.437333a333.568 333.568 0 0 1 158.634666-284.216889 35.783111 35.783111 0 0 1 37.603556 60.871112 262.058667 262.058667 0 0 0-124.728889 223.345777c0 86.613333 42.296889 222.976 111.900444 271.815111 5.888 4.124444 10.410667 9.927111 12.942223 16.64l1.080888 3.413334 32.711112 122.680889h16.583111l18.858666-70.712889c4.551111-17.095111 20.963556-28.302222 38.570667-26.311111 6.542222 0.711111 13.084444 1.194667 19.712 1.479111l9.955556 0.170666h269.880888c15.018667 0 28.444444 9.358222 33.621334 23.466667l0.938666 3.072 18.375112 68.835556h16.554666l24.519111-91.875556c2.844444-10.695111 10.524444-19.456 20.764445-23.722667a263.253333 263.253333 0 0 0 143.530666-147.626666c4.864-12.657778 16.497778-21.447111 29.980445-22.727111l3.356444-0.170667h55.694223V468.764444h-47.616c-15.900444 0-29.866667-10.524444-34.332445-25.770666a262.599111 262.599111 0 0 0-87.153778-130.673778l-9.614222-7.566222c-24.32-20.366222-21.219556-50.119111 5.603556-107.776l2.986666-6.257778 6.257778-12.8c-54.385778 1.365333-102.001778 23.096889-144.668444 65.763556a35.754667 35.754667 0 0 1-50.574223-50.574223c71.850667-71.879111 159.203556-99.441778 258.218667-81.436444 11.292444 2.048 20.878222 9.386667 25.856 19.683555z m-176.810667 252.814223a52.764444 52.764444 0 1 1 0 105.528889 52.764444 52.764444 0 0 1 0-105.528889zM397.653333 0.369778a143.075556 143.075556 0 1 1 0 286.151111 143.075556 143.075556 0 0 1 0-286.151111z m0 71.537778a71.537778 71.537778 0 1 0 0 143.075555 71.537778 71.537778 0 0 0 0-143.075555z"  /></svg>