<?xml version="1.0" standalone="no"?><!DOCTYPE svg PUBLIC "-//W3C//DTD SVG 1.1//EN" "http://www.w3.org/Graphics/SVG/1.1/DTD/svg11.dtd"><svg class="icon" width="200px" height="200.00px" viewBox="0 0 1024 1024" version="1.1" xmlns="http://www.w3.org/2000/svg"><path fill="currentColor" d="M538.453333 630.840889l48.128 165.262222c3.584 12.174222 0 24.263111-8.817777 32.995556l-48.071112 46.961777a17.578667 17.578667 0 0 1-24.917333 0l-48.042667-46.933333a32.597333 32.597333 0 0 1-8.817777-33.024l48.014222-165.262222c-8.96-7.025778-14.250667-15.644444-14.250667-27.875556 0-19.057778 15.985778-34.730667 35.498667-34.730666 19.541333 0 35.527111 15.644444 35.527111 34.759111 0 12.202667-5.404444 20.935111-14.250667 27.847111z m126.179556-149.703111c164.693333 58.168889 284.188444 230.542222 284.074667 434.232889v11.093333c0 38.115556-27.505778 69.091556-61.610667 69.091556H146.972444C112.924444 995.555556 85.333333 964.551111 85.333333 926.464v-11.093333c0-203.662222 119.466667-376.064 284.188445-434.232889a249.884444 249.884444 0 0 1-102.855111-202.268445A250.453333 250.453333 0 0 1 517.091556 28.444444a250.453333 250.453333 0 0 1 250.396444 250.424889 249.884444 249.884444 0 0 1-102.855111 202.24zM335.758222 278.869333a181.304889 181.304889 0 0 0 181.333334 181.333334 181.304889 181.304889 0 0 0 181.333333-181.333334 181.304889 181.304889 0 0 0-181.333333-181.333333 181.304889 181.304889 0 0 0-181.333334 181.333333z m551.424 619.235556c0-203.690667-147.541333-368.839111-329.386666-368.839111h-81.408c-181.873778 0-329.415111 165.148444-329.301334 368.924444 0 15.559111 11.320889 28.273778 25.230222 28.273778h689.607112c22.357333 1.080889 25.258667-12.942222 25.258666-28.387556z"  /></svg>