<?xml version="1.0" standalone="no"?><!DOCTYPE svg PUBLIC "-//W3C//DTD SVG 1.1//EN" "http://www.w3.org/Graphics/SVG/1.1/DTD/svg11.dtd"><svg class="icon" width="200px" height="200.00px" viewBox="0 0 1024 1024" version="1.1" xmlns="http://www.w3.org/2000/svg"><path fill="currentColor" d="M944.014507 99.669333A79.872 79.872 0 0 1 1024.000284 179.683556v736.625777a80.042667 80.042667 0 0 1-79.985777 80.071111H79.986062A79.928889 79.928889 0 0 1 0.000284 916.309333V179.683556a79.928889 79.928889 0 0 1 79.985778-80.014223h147.342222V68.494222a40.049778 40.049778 0 1 1 80.099556 0v31.175111h409.144889V68.494222a40.049778 40.049778 0 1 1 80.099555 0v31.175111h147.342223zM227.328284 174.136889H74.439396v139.093333h875.121777v-139.093333h-152.888889V201.955556a40.049778 40.049778 0 1 1-80.099555 0v-27.818667H307.42784V201.955556a40.049778 40.049778 0 1 1-80.099556 0v-27.818667z m722.204445 750.677333V384.284444H74.46784v540.529778h875.121778z m-473.344-165.688889c-9.301333 0-18.090667-3.299556-24.092445-9.870222l-157.781333-157.781333c-13.169778-13.141333-13.169778-35.043556 0-48.753778 6.542222-6.570667 15.331556-9.870222 24.092445-9.870222 8.760889 0 18.090667 3.299556 24.120888 9.870222l135.310223 135.310222 222.435555-186.794666c6.001778-4.949333 13.653333-7.68 22.442667-7.68 10.410667 0 19.712 4.380444 26.282667 12.600888 12.600889 14.222222 10.410667 36.152889-4.380445 48.753778l-246.528 207.075556c-6.030222 3.84-14.222222 7.111111-21.902222 7.111111z"  /></svg>