<?xml version="1.0" standalone="no"?><!DOCTYPE svg PUBLIC "-//W3C//DTD SVG 1.1//EN" "http://www.w3.org/Graphics/SVG/1.1/DTD/svg11.dtd"><svg class="icon" width="200px" height="200.00px" viewBox="0 0 1024 1024" version="1.1" xmlns="http://www.w3.org/2000/svg"><path fill="currentColor" d="M509.696 1015.466667l-213.333333-73.500445-118.215111 67.868445h-9.813334a111.36 111.36 0 0 1-43.406222-8.760889 109.056 109.056 0 0 1-35.356444-23.893334 111.047111 111.047111 0 0 1-32.597334-78.791111V125.582222A111.047111 111.047111 0 0 1 125.013333 22.983111 109.880889 109.880889 0 0 1 168.248889 14.222222H851.057778c14.990222 0 29.639111 2.958222 43.434666 8.760889a111.616 111.616 0 0 1 59.192889 59.278222c5.802667 13.767111 8.732444 28.330667 8.732445 43.406223v772.807111a111.047111 111.047111 0 0 1-68.010667 102.599111 110.620444 110.620444 0 0 1-43.349333 8.760889h-9.784889l-118.215111-67.868445-213.333334 73.500445z m213.333333-158.264889l136.248889 78.279111a37.944889 37.944889 0 0 0 29.639111-37.091556V125.582222a36.977778 36.977778 0 0 0-2.958222-14.734222 37.944889 37.944889 0 0 0-34.929778-23.125333H168.248889a37.262222 37.262222 0 0 0-26.766222 11.093333c-3.555556 3.555556-6.257778 7.537778-8.163556 12.117333a36.977778 36.977778 0 0 0-2.929778 14.734223v772.807111c0 5.12 0.938667 10.126222 2.929778 14.734222a37.944889 37.944889 0 0 0 26.709333 22.272l136.248889-78.279111 213.418667 73.500444 213.333333-73.500444z"  /><path fill="currentColor" d="M472.945778 340.565333h-147.000889a36.778667 36.778667 0 0 1 0-73.500444h147.000889a36.778667 36.778667 0 0 1 0 73.500444z m183.637333 210.033778H325.973333a36.778667 36.778667 0 0 1 0-73.500444h330.723556a36.778667 36.778667 0 1 1-0.085333 73.500444z"  /></svg>