<?xml version="1.0" standalone="no"?><!DOCTYPE svg PUBLIC "-//W3C//DTD SVG 1.1//EN" "http://www.w3.org/Graphics/SVG/1.1/DTD/svg11.dtd"><svg class="icon" width="200px" height="200.00px" viewBox="0 0 1024 1024" version="1.1" xmlns="http://www.w3.org/2000/svg"><path fill="currentColor" d="M1018.766222 940.344889l-46.933333-330.979556c-5.603556-33.052444-34.958222-57.201778-69.404445-57.201777h-181.731555l45.710222-56.177778c1.934222-2.56 3.527111-5.319111 5.290667-8.078222a302.023111 302.023111 0 0 0 56.405333-175.729778c0-170.268444-141.653333-308.337778-316.359111-308.337778-174.734222 0-316.359111 138.069333-316.359111 308.337778 0 65.251556 20.906667 125.724444 56.433778 175.587555 1.536 2.844444 3.328 5.603556 5.290666 8.220445l45.681778 56.177778H121.230222c-34.446222 0-63.630222 24.149333-69.404444 57.230222L4.864 940.344889c-7.054222 41.813333 25.998222 79.815111 69.404444 79.815111h875.235556c43.406222 0 76.458667-38.001778 69.233778-79.815111zM265.841778 312.32c0-132.238222 110.392889-239.815111 246.044444-239.815111 135.68 0 246.101333 107.576889 246.101334 239.786667a234.211556 234.211556 0 0 1-43.946667 136.732444l-1.763556 2.56-1.564444 2.56-0.739556 1.194667-78.904889 96.796444-55.893333 68.522667-63.431111 77.767111-63.288889-77.767111-55.893333-68.551111-78.734222-96.597334-1.052445-1.706666-1.592889-2.56-1.735111-2.389334a235.463111 235.463111 0 0 1-43.576889-136.533333zM74.325333 951.637333l46.933334-330.951111h237.596444l114.062222 139.946667c10.894222 13.539556 24.945778 20.394667 39.196445 20.394667 14.222222 0 28.302222-6.855111 39.196444-20.394667l114.062222-139.946667h237.624889l46.933334 330.951111H74.268444z"  /><path fill="currentColor" d="M511.914667 435.683556c69.973333 0 126.549333-55.182222 126.549333-123.335112 0-68.181333-56.604444-123.335111-126.549333-123.335111-69.973333 0-126.549333 55.182222-126.549334 123.335111 0 68.152889 56.604444 123.335111 126.577778 123.335112z m0-178.147556c30.947556 0 56.234667 24.661333 56.234666 54.812444s-25.315556 54.812444-56.234666 54.812445c-30.919111 0-56.234667-24.661333-56.234667-54.812445s25.315556-54.812444 56.234667-54.812444z"  /></svg>