<?xml version="1.0" standalone="no"?><!DOCTYPE svg PUBLIC "-//W3C//DTD SVG 1.1//EN" "http://www.w3.org/Graphics/SVG/1.1/DTD/svg11.dtd"><svg t="1591409174293" class="icon" viewBox="0 0 1107 1024" version="1.1" xmlns="http://www.w3.org/2000/svg" p-id="4854" xmlns:xlink="http://www.w3.org/1999/xlink" width="216.2109375" height="200"><defs><style type="text/css"></style></defs><path d="M723.753514 1005.976216H56.901189a47.788973 47.788973 0 0 1-47.795892-47.795892v-31.861621h762.444108v31.861621a47.788973 47.788973 0 0 1-47.795891 47.795892zM388.960865 393.741838H161.591351a27.392 27.392 0 0 1-27.308973-27.308973v-103.783784a27.392 27.392 0 0 1 27.308973-27.315892h227.369514a27.392 27.392 0 0 1 27.308973 27.315892v103.783784a27.392 27.392 0 0 1-27.308973 27.308973z" fill="#B3D7FF" p-id="4855"></path><path d="M369.843892 377.807568H125.177081a27.488865 27.488865 0 0 1-27.537297-27.537298V221.675243a27.488865 27.488865 0 0 1 27.537297-27.537297h244.666811a27.488865 27.488865 0 0 1 27.537297 27.537297v128.595027a27.488865 27.488865 0 0 1-27.537297 27.537298zM125.177081 212.348541c-5.230703 0-9.333622 4.096-9.333622 9.326702v128.595027c0 5.237622 4.102919 9.333622 9.340541 9.333622h244.652973c5.244541 0 9.340541-4.096 9.340541-9.333622V221.675243c0-5.230703-4.096-9.326703-9.340541-9.326702h-244.652973z" fill="#2B8FFF" p-id="4856"></path><path d="M718.066162 1021.903568H64.179892c-34.822919 0-63.266595-28.443676-63.266595-63.266595V63.501838C0.913297 28.678919 29.356973 0.228324 64.179892 0.228324h653.88627c34.822919 0 63.273514 28.450595 63.273514 63.273514v274.023784a9.132973 9.132973 0 0 1-9.105298 9.105297 9.132973 9.132973 0 0 1-9.105297-9.105297V63.501838c0-24.811243-20.258595-45.069838-45.062919-45.069838H64.179892c-24.804324 0-45.062919 20.258595-45.062919 45.069838v895.135135c0 24.804324 20.258595 45.062919 45.062919 45.062919h653.88627c24.804324 0 45.062919-20.258595 45.062919-45.062919v-77.837838a9.132973 9.132973 0 0 1 9.105297-9.105297 9.132973 9.132973 0 0 1 9.105298 9.105297v77.837838c0 34.822919-28.450595 63.266595-63.273514 63.266595z m313.399352-108.336433h-185.032649a9.132973 9.132973 0 0 1-9.105297-9.098378 9.132973 9.132973 0 0 1 9.105297-9.105298h185.032649c29.585297 0 53.483243-24.12627 53.483243-53.483243V233.970162c0-29.592216-24.12627-53.483243-53.483243-53.483243h-165.687352a9.132973 9.132973 0 0 1-9.105297-9.105297 9.132973 9.132973 0 0 1 9.105297-9.105298h165.687352c39.603892 0 71.693838 32.089946 71.693837 71.693838v607.910054c0.228324 39.596973-32.089946 71.686919-71.693837 71.686919z" fill="#2B8FFF" p-id="4857"></path><path d="M771.549405 129.044757H18.210595a9.132973 9.132973 0 0 1-9.105298-9.098379 9.132973 9.132973 0 0 1 9.105298-9.105297h753.33881a9.132973 9.132973 0 0 1 9.105298 9.105297 9.132973 9.132973 0 0 1-9.105298 9.098379z" fill="#2B8FFF" p-id="4858"></path><path d="M70.552216 62.816865a21.393297 21.393297 0 1 0 42.793514 0 21.393297 21.393297 0 0 0-42.793514 0zM141.561081 62.816865a21.393297 21.393297 0 1 0 42.793514 0 21.393297 21.393297 0 0 0-42.786595 0zM218.949189 62.816865a21.393297 21.393297 0 1 0 42.786595 0 21.393297 21.393297 0 0 0-42.786595 0zM207.567568 470.486486h242.162162v48.432433H207.567568zM207.567568 588.108108h242.162162v48.432433H207.567568zM103.783784 497.795459a27.308973 27.308973 0 1 0 54.624865 0 27.308973 27.308973 0 0 0-54.624865 0zM103.783784 615.417081a27.308973 27.308973 0 1 0 54.624865 0 27.308973 27.308973 0 0 0-54.624865 0zM207.567568 705.72973h242.162162v48.432432H207.567568zM103.783784 733.038703a27.308973 27.308973 0 1 0 54.624865 0 27.308973 27.308973 0 0 0-54.624865 0z" fill="#66AEFF" p-id="4859"></path><path d="M828.007784 738.546162c-10.938811 8.420324-25.413189 12.869189-25.413189-2.643027l0.152216-93.094054c0-7.050378 3.231135-13.588757 8.454919-17.034378l84.493838-49.013622c10.94573-7.251027 24.520649-4.732541 24.520648 10.170811v84.168649c0.048432 6.59373-2.788324 12.779243-7.562378 16.384l-84.646054 51.061621z" fill="#B3D7FF" p-id="4860"></path><path d="M912.024216 530.888649l-0.512-0.871784a8.489514 8.489514 0 0 0-11.796757-2.892108l-125.675243 76.488648L643.321081 520.268108a8.842378 8.842378 0 0 0-12.253405 3.39027l-0.304433 0.525838a8.953081 8.953081 0 0 0 3.148108 12.011243l131.417946 83.788109a8.800865 8.800865 0 0 0-0.996324 4.096v141.616432c0 5.064649 4.019892 9.222919 8.980757 9.222919h0.608865c4.718703 0 8.558703-3.971459 8.558702-8.787027V624.134919c0-1.238486-0.242162-2.421622-0.691892-3.473297l127.453406-77.63719c3.992216-2.546162 5.258378-8.012108 2.781405-12.142702z" fill="#2B8FFF" p-id="4861"></path><path d="M685.028324 650.032432l-54.728648-31.501837a8.966919 8.966919 0 0 1-3.286487-12.22573l0.345946-0.588108a9.008432 9.008432 0 0 1 12.246487-3.279568l54.728648 31.508757c4.282811 2.442378 5.742703 7.956757 3.286487 12.22573l-0.345946 0.588108a8.973838 8.973838 0 0 1-12.246487 3.279567z m-90.713946 63.910054c-2.048 0-6.20627 7.306378-6.20627 5.258379v-203.485406c0-2.041081 1.674378-3.715459 3.722378-3.715459h11.167136c2.048 0 3.722378 1.674378 3.722378 3.715459l-1.176216 192.505082c0 2.041081-0.498162-0.622703-2.546162-0.622703l-8.683244 6.344648z" fill="#2B8FFF" p-id="4862"></path><path d="M608.567351 512.242162l-20.15481-1.335351c-1.065514-1.702054 0.878703-8.275027 2.615351-9.305946l165.424432-99.756973a3.660108 3.660108 0 0 1 5.023135 1.183135l8.793946 8.759351c1.065514 1.702054 1.037838 2.56-0.691891 3.618595L608.560432 512.242162c-1.708973 1.037838 1.093189 1.702054 0 0z m341.372541 193.107027h-10.959568a3.667027 3.667027 0 0 1-3.653189-3.64627v-182.728649c0-3.853838 2.158703-3.065081 4.172108-3.065081l10.440649 3.251892a3.667027 3.667027 0 0 1 3.653189 3.653189l1.21773 189.536865c0 2.034162-2.864432-6.995027-4.870919-6.995027z" fill="#2B8FFF" p-id="4863"></path><path d="M949.552432 522.668973l-2.179459-2.677622a2.75373 2.75373 0 0 0-2.719135-0.878702c-2.511568 0.546595-6.918919-3.376432-9.548108-4.988541l-160.871784-93.343135a1.356108 1.356108 0 0 1-0.339027-0.242162c-3.639351-3.196541-18.355892 3.404108-17.740108 1.937297 0.089946-0.235243 0.207568-0.512 0.276757-0.754162l3.023567-17.207351a2.587676 2.587676 0 0 1 1.653622-2.006487c5.203027-1.978811 21.476324-1.307676 24.223135 0.394378l164.393513 98.940541c0.124541 0.06227 0.221405 0.152216 0.345946 0.242162 4.338162 3.708541 5.687351 14.412108 4.096 19.698162a2.677622 2.677622 0 0 1-4.621837 0.885622zM588.571676 718.045405l12.848432-9.575783c1.010162-1.72973 1.494486-1.369946 3.238054-0.366703l164.947027 95.930811c1.743568 1.003243 8.717838-0.581189 7.707676 1.155459l3.667027 17.145081c-1.003243 1.72973-17.580973 1.065514-19.082378-0.698811l-171.706811-99.424864c-1.833514-1.065514-2.691459-2.338595-1.619027-4.16519z" fill="#2B8FFF" p-id="4864"></path><path d="M761.510054 817.664c-1.100108-1.688216 0.06227-9.506595 1.812757-10.55827l172.211892-104.157406c1.750486-1.058595 4.068324-0.518919 5.410594-4.137513l13.768649 10.807351c0.844108 7.029622-3.881514 5.763459-5.632 6.815135l-161.363027 100.843244c-1.501405 4.012973-16.764541 7.334054-17.85773 5.604324l-8.351135-5.216865z" fill="#2B8FFF" p-id="4865"></path></svg>