<?xml version="1.0" standalone="no"?><!DOCTYPE svg PUBLIC "-//W3C//DTD SVG 1.1//EN" "http://www.w3.org/Graphics/SVG/1.1/DTD/svg11.dtd"><svg class="icon" width="200px" height="200.00px" viewBox="0 0 1024 1024" version="1.1" xmlns="http://www.w3.org/2000/svg"><path fill="currentColor" d="M837.12 966.912c-8.817778 0-17.635556-3.328-24.291556-10.069333l-229.944888-229.944889a34.360889 34.360889 0 1 1 48.64-48.64l205.624888 205.653333 35.84-35.896889-205.056-205.084444a34.332444 34.332444 0 0 1 0-48.64 34.332444 34.332444 0 0 1 48.64 0l229.376 229.404444a34.304 34.304 0 0 1 0 48.64l-84.508444 84.48a34.304 34.304 0 0 1-24.291556 10.097778zM594.346667 97.166222v-0.085333a33.848889 33.848889 0 0 0 1.934222-13.482667l-0.056889-0.085333a33.024 33.024 0 0 0-3.328-12.657778c-0.369778-0.768-0.967111-1.336889-1.365333-2.104889a31.715556 31.715556 0 0 0-6.428445-8.248889c-0.938667-0.881778-2.190222-1.479111-3.299555-2.275555-2.104889-1.450667-3.925333-3.185778-6.4-4.266667-0.625778-0.284444-1.308444-0.426667-1.991111-0.625778l-0.113778-0.056889A326.570667 326.570667 0 0 0 217.486222 124.871111c-0.853333 0.796444-1.137778 1.962667-1.905778 2.844445-0.910222 0.739556-1.991111 1.024-2.844444 1.905777l-174.136889 173.397334a34.332444 34.332444 0 0 0 0 48.696889l105.614222 105.671111a34.360889 34.360889 0 0 0 48.64 0l60.216889-60.245334 73.272889 73.301334c6.712889 6.741333 15.559111 10.069333 24.32 10.069333a34.360889 34.360889 0 0 0 24.32-58.709333l-97.564444-97.592889a34.332444 34.332444 0 0 0-48.64 0l-60.245334 60.245333-56.945777-57.059555 149.646222-149.048889c0.938667-0.853333 1.223111-1.991111 1.962666-2.986667 0.967111-0.739556 2.076444-1.024 2.958223-1.905778a257.820444 257.820444 0 0 1 155.648-73.955555l-7.025778 5.518222c-9.671111 7.310222-18.944 15.075556-27.591111 23.722667-0.568889 0.568889-0.796444 1.336889-1.308445 1.962666a340.878222 340.878222 0 0 0-60.757333 83.000889l0.398222 0.199111a92.359111 92.359111 0 0 0 0.540445 84.024889c1.621333 3.157333 3.754667 5.916444 6.172444 8.334222 0.824889 0.995556 1.137778 2.247111 2.161778 3.157334l75.662222 75.776a34.275556 34.275556 0 0 0 48.64 0 34.332444 34.332444 0 0 0 0-48.64L386.56 264.419556a23.722667 23.722667 0 0 1 0.512-20.394667c0.170667-0.284444 0.113778-0.654222 0.284444-0.938667 1.536-2.872889 3.043556-5.745778 4.693334-8.533333a273.152 273.152 0 0 1 43.064889-55.978667c4.408889-4.408889 9.244444-8.192 13.909333-12.316444 32.426667-27.136 72.248889-43.861333 114.830222-46.336 0.597333-0.028444 1.109333-0.369778 1.706667-0.455111 3.896889-0.398222 7.651556-1.251556 11.178667-2.901334 0.540444-0.256 0.967111-0.682667 1.450666-0.967111 3.413333-1.820444 6.513778-4.039111 9.159111-6.997333 0.256-0.284444 0.426667-0.711111 0.682667-0.967111 2.190222-2.645333 4.408889-5.319111 5.831111-8.675556 0.284444-0.625778 0.199111-1.223111 0.426667-1.792zM270.620444 991.288889a209.834667 209.834667 0 0 1-88.803555-19.825778 34.332444 34.332444 0 0 1-9.671111-55.466667l94.634666-94.634666-35.498666-35.498667-94.037334 94.008889c-8.021333 7.992889-19.427556 11.662222-30.520888 9.472a34.133333 34.133333 0 0 1-25.173334-19.626667c-35.157333-78.108444-18.346667-170.951111 41.841778-231.168 53.788444-53.845333 135.480889-73.500444 208.469333-50.602666l256.512-256.512c-22.840889-72.789333-3.896889-153.969778 50.545778-208.412445a204.373333 204.373333 0 0 1 145.578667-60.302222c29.297778 0 58.88 6.4 85.617778 18.403556a34.360889 34.360889 0 0 1 10.183111 55.637333l-95.459556 95.459555 35.498667 35.498667 96.056889-95.971555a34.360889 34.360889 0 0 1 55.466666 9.671111c37.034667 78.819556 20.821333 172.942222-40.391111 234.183111a204.174222 204.174222 0 0 1-145.379555 60.16 208.184889 208.184889 0 0 1-65.763556-10.695111l-254.862222 254.862222c24.376889 73.557333 5.831111 155.818667-49.493333 211.2a204.145778 204.145778 0 0 1-145.351112 60.16z m-7.452444-69.006222a135.594667 135.594667 0 0 0 104.192-39.793778c40.817778-40.760889 51.541333-103.566222 26.737778-156.245333a34.389333 34.389333 0 0 1 6.826666-38.968889l286.72-286.776889a34.417778 34.417778 0 0 1 38.968889-6.798222c51.484444 24.234667 116.081778 13.454222 156.273778-26.709334a137.557333 137.557333 0 0 0 39.736889-104.248889l-77.966222 77.966223a34.161778 34.161778 0 0 1-48.64 0l-84.110222-84.138667a34.360889 34.360889 0 0 1 0-48.64l76.344888-76.316445a137.272889 137.272889 0 0 0-128.455111 194.360889 34.417778 34.417778 0 0 1-7.111111 38.4L364.771556 652.458667c-10.069333 10.069333-25.429333 12.8-38.456889 7.054222-51.256889-23.125333-114.574222-11.946667-154.282667 27.790222a136.334222 136.334222 0 0 0-40.220444 100.864l75.150222-75.178667a34.417778 34.417778 0 0 1 48.64 0l84.110222 84.138667a34.275556 34.275556 0 0 1 0 48.64l-76.544 76.572445z"  /></svg>