<?xml version="1.0" standalone="no"?><!DOCTYPE svg PUBLIC "-//W3C//DTD SVG 1.1//EN" "http://www.w3.org/Graphics/SVG/1.1/DTD/svg11.dtd"><svg class="icon" width="200px" height="200.00px" viewBox="0 0 1024 1024" version="1.1" xmlns="http://www.w3.org/2000/svg"><path fill="currentColor" d="M952.035556 771.043556H70.997333V128.426667H952.035556v642.616889z m-951.523556 0a70.485333 70.485333 0 0 0 70.485333 70.485333h880.924445a70.4 70.4 0 0 0 70.456889-70.485333V128.426667a70.485333 70.485333 0 0 0-70.485334-70.485334H70.997333A70.4 70.4 0 0 0 0.512 128.426667v642.616889z m839.111111 235.406222c19.456 0 35.185778-15.701333 35.185778-35.185778v-1.621333a35.271111 35.271111 0 0 0-35.185778-35.271111H183.409778c-19.456 0-35.185778 15.701333-35.185778 35.271111v1.621333c0 19.484444 15.729778 35.185778 35.185778 35.185778h656.213333z m-364.174222-71.338667h70.485333v-93.582222h-68.835555l-1.649778 93.582222z"  /><path fill="currentColor" d="M260.977778 508.643556h190.776889a33.450667 33.450667 0 0 1 0 66.844444H260.977778a33.450667 33.450667 0 0 1 0-66.844444z m0-167.310223h471.836444a33.422222 33.422222 0 0 1-0.113778 66.844445H260.977778a33.450667 33.450667 0 0 1 0-66.844445z"  /></svg>