<?xml version="1.0" standalone="no"?><!DOCTYPE svg PUBLIC "-//W3C//DTD SVG 1.1//EN" "http://www.w3.org/Graphics/SVG/1.1/DTD/svg11.dtd"><svg class="icon" width="200px" height="200.00px" viewBox="0 0 1024 1024" version="1.1" xmlns="http://www.w3.org/2000/svg"><path fill="currentColor" d="M893.269333 250.993778a126.008889 126.008889 0 0 1 126.037334 126.008889V849.066667a126.008889 126.008889 0 0 1-126.008889 126.008889H126.634667a126.008889 126.008889 0 0 1-126.037334-126.008889V377.031111a126.008889 126.008889 0 0 1 126.008889-126.037333h766.634667zM126.663111 325.660444c-28.359111 0-51.370667 21.902222-51.370667 48.952889v476.956445c0 27.050667 22.983111 48.952889 51.370667 48.952889h766.634667c28.387556 0 51.370667-21.902222 51.370666-48.924445V374.613333c0-27.022222-22.983111-48.924444-51.370666-48.924444H126.663111z m616.135111 91.648a37.347556 37.347556 0 0 1 4.124445 74.467556l-4.096 0.199111H299.292444a37.347556 37.347556 0 0 1-4.096-74.439111l4.096-0.227556h443.534223zM687.445333 29.184a126.008889 126.008889 0 0 1 125.838223 119.125333l0.199111 6.912v95.744h-74.695111V155.306667c0-26.453333-20.053333-48.583111-46.392889-51.143111l-4.949334-0.284445H332.572444c-26.453333 0-48.611556 20.110222-51.143111 46.478222l-0.227555 4.920889v95.715556H206.506667V155.306667a126.008889 126.008889 0 0 1 119.153777-125.895111l6.912-0.170667h354.872889v-0.056889z"  /></svg>