<?xml version="1.0" standalone="no"?><!DOCTYPE svg PUBLIC "-//W3C//DTD SVG 1.1//EN" "http://www.w3.org/Graphics/SVG/1.1/DTD/svg11.dtd"><svg class="icon" width="200px" height="200.00px" viewBox="0 0 1024 1024" version="1.1" xmlns="http://www.w3.org/2000/svg"><path fill="currentColor" d="M1017.031111 421.347556c0-93.639111-75.804444-227.271111-169.472-227.271112H580.835556V104.931556a56.462222 56.462222 0 0 0-56.490667-56.490667H56.945778A56.462222 56.462222 0 0 0 0.455111 104.903111v711.68c0 31.203556 25.258667 63.260444 56.490667 63.260445h91.989333a146.887111 146.887111 0 0 0 142.051556 109.994666 146.773333 146.773333 0 0 0 142.023111-109.994666h188.131555a146.887111 146.887111 0 0 0 142.023111 109.994666 146.773333 146.773333 0 0 0 142.051556-109.994666h54.613333a56.888889 56.888889 0 0 0 56.888889-56.888889V421.347556h0.284445zM290.304 921.799111a77.880889 77.880889 0 0 1-77.937778-77.937778 77.880889 77.880889 0 0 1 77.937778-77.994666 77.880889 77.880889 0 0 1 77.937778 77.966222 78.108444 78.108444 0 0 1-77.937778 77.937778z m218.168889-113.152h-74.808889a146.858667 146.858667 0 0 0-285.383111 0H72.789333V119.608889h435.712v689.038222z m254.208 113.152a77.880889 77.880889 0 0 1-77.937778-77.937778 77.880889 77.880889 0 0 1 77.937778-77.994666 77.880889 77.880889 0 0 1 77.937778 77.966222 78.108444 78.108444 0 0 1-77.937778 77.937778z m181.987555-113.152h-38.627555a146.858667 146.858667 0 0 0-285.411556 0h-39.822222V264.106667h254.378667c66.218667 0 89.998222 63.118222 108.828444 109.681777h-209.408v215.694223h210.062222v219.164444z m0-291.498667h-144.497777v-72.163555h144.497777v72.163555z"  /></svg>