<?xml version="1.0" standalone="no"?><!DOCTYPE svg PUBLIC "-//W3C//DTD SVG 1.1//EN" "http://www.w3.org/Graphics/SVG/1.1/DTD/svg11.dtd"><svg class="icon" width="200px" height="189.63px" viewBox="0 0 1080 1024" version="1.1" xmlns="http://www.w3.org/2000/svg"><path fill="currentColor" d="M1080.888889 969.671111a38.570667 38.570667 0 0 1-38.371556 38.855111H39.082667A39.196444 39.196444 0 0 1 0 969.671111c0-21.447111 17.720889-29.866667 39.082667-29.866667h75.036444V77.511111A77.880889 77.880889 0 0 1 191.658667 0H618.382222a77.795556 77.795556 0 0 1 77.511111 77.539556v193.991111h193.962667a77.710222 77.710222 0 0 1 77.539556 77.539555V939.804444h75.121777c21.361778 0 38.371556 8.533333 38.371556 29.866667zM627.086222 349.098667V72.106667H182.499556V939.804444h444.643555V349.070222h-0.056889zM897.137778 939.804444V349.070222h-201.329778V939.804444h201.329778zM308.138667 300.231111c-21.447111 0-38.769778-15.189333-38.912-33.792 0-18.602667 17.521778-33.792 38.912-33.792h193.934222c21.361778 0 38.826667 15.189333 38.826667 33.792 0 18.602667-17.464889 33.792-38.826667 33.792H308.138667z m0 465.351111c-21.447111 0-38.912-15.189333-38.912-33.763555 0-18.602667 17.521778-33.792 38.912-33.792h193.934222c21.361778 0 38.826667 15.189333 38.826667 33.792 0 18.574222-17.464889 33.763556-38.826667 33.763555H308.138667zM773.546667 571.733333c-21.333333 0-38.826667-15.132444-38.826667-33.735111 0-18.574222 17.464889-33.763556 38.826667-33.763555h38.912c21.304889 0 38.826667 15.189333 38.826666 33.763555 0 18.545778-17.521778 33.735111-38.826666 33.735111h-38.912z m0 193.877334c-21.333333 0-38.826667-15.189333-38.826667-33.763556 0-18.602667 17.464889-33.792 38.826667-33.792h38.912c21.304889 0 38.826667 15.189333 38.826666 33.792 0 18.574222-17.521778 33.763556-38.826666 33.763556h-38.912zM308.138667 532.878222c-21.447111 0-38.912-15.132444-38.912-33.735111 0-18.574222 17.521778-33.763556 38.912-33.763555h193.934222c21.361778 0 38.826667 15.104 38.826667 33.763555 0 18.545778-17.464889 33.735111-38.826667 33.735111H308.138667z"  /></svg>