<?xml version="1.0" standalone="no"?><!DOCTYPE svg PUBLIC "-//W3C//DTD SVG 1.1//EN" "http://www.w3.org/Graphics/SVG/1.1/DTD/svg11.dtd"><svg class="icon" width="200px" height="200.00px" viewBox="0 0 1024 1024" version="1.1" xmlns="http://www.w3.org/2000/svg"><path fill="currentColor" d="M745.927111 126.805333L544.028444 9.159111c-9.386667-5.461333-21.788444-8.163556-34.190222-8.163555-12.401778 0-24.803556 2.816-34.190222 8.163555l-201.671111 117.646222c-18.773333 10.951111-34.190222 37.660444-34.190222 59.448889v235.747556c0 21.788444 15.416889 48.497778 34.190222 59.448889l201.898667 117.646222c9.386667 5.489778 21.788444 8.163556 34.190222 8.163555 12.401778 0 24.803556-2.787556 34.190222-8.163555l201.784889-117.646222c18.773333-10.951111 34.190222-37.660444 34.190222-59.448889V186.254222c-0.113778-21.788444-15.530667-48.497778-34.304-59.448889zM346.453333 159.004444l129.28-75.320888c9.386667-5.461333 21.788444-8.163556 34.190223-8.163556 12.401778 0 24.803556 2.702222 34.190222 8.163556l129.251555 75.320888c7.395556 5.12 6.826667 12.828444-1.422222 17.521778l-22.016 12.515556h-0.113778l-1.251555 0.796444-1.877334 1.137778-105.472 61.44c-8.618667 5.006222-19.911111 7.480889-31.175111 7.480889-11.292444 0-22.698667-2.474667-31.175111-7.480889l-105.472-61.44-1.905778-1.137778-1.223111-0.796444h-0.113777l-22.243556-12.515556c-8.248889-4.693333-8.817778-12.401778-1.450667-17.521778z m134.286223 325.12l-0.426667 25.031112c-0.113778 8.817778-5.802667 13.084444-13.084445 10.524444l-129.479111-75.434667c-18.773333-10.951111-34.190222-37.660444-34.190222-59.448889V253.752889l0.312889-16.981333c0.113778-9.073778 6.030222-13.198222 13.539556-10.296889l24.348444 14.222222 5.802667 3.413333V244.053333l97.336889 56.632889 21.447111 13.084445c7.594667 4.579556 13.852444 15.416889 14.392889 24.462222v145.92z m235.434666-99.328c0 21.788444-15.416889 48.497778-34.190222 59.448889l-129.507556 75.406223c-7.253333 2.56-12.828444-1.564444-13.084444-10.496l-0.426667-25.031112v-146.033777c0.568889-9.045333 6.826667-19.882667 14.421334-24.462223l21.447111-12.970666L672.142222 244.053333v0.113778l5.831111-3.470222 24.348445-14.193778c7.480889-3.015111 13.397333 1.137778 13.511111 10.296889l0.341333 16.981333v131.043556z"  /><path fill="currentColor" d="M506.936889 543.232l-201.898667-117.532444c-9.386667-5.489778-21.788444-8.163556-34.190222-8.163556-12.401778 0-24.803556 2.787556-34.190222 8.163556l-201.671111 117.532444c-18.887111 10.951111-34.218667 37.774222-34.218667 59.448889v235.747555c0 21.788444 15.445333 48.497778 34.190222 59.448889l201.927111 117.646223c9.386667 5.489778 21.76 8.163556 34.190223 8.163555 12.401778 0 24.803556-2.787556 34.161777-8.163555l201.927111-117.646223c18.773333-10.951111 34.190222-37.660444 34.190223-59.448889v-235.747555c-0.227556-21.674667-15.644444-48.497778-34.417778-59.448889zM107.491556 575.431111l129.28-75.320889c9.386667-5.461333 21.788444-8.163556 34.190222-8.163555 12.401778 0 24.803556 2.702222 34.190222 8.163555l129.137778 75.320889c7.395556 5.12 6.826667 12.828444-1.422222 17.521778l-22.016 12.515555h-0.113778l-1.251556 0.682667-1.877333 1.137778-105.472 61.44c-8.618667 5.006222-19.911111 7.480889-31.175111 7.480889-11.292444 0-22.698667-2.474667-31.175111-7.480889l-105.472-61.44-1.905778-1.137778-1.223111-0.682667h-0.113778l-22.016-12.515555c-8.391111-4.693333-8.931556-12.288-1.564444-17.521778zM241.777778 900.551111l-0.426667 25.031111c-0.113778 8.817778-5.831111 13.084444-13.084444 10.382222l-129.507556-75.406222c-18.773333-10.951111-34.190222-37.660444-34.190222-59.448889v-130.844444l0.341333-16.981333c0.113778-9.045333 6.030222-13.169778 13.539556-10.24l24.348444 14.165333 5.802667 3.470222v-0.113778l97.308444 56.632889 21.475556 12.970667c7.594667 4.579556 13.852444 15.416889 14.392889 24.462222v145.92z m235.434666-99.328c0 21.788444-15.416889 48.497778-34.190222 59.448889l-129.507555 75.406222c-7.253333 2.56-12.856889-1.564444-13.084445-10.382222l-0.426666-25.031111V754.631111c0.568889-9.045333 6.826667-19.882667 14.421333-24.462222l21.447111-12.970667 97.308444-56.632889v0.113778l5.802667-3.470222 24.376889-14.193778c7.480889-3.015111 13.397333 1.137778 13.511111 10.268445l0.341333 17.009777v130.929778z"  /><path fill="currentColor" d="M983.580444 543.118222l-201.898666-117.646222c-9.386667-5.461333-21.788444-8.163556-34.190222-8.163556-12.401778 0-24.803556 2.816-34.190223 8.163556l-201.784889 117.646222c-18.773333 10.951111-34.190222 37.660444-34.190222 59.448889v235.747556c0 21.788444 15.416889 48.497778 34.190222 59.448889l201.898667 117.646222c9.386667 5.489778 21.788444 8.163556 34.190222 8.163555 12.401778 0 24.803556-2.673778 34.190223-8.163555l201.784888-117.646222c18.773333-10.951111 34.190222-37.660444 34.190223-59.448889v-235.747556c-0.113778-21.788444-15.416889-48.611556-34.190223-59.448889z m-399.445333 32.085334l129.28-75.320889c9.386667-5.461333 21.788444-8.163556 34.190222-8.163556 12.401778 0 24.803556 2.702222 34.190223 8.163556l129.28 75.320889c7.367111 5.12 6.826667 12.828444-1.479112 17.521777l-21.987555 12.515556H887.466667l-1.251556 0.796444-1.877333 1.137778-105.472 61.44c-8.618667 5.006222-19.911111 7.480889-31.175111 7.480889-11.292444 0-22.698667-2.474667-31.175111-7.480889l-105.472-61.44-1.905778-1.137778-1.223111-0.796444h-0.113778l-22.016-12.515556c-8.504889-4.551111-9.045333-12.288-1.678222-17.521777z m134.200889 325.233777l-0.455111 25.031111c-0.113778 8.931556-5.802667 13.084444-13.084445 10.524445L575.431111 860.444444c-18.773333-10.951111-34.190222-37.660444-34.190222-59.448888v-130.929778l0.312889-16.981334c0.113778-9.073778 6.030222-13.198222 13.539555-10.296888l24.348445 14.222222 5.802666 3.413333v-0.085333l97.336889 56.632889 21.447111 12.970666c7.594667 4.579556 13.852444 15.416889 14.421334 24.462223v146.033777h-0.113778z m235.406222-99.441777c0 21.788444-15.416889 48.497778-34.190222 59.448888l-129.507556 75.434667c-7.253333 2.673778-12.828444-1.564444-13.084444-10.410667l-0.426667-25.031111v-146.033777c0.455111-9.045333 6.826667-19.882667 14.421334-24.462223l21.447111-12.970666 97.308444-56.632889v0.113778l5.831111-3.470223 24.348445-14.193777c7.480889-3.015111 13.397333 1.137778 13.511111 10.296888l0.341333 16.981334v130.929778z"  /></svg>