<?xml version="1.0" standalone="no"?><!DOCTYPE svg PUBLIC "-//W3C//DTD SVG 1.1//EN" "http://www.w3.org/Graphics/SVG/1.1/DTD/svg11.dtd"><svg class="icon" width="200px" height="200.00px" viewBox="0 0 1024 1024" version="1.1" xmlns="http://www.w3.org/2000/svg"><path fill="currentColor" d="M841.102222 1017.173333a112.298667 112.298667 0 0 1-109.681778-109.312v-72.903111a112.298667 112.298667 0 0 1 109.710223-109.340444v-72.903111a34.474667 34.474667 0 0 0-36.579556-36.323556h-256v109.340445a112.298667 112.298667 0 0 1 109.738667 109.312v72.817777a107.548444 107.548444 0 0 1-109.738667 109.340445h-73.102222a112.298667 112.298667 0 0 1-109.767111-109.340445v-72.903111a112.298667 112.298667 0 0 1 109.738666-109.340444v-109.340445h-256a34.474667 34.474667 0 0 0-36.551111 36.352v72.903111a112.298667 112.298667 0 0 1 109.681778 109.312v73.016889A107.548444 107.548444 0 0 1 182.897778 1017.173333H109.710222A112.298667 112.298667 0 0 1 0 907.861333v-72.903111a112.298667 112.298667 0 0 1 109.710222-109.340444v-72.903111a112.298667 112.298667 0 0 1 109.681778-109.340445h256v-77.568h-73.102222a112.298667 112.298667 0 0 1-109.681778-109.312v-218.737778A112.298667 112.298667 0 0 1 402.289778 28.444444h219.420444a112.298667 112.298667 0 0 1 109.738667 109.340445v218.709333a107.548444 107.548444 0 0 1-109.738667 109.312h-73.159111v77.539556h256a112.298667 112.298667 0 0 1 109.738667 109.340444v72.903111a112.298667 112.298667 0 0 1 109.681778 109.368889v72.903111a107.548444 107.548444 0 0 1-109.681778 109.340445H841.102222zM438.897778 907.889778a34.474667 34.474667 0 0 0 36.551111 36.323555h73.130667a34.474667 34.474667 0 0 0 36.579555-36.323555v-72.903111a34.474667 34.474667 0 0 0-36.579555-36.323556h-73.102223a34.474667 34.474667 0 0 0-36.579555 36.323556v72.903111z m-355.555556-99.271111a34.474667 34.474667 0 0 0-10.154666 26.368v72.903111a34.474667 34.474667 0 0 0 36.579555 36.323555h73.102222a34.474667 34.474667 0 0 0 36.579556-36.323555v-72.903111a34.474667 34.474667 0 0 0-36.551111-36.323556H109.710222a34.446222 34.446222 0 0 0-26.424889 9.955556zM658.261333 137.784889a34.474667 34.474667 0 0 0-36.579555-36.352h-219.420445a34.474667 34.474667 0 0 0-36.551111 36.352v218.709333a34.474667 34.474667 0 0 0 36.551111 36.323556h219.420445a34.474667 34.474667 0 0 0 36.579555-36.323556v-218.737778z m282.453334 670.805333a34.474667 34.474667 0 0 0-26.453334-9.955555H841.102222a34.474667 34.474667 0 0 0-36.579555 36.323555v72.903111a34.474667 34.474667 0 0 0 36.579555 36.323556h73.102222a34.474667 34.474667 0 0 0 36.579556-36.323556v-72.903111c0.568889-9.841778-3.100444-19.427556-10.097778-26.368z"  /></svg>