<?xml version="1.0" standalone="no"?><!DOCTYPE svg PUBLIC "-//W3C//DTD SVG 1.1//EN" "http://www.w3.org/Graphics/SVG/1.1/DTD/svg11.dtd"><svg class="icon" width="200px" height="200.00px" viewBox="0 0 1024 1024" version="1.1" xmlns="http://www.w3.org/2000/svg"><path fill="currentColor" d="M345.230222 722.602667a172.600889 172.600889 0 1 1-345.230222 0 172.600889 172.600889 0 0 1 345.230222 0z m-172.629333 89.827555a89.742222 89.742222 0 1 0-89.685333-89.770666 89.685333 89.685333 0 0 0 89.685333 89.685333v0.085333z m335.900444-467.057778A172.686222 172.686222 0 1 1 508.586667 0.056889a172.686222 172.686222 0 1 1-0.085334 345.372444v-0.056889z m0-262.314666a89.742222 89.742222 0 1 0 0.085334 179.484444 89.742222 89.742222 0 0 0-0.170667-179.484444h0.085333zM847.644444 550.058667a172.600889 172.600889 0 1 1 7.111112 345.144889 172.600889 172.600889 0 0 1-7.111112-345.144889z m2.929778 262.286222a89.685333 89.685333 0 1 0 0-179.370667 89.685333 89.685333 0 0 0 0 179.370667z m10.808889-317.468445a328.220444 328.220444 0 0 0-137.898667-222.151111 199.623111 199.623111 0 0 0 12.373334-89.799111 410.908444 410.908444 0 0 1 211.342222 338.033778 197.575111 197.575111 0 0 0-85.788444-26.083556z m-190.862222 389.688889a200.476444 200.476444 0 0 0 73.244444 51.512889 408.348444 408.348444 0 0 1-235.264 74.097778 409.315556 409.315556 0 0 1-234.183111-73.102222 199.936 199.936 0 0 0 74.24-51.285334c47.416889 26.510222 101.831111 41.528889 159.943111 41.528889 58.908444 0 114.204444-15.445333 162.019556-42.780444zM293.518222 272.839111a327.338667 327.338667 0 0 0-137.984 222.378667 198.684444 198.684444 0 0 0-85.788444 27.761778 410.823111 410.823111 0 0 1 211.342222-339.911112 199.623111 199.623111 0 0 0 12.430222 89.770667z"  /></svg>