<?xml version="1.0" standalone="no"?><!DOCTYPE svg PUBLIC "-//W3C//DTD SVG 1.1//EN" "http://www.w3.org/Graphics/SVG/1.1/DTD/svg11.dtd"><svg class="icon" width="200px" height="200.00px" viewBox="0 0 1024 1024" version="1.1" xmlns="http://www.w3.org/2000/svg"><path fill="currentColor" d="M817.180444 429.596444h-17.180444v-100.977777c0-52.963556-44.401778-96.654222-98.844444-96.654223h-102.4c1.422222-10.012444 1.422222-20.764444 1.422222-30.776888C600.177778 95.203556 512.142222 8.533333 404.024889 8.533333S207.786667 95.203556 207.786667 201.187556c0 10.012444 0 20.764444 1.422222 30.776888h-102.4c-54.414222 0-98.816 43.690667-98.816 96.682667v143.217778c0 12.885333 5.006222 22.186667 15.047111 30.065778 10.012444 7.879111 20.764444 10.012444 32.938667 7.879111 10.752-2.161778 22.926222-4.295111 31.516444-4.295111 64.426667 0 118.869333 53.703111 118.869333 116.707555 0 64.455111-52.992 116.736-118.897777 116.736-9.301333 0-20.764444-2.161778-31.488-4.295111-10.752-2.844444-23.608889 0.711111-32.938667 7.879111-10.040889 7.139556-15.047111 17.180444-15.047111 30.065778v143.217778c0 52.992 44.401778 96.682667 98.816 96.682666h595.797333c27.192889 0 53.703111-11.463111 72.305778-30.805333 17.208889-18.602667 25.799111-41.528889 25.088-65.877333v-100.977778h17.180444c108.117333 0 196.209778-86.641778 196.209778-192.625778 0-105.984-88.092444-192.625778-196.209778-192.625778zM724.764444 764.728889v148.224c0 11.463111-10.012444 21.504-22.186666 21.504H107.52c-12.174222 0-22.186667-9.329778-22.186667-21.504v-98.816c0.682667 0 2.133333 0 2.844445-0.711111 108.117333-0.711111 195.498667-86.641778 195.498666-192.625778 0-52.280889-20.764444-101.688889-58.737777-138.211556a193.820444 193.820444 0 0 0-140.344889-54.414222v-98.816c0-11.463111 10.012444-21.475556 22.186666-21.475555h153.969778a42.097778 42.097778 0 0 0 32.938667-17.208889c6.456889-9.301333 7.879111-21.475556 2.844444-35.072a125.383111 125.383111 0 0 1-11.434666-50.858667c0-64.426667 52.992-116.707556 118.869333-116.707555 64.455111 0 118.869333 53.703111 118.869333 116.707555 0 15.075556-1.422222 32.227556-10.752 50.147556-6.428444 10.723556-5.006222 25.770667 2.161778 35.783111 7.168 8.618667 19.342222 17.208889 32.938667 17.208889H702.577778c12.174222 0 22.186667 9.301333 22.186666 21.475555v150.385778c0 12.885333 5.006222 22.186667 15.047112 30.065778 10.752 7.879111 23.608889 9.301333 35.811555 4.295111 11.434667-5.717333 24.348444-8.590222 40.106667-8.590222 64.426667 0 118.840889 53.703111 118.840889 116.707555 0 64.455111-52.963556 116.736-118.869334 116.736-11.434667 0-24.32-4.295111-36.494222-7.879111l-4.323555-1.422222c-14.307556-3.584-25.770667-2.161778-35.072 5.006222-9.301333 4.266667-15.047111 15.758222-15.047112 30.065778z"  /></svg>