<?xml version="1.0" standalone="no"?><!DOCTYPE svg PUBLIC "-//W3C//DTD SVG 1.1//EN" "http://www.w3.org/Graphics/SVG/1.1/DTD/svg11.dtd"><svg class="icon" width="200px" height="200.00px" viewBox="0 0 1024 1024" version="1.1" xmlns="http://www.w3.org/2000/svg"><path fill="currentColor" d="M959.516444 737.649778v193.422222h-64.455111v-64.455111h-193.422222V544.227556h-128.967111v-64.455112h128.967111V157.383111h193.422222V92.928h64.455111v193.422222h-64.455111V221.866667h-128.967111v257.905777h128.967111V415.288889h64.455111v193.422222h-64.455111v-64.483555h-128.967111V802.133333h128.967111v-64.483555h64.455111z m-542.634666 0h-37.632V995.555556h-193.422222v-257.905778H148.224C112.64 737.649778 56.888889 681.927111 56.888889 646.343111v-204.202667c0-35.584 55.751111-91.306667 91.335111-91.306666h268.657778c35.584 0 91.306667 55.722667 91.306666 91.306666v204.174223c0 35.612444-55.722667 91.335111-91.306666 91.335111z m26.851555-257.877334a64.483556 64.483556 0 0 0-64.483555-64.483555h-193.422222a64.483556 64.483556 0 0 0-64.455112 64.483555V608.711111a64.483556 64.483556 0 0 0 64.455112 64.483556H250.311111v257.877333h64.483556v-257.877333h64.455111A64.483556 64.483556 0 0 0 443.733333 608.711111v-128.938667zM121.372444 189.639111a161.194667 161.194667 0 1 1 322.360889 0 161.194667 161.194667 0 0 1-322.360889 0z m161.166223 96.711111a96.711111 96.711111 0 1 0 0-193.422222 96.711111 96.711111 0 0 0 0 193.422222z"  /></svg>