<?xml version="1.0" standalone="no"?><!DOCTYPE svg PUBLIC "-//W3C//DTD SVG 1.1//EN" "http://www.w3.org/Graphics/SVG/1.1/DTD/svg11.dtd"><svg class="icon" width="200px" height="200.00px" viewBox="0 0 1024 1024" version="1.1" xmlns="http://www.w3.org/2000/svg"><path fill="currentColor" d="M396.629333 335.985778c37.006222-36.977778 40.106667-95.573333 6.172445-135.68l-104.817778-132.551111C264.078222 23.068444 199.338667 16.896 156.16 50.801778c-3.072 3.072-6.172444 3.072-6.172444 6.172444L57.514667 149.447111c-87.893333 87.893333 36.977778 325.262222 265.130666 553.415111 226.616889 226.616889 459.377778 348.387556 548.778667 263.594667l90.965333-90.936889c40.078222-40.106667 40.078222-104.817778 0-141.824l-6.172444-6.172444-132.551111-104.817778c-40.106667-33.905778-98.702222-30.833778-135.68 6.172444l-57.031111 57.031111a896.341333 896.341333 0 0 1-163.413334-124.871111c-47.786667-47.786667-87.864889-101.717333-124.871111-163.384889l53.959111-61.667555z m-47.786666-90.936889c10.808889 13.852444 10.808889 33.905778-3.072 44.686222L271.786667 368.355556c-10.808889 10.808889-13.880889 27.761778-6.172445 40.106666 40.078222 73.955556 90.936889 140.231111 149.532445 200.362667a871.196444 871.196444 0 0 0 200.391111 149.532444 37.831111 37.831111 0 0 0 40.078222-6.172444l78.620444-78.620445c13.880889-13.852444 30.833778-13.852444 44.714667-3.072l132.551111 107.918223s3.100444 0 3.100445 3.072a32.142222 32.142222 0 0 1 1.536 46.250666s0 1.536-1.536 1.536l-94.037334 90.965334c-44.714667 44.686222-254.350222-67.84-454.741333-265.159111C165.404444 457.756444 57.457778 245.048889 100.664889 200.334222l95.573333-95.573333c13.880889-10.808889 36.977778-10.808889 47.786667 6.172444l104.817778 134.115556z"  /></svg>