<?xml version="1.0" standalone="no"?><!DOCTYPE svg PUBLIC "-//W3C//DTD SVG 1.1//EN" "http://www.w3.org/Graphics/SVG/1.1/DTD/svg11.dtd"><svg class="icon" width="200px" height="200.00px" viewBox="0 0 1024 1024" version="1.1" xmlns="http://www.w3.org/2000/svg"><path fill="currentColor" d="M1022.435556 190.350222v197.347556c0 19.996444-16.213333 36.209778-36.181334 36.209778a84.48 84.48 0 0 0 0 168.903111c19.996444 0 36.181333 16.213333 36.181334 36.181333v197.347556a132.721778 132.721778 0 0 1-132.693334 132.721777H133.091556a132.721778 132.721778 0 0 1-132.721778-132.721777v-197.347556c0-19.968 16.213333-36.181333 36.209778-36.181333a84.48 84.48 0 1 0 0-168.903111c-19.996444 0-36.209778-16.213333-36.209778-36.209778V190.350222A132.721778 132.721778 0 0 1 133.12 57.656889h756.622222a132.721778 132.721778 0 0 1 132.721778 132.693333z m-132.693334-60.302222H133.091556a60.302222 60.302222 0 0 0-60.302223 60.302222v165.347556a156.899556 156.899556 0 0 1 0 305.294222v165.347556a60.302222 60.302222 0 0 0 60.302223 60.330666h756.622222a60.302222 60.302222 0 0 0 60.330666-60.302222v-165.376a156.899556 156.899556 0 0 1 0-305.294222V190.350222a60.302222 60.302222 0 0 0-60.302222-60.302222z m-522.154666 169.528889a36.181333 36.181333 0 0 1 50.972444 4.636444l92.842667 111.416889 92.842666-111.416889a36.209778 36.209778 0 0 1 55.608889 46.364445l-81.237333 97.450666h53.447111c19.171556 0 34.986667 14.933333 36.124444 34.076445l0.056889 2.133333c0 19.968-16.213333 36.181333-36.181333 36.181334h-78.421333v48.270222h78.421333c19.171556 0 34.986667 14.933333 36.124444 34.048l0.056889 2.133333c0 19.996444-16.213333 36.181333-36.181333 36.181333h-78.421333v48.270223c0 19.171556-14.933333 34.986667-34.076445 36.124444l-2.133333 0.085333c-19.968 0-36.181333-16.213333-36.181333-36.209777v-48.270223h-90.481778c-19.171556 0-35.015111-14.933333-36.124445-34.048l-0.085333-2.133333c0-19.996444 16.213333-36.181333 36.209778-36.181333h90.453333v-48.270222h-90.453333c-19.171556 0-35.015111-14.933333-36.124445-34.076445l-0.085333-2.104889c0-19.996444 16.213333-36.209778 36.209778-36.209778h53.418666l-81.237333-97.479111a36.181333 36.181333 0 0 1 2.929778-49.464889l1.706667-1.507555z"  /></svg>