<?xml version="1.0" standalone="no"?><!DOCTYPE svg PUBLIC "-//W3C//DTD SVG 1.1//EN" "http://www.w3.org/Graphics/SVG/1.1/DTD/svg11.dtd"><svg class="icon" width="200px" height="200.00px" viewBox="0 0 1024 1024" version="1.1" xmlns="http://www.w3.org/2000/svg"><path fill="currentColor" d="M421.12 369.379556c119.182222 0 243.057778-26.197333 317.44-76.117334v90.965334h68.920889V184.974222c0-119.779556-199.082667-184.433778-386.360889-184.433778C233.813333 0.568889 34.759111 65.194667 34.759111 184.974222v543.573334c0 119.808 199.054222 184.433778 386.360889 184.433777v-68.920889c-196.693333 0-317.44-67.271111-317.44-115.484444v-163.498667c74.382222 49.891556 198.257778 76.117333 317.44 76.117334v-68.920889c-196.693333 0-317.44-67.271111-317.44-115.484445V293.262222c74.353778 49.92 198.257778 76.117333 317.44 76.117334z m0-299.918223c196.693333 0 317.44 67.271111 317.44 115.512889 0 48.241778-120.775111 115.484444-317.44 115.484445-196.693333 0-317.44-67.242667-317.44-115.484445 0-48.241778 120.746667-115.512889 317.44-115.512889zM729.941333 407.04c-171.064889 0-260.579556 65.820444-260.579555 130.844444v349.297778c0 65.024 89.514667 130.844444 260.579555 130.844445 169.813333 0 259.214222-64.853333 260.551111-129.393778h0.056889V537.884444c0-64.995556-89.514667-130.816-260.608-130.816z m0 68.920889c126.464 0 191.715556 43.406222 191.715556 61.923555 0 18.488889-65.251556 61.895111-191.715556 61.895112s-191.687111-43.377778-191.687111-61.895112c0-18.517333 65.251556-61.923556 191.715556-61.923555z m0 473.116444c-126.464 0-191.687111-43.377778-191.687111-61.895111v-83.399111c43.747556 23.751111 107.918222 39.537778 191.715556 39.537778 83.768889 0 147.911111-15.786667 191.658666-39.537778v83.399111c0 18.488889-65.223111 61.895111-191.687111 61.895111z m0-174.648889c-126.464 0-191.687111-43.377778-191.687111-61.895111v-83.399111c43.747556 23.751111 107.918222 39.537778 191.715556 39.537778 83.768889 0 147.911111-15.786667 191.658666-39.537778v83.399111c0 18.488889-65.223111 61.895111-191.687111 61.895111z"  /></svg>