<?xml version="1.0" standalone="no"?><!DOCTYPE svg PUBLIC "-//W3C//DTD SVG 1.1//EN" "http://www.w3.org/Graphics/SVG/1.1/DTD/svg11.dtd"><svg class="icon" width="200px" height="200.00px" viewBox="0 0 1024 1024" version="1.1" xmlns="http://www.w3.org/2000/svg"><path fill="currentColor" d="M934.513778 902.656c-12.999111 52.337778-59.079111 90.481778-113.607111 90.481778-50.631111 0-93.752889-32.426667-110.165334-79.189334H313.230222c-16.412444 46.791111-59.562667 79.189333-110.193778 79.189334-54.528 0-100.551111-38.144-113.550222-90.481778-56.718222-23.779556-92.842667-82.488889-88.092444-147.626667l11.121778-179.996444c4.380444-60.501333 42.467556-114.005333 97.024-138.922667l49.038222-236.259555c17.92-86.385778 102.599111-156.672 188.757333-156.672h329.301333c86.186667 0 170.837333 70.257778 188.757334 156.672l49.009778 236.259555c54.556444 24.917333 92.672 78.421333 97.052444 138.922667l11.093333 179.996444c4.778667 65.137778-31.345778 123.847111-88.035555 147.626667zM875.235556 493.226667a33.678222 33.678222 0 0 1-23.352889-28.501334 80.839111 80.839111 0 0 1-0.483556-5.632c-0.085333-0.995556-0.085333-1.991111-0.284444-3.015111l-50.204445-242.119111c-11.662222-55.893333-68.551111-103.139556-124.273778-103.139555H347.335111c-55.751111 0-112.64 47.217778-124.245333 103.139555l-50.232889 242.147556c-0.227556 0.910222-0.227556 1.934222-0.284445 2.929777-0.142222 1.934222-0.284444 3.896889-0.483555 5.802667a33.649778 33.649778 0 0 1-23.324445 28.444445c-38.656 11.747556-67.640889 47.445333-70.485333 86.840888l-11.093333 179.996445c-2.986667 40.334222 21.333333 74.808889 59.164444 83.768889 14.307556 3.441778 24.718222 16.213333 25.457778 31.317333 1.336889 28.245333 23.893333 50.346667 51.228444 50.346667 26.737778 0 48.696889-20.764444 51.057778-48.355556a33.336889 33.336889 0 0 1 32.853334-30.805333H736.995556c17.066667 0 31.402667 13.368889 32.853333 30.805333 2.389333 27.591111 24.32 48.355556 51.057778 48.355556 27.363556 0 49.891556-22.129778 51.256889-50.346667 0.768-15.160889 11.178667-27.875556 25.486222-31.317333 37.774222-8.96 62.094222-43.463111 59.107555-83.797334l-11.093333-179.996444c-2.872889-39.338667-31.829333-75.093333-70.428444-86.869333z m-69.461334 224.625777a60.359111 60.359111 0 0 1-42.666666 18.119112 60.245333 60.245333 0 0 1-42.638223-18.119112 63.345778 63.345778 0 0 1-17.635555-43.719111c0-16.184889 6.485333-32.284444 17.635555-43.719111a60.245333 60.245333 0 0 1 42.666667-18.119111c15.758222 0 31.459556 6.684444 42.638222 18.119111 11.150222 11.434667 17.635556 27.534222 17.635556 43.719111 0 16.213333-6.485333 32.284444-17.635556 43.719111z m-68.209778-221.354666H286.350222c-12.231111 0-22.727111-4.636444-29.639111-13.141334-6.599111-7.765333-9.415111-19.086222-7.566222-31.345777 0.170667-0.853333 0.284444-1.621333 0.483555-2.446223l39.907556-177.806222c5.034667-28.074667 32.142222-51.484444 59.989333-51.484444H674.417778c27.875556 0 54.954667 23.466667 59.932444 51.484444l39.907556 177.834667a27.221333 27.221333 0 0 1 0.483555 2.446222c1.820444 12.259556-0.967111 23.580444-7.964444 31.829333-6.456889 7.964444-16.952889 12.629333-29.212445 12.629334z m-383.943111-208.611556l-31.658666 140.970667h380.074666l-31.658666-140.970667H353.621333zM303.502222 717.852444a60.245333 60.245333 0 0 1-42.638222 18.119112 60.245333 60.245333 0 0 1-42.609778-18.119112 63.260444 63.260444 0 0 1-17.692444-43.690666c0-16.213333 6.485333-32.312889 17.692444-43.747556a60.245333 60.245333 0 0 1 42.609778-18.119111c15.815111 0 31.488 6.684444 42.666667 18.119111s17.664 27.534222 17.664 43.747556c0 16.184889-6.485333 32.256-17.692445 43.690666z"  /></svg>