<?xml version="1.0" standalone="no"?><!DOCTYPE svg PUBLIC "-//W3C//DTD SVG 1.1//EN" "http://www.w3.org/Graphics/SVG/1.1/DTD/svg11.dtd"><svg class="icon" width="200px" height="200.00px" viewBox="0 0 1024 1024" version="1.1" xmlns="http://www.w3.org/2000/svg"><path fill="currentColor" d="M944.014222 99.669333h-147.342222V68.494222a40.049778 40.049778 0 1 0-80.099556 0v31.175111H307.427556V68.494222a40.049778 40.049778 0 1 0-80.099556 0v31.175111h-147.342222A79.928889 79.928889 0 0 0 0 179.683556v736.625777a79.928889 79.928889 0 0 0 79.985778 80.071111h864.028444A80.042667 80.042667 0 0 0 1024 916.309333V179.683556a79.872 79.872 0 0 0-79.985778-80.014223zM227.328 174.136889V201.955556a40.049778 40.049778 0 1 0 80.099556 0v-27.818667h409.144888V201.955556a40.049778 40.049778 0 1 0 80.099556 0v-27.818667h152.888889v139.093333H74.439111v-139.093333h152.888889z m722.204444 750.677333H74.467556V384.284444h875.121777v540.529778z m-686.592-398.222222h71.111112a35.612444 35.612444 0 0 1 0 71.253333h-71.111112a35.584 35.584 0 1 1 0-71.168v-0.056889z m213.447112 0h71.168a35.612444 35.612444 0 0 1 0 71.253333h-71.111112a35.584 35.584 0 1 1 0-71.168l-0.056888-0.056889z m213.504 0h71.224888a35.612444 35.612444 0 0 1 0 71.253333h-71.224888a35.584 35.584 0 0 1 0-71.168v-0.056889zM262.883556 713.898667h71.224888a35.612444 35.612444 0 0 1 0 71.168H262.940444a35.584 35.584 0 1 1 0-71.168h-0.056888z m213.560888 0h71.168a35.612444 35.612444 0 0 1 0 71.168h-71.224888a35.584 35.584 0 1 1 0-71.168h0.056888z"  /></svg>