<?xml version="1.0" standalone="no"?><!DOCTYPE svg PUBLIC "-//W3C//DTD SVG 1.1//EN" "http://www.w3.org/Graphics/SVG/1.1/DTD/svg11.dtd"><svg class="icon" width="200px" height="200.00px" viewBox="0 0 1024 1024" version="1.1" xmlns="http://www.w3.org/2000/svg"><path fill="currentColor" d="M1014.247253 352.227556a32.426667 32.426667 0 0 0-2.190222-7.708445l-86.528-215.438222c-14.990222-44.657778-58.026667-72.078222-108.401778-72.192H209.667698c-51.029333 0-90.680889 27.136-105.045334 70.030222l-93.041777 219.875556c-0.568889 1.678222-0.995556 3.413333-1.336889 5.12a202.894222 202.894222 0 0 0 97.564444 242.688c27.278222 14.563556 59.363556 21.959111 95.516445 21.959111a202.296889 202.296889 0 0 0 154.936889-72.362667 202.097778 202.097778 0 0 0 154.225777 71.992889 201.585778 201.585778 0 0 0 153.429334-72.192 201.699556 201.699556 0 0 0 155.306666 72.078222c36.864-0.170667 69.575111-7.936 97.109334-23.04A203.093333 203.093333 0 0 0 1024.089031 414.606222a198.4 198.4 0 0 0-9.841778-62.378666z m-131.242666 176.014222c-16.725333 9.159111-37.575111 13.824-61.838223 13.994666a128.227556 128.227556 0 0 1-109.880888-61.553777 58.481778 58.481778 0 0 0-9.870223-15.559111c-6.087111-6.826667-17.152-14.904889-35.413333-14.904889-14.677333 0-28.017778 6.001778-35.555556 15.246222a62.236444 62.236444 0 0 0-9.671111 15.246222c-23.608889 38.257778-64.284444 61.297778-108.316444 61.610667a128.483556 128.483556 0 0 1-109.141333-61.752889c-1.678222-3.413333-4.437333-9.102222-8.760889-13.937778-17.351111-20.764444-56.206222-19.655111-71.338667-1.621333-5.575111 6.087111-8.476444 12.231111-10.353778 16.412444a129.137778 129.137778 0 0 1-109.624889 61.326222c-23.864889 0-44.259556-4.465778-60.757333-13.255111h-0.056889a129.052444 129.052444 0 0 1-61.44-156.330666c0.341333-0.995556 0.625778-2.104889 0.881778-3.242667l91.648-216.661333c1.877333-5.546667 7.566222-22.414222 36.067555-22.414223h607.658667c11.719111 0.711111 31.857778 2.759111 39.025778 23.836445l85.816889 213.674667c0.341333 1.564444 0.739556 3.043556 1.109333 4.266666a129.194667 129.194667 0 0 1-60.188444 155.619556z m27.676444 118.471111a36.892444 36.892444 0 0 0-36.920889 36.920889l0.085334 201.443555a20.849778 20.849778 0 0 1-20.764445 20.792889l-694.670222 0.455111a20.679111 20.679111 0 0 1-20.764445-20.622222l-0.227555-197.973333a36.920889 36.920889 0 0 0-36.920889-36.835556h-0.085333a36.920889 36.920889 0 0 0-36.835556 36.977778l0.256 197.888a94.606222 94.606222 0 0 0 94.577778 94.407111l694.812444-0.455111a94.833778 94.833778 0 0 0 94.464-94.663111l-0.056889-201.386667a36.920889 36.920889 0 0 0-36.949333-36.949333z m-109.681778-258.446222H210.236587a36.920889 36.920889 0 0 1 0-73.841778h590.762666a36.920889 36.920889 0 1 1 0 73.841778z"  /></svg>