<?xml version="1.0" standalone="no"?><!DOCTYPE svg PUBLIC "-//W3C//DTD SVG 1.1//EN" "http://www.w3.org/Graphics/SVG/1.1/DTD/svg11.dtd"><svg class="icon" width="200px" height="200.00px" viewBox="0 0 1024 1024" version="1.1" xmlns="http://www.w3.org/2000/svg"><path fill="currentColor" d="M896.739556 680.647111h-127.715556l-193.706667-264.448c79.729778-27.363556 137.272889-100.778667 137.272889-187.847111 0-110.222222-91.761778-199.907556-204.8-199.907556-112.952889 0-204.8 89.685333-204.8 199.907556 0 87.04 57.628444 160.483556 137.244445 187.847111l-193.706667 264.448H118.897778C69.006222 680.647111 28.444444 720.213333 28.444444 768.853333v142.165334c0 48.696889 40.561778 88.291556 90.453334 88.291555h777.756444c49.891556 0 90.453333-39.594667 90.453334-88.291555V768.853333c0.085333-48.64-40.504889-88.234667-90.368-88.234666zM380.558222 228.408889c0-68.522667 57.031111-124.302222 127.260445-124.302222 70.257778 0 127.288889 55.751111 127.288889 124.302222 0 68.096-56.433778 123.448889-126.094223 124.103111h-2.389333c-69.603556-0.682667-126.065778-55.978667-126.065778-124.103111z m115.342222 242.005333l22.812445-1.422222 155.022222 211.626667H341.902222l153.998222-210.204445z m400.839112 453.290667H118.954667a12.913778 12.913778 0 0 1-12.913778-12.600889v-142.193778c0-6.826667 5.859556-12.572444 12.913778-12.572444h777.784889c7.025778 0 12.942222 5.745778 12.942222 12.572444v142.193778a12.999111 12.999111 0 0 1-12.942222 12.600889z"  /></svg>