<?xml version="1.0" standalone="no"?><!DOCTYPE svg PUBLIC "-//W3C//DTD SVG 1.1//EN" "http://www.w3.org/Graphics/SVG/1.1/DTD/svg11.dtd"><svg class="icon" width="200px" height="200.00px" viewBox="0 0 1024 1024" version="1.1" xmlns="http://www.w3.org/2000/svg"><path fill="currentColor" d="M981.674667 397.141333c-44.657778 48.241778-44.657778 181.902222 0 231.964445a91.676444 91.676444 0 0 1 17.863111 94.72 454.428444 454.428444 0 0 1-66.104889 114.346666c-21.447111 26.794667-57.144889 39.253333-89.315556 32.199112-32.227556-7.111111-64.312889-1.820444-92.928 14.222222-28.615111 16.071111-48.241778 42.894222-58.936889 73.301333a90.993778 90.993778 0 0 1-73.272888 62.520889c-21.418667 1.792-101.546667 3.584-122.965334 3.584-21.447111 0-73.102222-1.792-94.549333-5.404444a91.107556 91.107556 0 0 1-73.272889-62.492445c-19.626667-64.284444-85.76-101.802667-151.836444-87.552a89.799111 89.799111 0 0 1-89.315556-32.199111c-26.851556-35.669333-50.062222-73.272889-66.133333-114.346667a91.875556 91.875556 0 0 1 17.863111-94.72c44.657778-48.241778 44.657778-181.902222 0-231.936a91.875556 91.875556 0 0 1-17.863111-94.72A454.428444 454.428444 0 0 1 87.04 186.311111c21.447111-26.823111 57.144889-39.253333 91.136-32.199111 32.199111 7.196444 64.284444 1.792 92.899556-14.250667 28.615111-16.042667 48.270222-42.865778 58.936888-73.272889A90.993778 90.993778 0 0 1 403.256889 4.039111c42.865778-5.376 172.856889-5.376 217.514667 0A91.107556 91.107556 0 0 1 694.044444 66.56a126.464 126.464 0 0 0 58.936889 73.272889c28.615111 16.042667 60.700444 21.418667 92.899556 14.250667 33.905778-7.168 69.688889 5.404444 89.315555 32.199111 25.031111 37.575111 48.270222 75.093333 64.341334 116.138666a91.875556 91.875556 0 0 1-17.863111 94.72z m-105.386667-164.408889c-3.584-5.376-10.752-7.168-17.834667-5.376-48.241778 10.780444-100.010667 3.584-142.961777-21.418666a193.450667 193.450667 0 0 1-91.136-114.346667c-1.792-7.196444-7.168-12.487111-14.222223-12.487111-37.518222-5.376-131.982222-5.376-169.472 0-7.168 1.792-40.903111 5.404444-42.695111 12.487111a193.706667 193.706667 0 0 1-91.221333 114.346667c-42.865778 25.031111-94.72 32.199111-144.668445 21.418666-7.168-1.792-14.250667 1.792-17.834666 5.404445-23.239111 30.378667-42.865778 62.492444-57.144889 96.483555-1.792 7.196444-1.792 14.250667 3.612444 19.626667 69.688889 76.885333 69.688889 251.619556 0 328.476445-5.404444 5.404444-5.404444 12.458667-3.612444 17.863111 14.279111 35.669333 33.905778 67.868444 55.352889 96.483555 3.584 5.404444 12.458667 7.196444 17.834666 7.196445 101.802667-23.239111 203.662222 37.461333 235.804445 135.765333 1.792 7.196444 35.612444 10.780444 42.666667 12.458667 17.863111 1.820444 37.518222 3.612444 55.352888 3.612444 19.626667 0 94.378667-1.792 114.033778-3.612444 7.168-1.792 12.458667-5.376 14.222222-12.458667a193.479111 193.479111 0 0 1 91.136-114.346667c42.865778-25.031111 94.72-32.199111 144.668445-21.418666 7.168 1.792 14.250667-1.820444 17.834667-5.404445 23.239111-30.407111 42.894222-62.492444 57.144888-96.483555 1.792-5.404444 1.792-14.279111-3.584-19.626667-69.688889-76.885333-69.688889-251.619556 0-328.476444 5.660444-5.404444 5.660444-12.458667 3.868445-19.626667-14.250667-33.934222-33.905778-67.925333-57.144889-96.512zM338.602667 513.137778c0-98.275556 80.469333-178.631111 178.659555-178.631111 98.218667 0 178.659556 80.355556 178.659556 178.631111a177.976889 177.976889 0 0 1-178.631111 178.659555c-98.332444 0-178.688-80.355556-178.688-178.631111z m285.838222 0a107.52 107.52 0 0 0-107.178667-107.150222 107.52 107.52 0 0 0-107.178666 107.150222 107.52 107.52 0 0 0 107.178666 107.178666 107.52 107.52 0 0 0 107.178667-107.178666z"  /></svg>