<?xml version="1.0" standalone="no"?><!DOCTYPE svg PUBLIC "-//W3C//DTD SVG 1.1//EN" "http://www.w3.org/Graphics/SVG/1.1/DTD/svg11.dtd"><svg class="icon" width="200px" height="199.42px" viewBox="0 0 1027 1024" version="1.1" xmlns="http://www.w3.org/2000/svg"><path fill="currentColor" d="M785.511262 1023.687172h-180.672425a38.079707 38.079707 0 0 1-38.904435-38.904435v-277.051907h-119.955342v277.051907c0 22.153915-16.750521 38.904435-38.904436 38.904435H229.644236a116.912378 116.912378 0 0 1-116.713306-116.713306v-284.104757h-22.153914C40.525453 623.466326 0 582.940873 0 532.148971c0-23.774933 8.64543-45.388508 25.395951-62.679368l393.367067-416.6301c63.760047-67.513983 113.329075-70.75602 182.492516-6.995973a12.655317 12.655317 0 0 0 6.484072 6.484073l393.367068 417.142c35.662399 35.662399 33.501041 92.938373-1.621018 128.060433-16.750521 16.750521-40.525453 25.395951-64.271948 25.395951h-33.52948v284.076318c0 64.271947-52.41292 116.713306-116.172966 116.713306z m-140.687311-77.808871h140.146971c22.182353 0 40.525453-18.371539 40.525454-40.525453v-321.359736c0-22.182353 16.77896-38.904435 38.904435-38.904435h72.945816a12.655317 12.655317 0 0 0 11.887466-8.64543c1.621018-4.863054 1.621018-10.266448-3.242036-15.129502L551.003971 106.333102c-35.662399-37.283417-36.060544-38.904435-73.34396-3.242036a3.497987 3.497987 0 0 0-3.242037 3.242036L81.050907 521.825645a13.36629 13.36629 0 0 0 0 18.399978c3.242036 3.242036 6.484073 3.242036 10.266448 3.242036h62.679368c22.153915 0 38.904435 16.750521 38.904435 38.904435v322.980754c0 22.153915 18.371539 40.525453 40.525453 40.525453h137.985614v-238.147471a77.837309 77.837309 0 0 1 77.808871-77.80887h119.955342a77.837309 77.837309 0 0 1 77.80887 77.80887l-2.161357 238.147471z"  /></svg>