<?xml version="1.0" standalone="no"?><!DOCTYPE svg PUBLIC "-//W3C//DTD SVG 1.1//EN" "http://www.w3.org/Graphics/SVG/1.1/DTD/svg11.dtd"><svg class="icon" width="200px" height="200.00px" viewBox="0 0 1024 1024" version="1.1" xmlns="http://www.w3.org/2000/svg"><path fill="currentColor" d="M1020.472889 452.352v-25.002667h-0.654222l0.711111-0.512-227.185778-319.146666c-55.637333-64.426667-105.813333-65.820444-121.571556-64.341334H372.110222c-99.982222 0-147.626667 66.446222-156.814222 80.924445L1.365333 426.268444l1.422223 1.080889H0.654222v66.673778h0.284445v377.002667a116.821333 116.821333 0 0 0 116.679111 116.679111h786.716444a116.821333 116.821333 0 0 0 116.679111-116.679111V452.352h-0.568889zM268.913778 163.896889l2.56-3.783111c1.223111-2.076444 30.663111-50.119111 100.636444-50.119111h301.568l1.621334 0.910222 4.039111-1.28c4.949333 0.113778 29.895111 2.616889 62.492444 40.362667l194.474667 277.361777H657.92v150.016h-295.822222V455.68h-0.284445v-28.359111H85.134222l183.779556-263.452445z m635.448889 757.134222H117.646222a50.062222 50.062222 0 0 1-50.005333-50.005333V494.023111h227.783111v83.342222a66.759111 66.759111 0 0 0 66.645333 66.673778h295.822223a66.730667 66.730667 0 0 0 66.702222-66.673778v-83.342222h229.774222v377.002667a50.062222 50.062222 0 0 1-50.005333 50.005333z"  /></svg>