<?xml version="1.0" standalone="no"?><!DOCTYPE svg PUBLIC "-//W3C//DTD SVG 1.1//EN" "http://www.w3.org/Graphics/SVG/1.1/DTD/svg11.dtd"><svg class="icon" width="200px" height="200.00px" viewBox="0 0 1024 1024" version="1.1" xmlns="http://www.w3.org/2000/svg"><path fill="currentColor" d="M980.252444 302.848s-0.625778 0 0 0c-22.812444 0-40.106667-18.488889-40.106666-40.704l1.848889-144.981333-142.506667 25.315555a39.879111 39.879111 0 0 1-46.250667-32.711111 39.879111 39.879111 0 0 1 32.711111-46.279111l190.008889-33.905778c11.690667-1.848889 24.035556 1.223111 32.682667 8.618667 8.618667 7.395556 14.165333 19.143111 14.165333 30.862222l-2.446222 194.275556c0 21.617778-17.92 39.509333-40.106667 39.509333z"  /><path fill="currentColor" d="M40.760889 607.573333c-10.496 0-20.366222-3.697778-28.387556-11.719111a40.590222 40.590222 0 0 1 0-56.746666L371.399111 180.053333c7.395556-7.395556 17.891556-11.719111 28.387556-11.719111 10.467556 0 20.963556 4.323556 28.359111 11.719111l197.404444 197.404445L913.635556 89.400889a40.590222 40.590222 0 0 1 56.746666 0 40.590222 40.590222 0 0 1 0 56.746667L653.937778 462.620444a40.675556 40.675556 0 0 1-28.387556 11.719112 40.675556 40.675556 0 0 1-28.387555-11.719112l-197.404445-197.404444L69.176889 595.854222c-8.021333 7.395556-18.517333 11.719111-28.387556 11.719111z m114.744889 405.276445c-22.215111 0-40.106667-17.891556-40.106667-40.106667V663.125333c0-22.186667 17.891556-40.106667 40.106667-40.106666 22.186667 0 40.106667 17.92 40.106666 40.106666v309.674667c0 22.186667-17.92 40.106667-40.106666 40.106667z"  /><path fill="currentColor" d="M404.707556 1012.849778c-22.186667 0-40.106667-17.891556-40.106667-40.106667V428.714667c0-22.186667 17.92-40.106667 40.106667-40.106667 22.186667 0 40.106667 17.92 40.106666 40.106667v544.085333c0 22.186667-17.92 40.106667-40.106666 40.106667z m249.230222 0c-22.215111 0-40.106667-17.891556-40.106667-40.106667V663.125333c0-22.186667 17.891556-40.106667 40.106667-40.106666 22.186667 0 40.106667 17.92 40.106666 40.106666v309.674667c0 22.186667-17.92 40.106667-40.106666 40.106667z m249.201778 0c-22.186667 0-40.106667-17.891556-40.106667-40.106667V428.714667c0-22.186667 17.92-40.106667 40.106667-40.106667 22.186667 0 40.106667 17.92 40.106666 40.106667v544.085333c0 22.186667-17.92 40.106667-40.106666 40.106667z"  /></svg>