<?xml version="1.0" standalone="no"?><!DOCTYPE svg PUBLIC "-//W3C//DTD SVG 1.1//EN" "http://www.w3.org/Graphics/SVG/1.1/DTD/svg11.dtd"><svg t="1596784206188" class="icon" viewBox="0 0 1024 1024" version="1.1" xmlns="http://www.w3.org/2000/svg" p-id="1499" xmlns:xlink="http://www.w3.org/1999/xlink" width="200" height="200"><defs><style type="text/css"></style></defs><path d="M693.023289 494.933333c-6.826667-4.664889-13.255111-8.305778-19.228445-12.8a18.574222 18.574222 0 0 1-9.187555-19.000889 19.427556 19.427556 0 0 1 17.521778-14.307555 90.538667 90.538667 0 0 1 66.844444 15.160889c14.592 11.093333 23.779556 27.875556 25.201778 46.136889 1.137778 12.515556 1.137778 25.088 0 37.575111-0.824889 12.913778-9.216 24.177778-21.361778 28.615111a11.747556 11.747556 0 0 1-17.720889-8.533333 98.645333 98.645333 0 0 1-1.28-15.815112c-1.28-12.174222-2.787556-24.120889-4.067555-36.295111h-2.332445c-8.533333 12.174222-16.668444 24.547556-25.201778 36.721778a655.786667 655.786667 0 0 1-106.780444 121.287111 363.008 363.008 0 0 1-167.822222 85.418667c-50.915556 9.841778-103.452444 6.826667-152.917334-8.760889a474.908444 474.908444 0 0 1-170.808888-97.365333A491.150222 491.150222 0 0 1 8.593067 547.697778a35.868444 35.868444 0 0 1-8.533334-24.746667c0-7.936 6.4-11.121778 13.255111-6.855111 3.697778 2.645333 7.054222 5.745778 10.012445 9.187556a707.441778 707.441778 0 0 0 123.875555 106.752 398.449778 398.449778 0 0 0 149.475556 62.350222 315.164444 315.164444 0 0 0 182.556444-21.333334 506.083556 506.083556 0 0 0 176.184889-130.702222c12.373333-15.786667 25.173333-31.800889 37.546667-47.388444zM325.947733 283.790222s-43.349333 98.019556-126.407111 123.847111c-17.521778 6.542222-35.612444 11.406222-54.044444 14.506667a85.418667 85.418667 0 0 1-45.255111-7.253333 73.443556 73.443556 0 0 1-44.856889-48.469334 209.834667 209.834667 0 0 1-5.973334-86.897777 160.796444 160.796444 0 0 1 28.615112-69.603556 170.837333 170.837333 0 0 1 47.416888-42.723556 732.643556 732.643556 0 0 1 134.542223-68.750222 997.632 997.632 0 0 1 227.384889-62.577778c25.628444-3.84 51.683556-4.892444 77.738666-7.253333H584.337067c42.040889-0.967111 84.053333 3.128889 125.127111 12.174222a406.784 406.784 0 0 1 223.772444 125.781334 379.022222 379.022222 0 0 1 79.018667 162.503111c22.755556 93.127111 12.401778 191.260444-29.240889 277.589333A591.075556 591.075556 0 0 1 824.948622 820.167111a807.395556 807.395556 0 0 1-249.827555 140.088889 913.066667 913.066667 0 0 1-175.530667 39.936c-43.292444 6.883556-87.324444 7.822222-130.901333 2.759111a65.564444 65.564444 0 0 1-58.510223-54.670222 298.951111 298.951111 0 0 1-5.774222-125.980445c3.015111-18.147556 7.480889-35.868444 11.747556-55.296 11.747556 4.039111 45.511111 14.307556 66.844444 19.2 7.907556 1.934222 15.815111 2.787556 24.348445 4.266667-3.413333 11.776-7.253333 23.068444-9.813334 34.417778-3.413333 14.705778-5.774222 29.44-8.533333 44.373333a27.107556 27.107556 0 0 0 0 6.001778c-0.227556 25.201778 5.973333 34.161778 32.853333 37.376 18.545778 1.706667 37.205333 1.706667 55.751111 0a603.022222 603.022222 0 0 0 252.387556-73.045333 734.151111 734.151111 0 0 0 191.146667-144.355556A471.495111 471.495111 0 0 0 918.530844 531.911111a251.335111 251.335111 0 0 0 16.64-115.939555 405.731556 405.731556 0 0 0-72.817777-199.68 277.617778 277.617778 0 0 0-190.464-103.964445c-19.000889-2.56-38.030222-2.56-57.230223-2.56h-8.533333c0.967111 5.603556 2.275556 11.178667 3.84 16.64 4.124444 13.255111 3.128889 27.591111-2.787555 40.163556-8.760889 20.280889-17.92 40.561778-28.16 60.216889-46.364444 88.177778-93.354667 176.355556-140.117334 264.561777-29.240889 55.296-59.164444 110.819556-83.057778 168.903111-0.625778 1.706667-3.413333 3.84-4.920888 3.84-29.013333-4.039111-58.083556-8.533333-87.125334-12.8a4.067556 4.067556 0 0 1-2.133333 0c49.976889-113.379556 109.568-222.293333 167.651555-332.060444l7.452445-13.653333 77.084444-143.729778 24.775111-46.108445a53.589333 53.589333 0 0 0-6.172444 0l-18.602667 3.413334A1506.076444 1506.076444 0 0 0 278.957511 188.302222a376.263111 376.263111 0 0 0-102.058667 54.670222 111.246222 111.246222 0 0 0-36.949333 47.217778 30.122667 30.122667 0 0 0 13.880889 39.253334c8.448 4.266667 18.062222 5.632 27.335111 3.868444 42.097778 2.56 128.768-37.802667 144.782222-49.550222z" fill="#FFFFFF" p-id="1500"></path></svg>