<?xml version="1.0" standalone="no"?><!DOCTYPE svg PUBLIC "-//W3C//DTD SVG 1.1//EN" "http://www.w3.org/Graphics/SVG/1.1/DTD/svg11.dtd"><svg class="icon" width="200px" height="200.00px" viewBox="0 0 1024 1024" version="1.1" xmlns="http://www.w3.org/2000/svg"><path fill="currentColor" d="M913.846329 56.888889H103.947662A105.415111 105.415111 0 0 0 0.011662 160.113778V739.84a105.415111 105.415111 0 0 0 107.690667 106.951111h132.551111l54.186667 107.662222a66.275556 66.275556 0 0 0 48.952889 37.660445h12.060444a66.275556 66.275556 0 0 0 48.184889-21.077334l142.336-124.245333h367.872a105.415111 105.415111 0 0 0 107.690667-103.168V160.085333A105.415111 105.415111 0 0 0 913.846329 56.888889z m32.369778 682.951111a30.122667 30.122667 0 0 1-32.369778 27.875556H545.974329a66.275556 66.275556 0 0 0-48.952889 21.077333l-139.320889 118.243555-51.2-100.152888a65.507556 65.507556 0 0 0-60.245333-35.413334h-138.524445a30.122667 30.122667 0 0 1-32.426666-31.630222V160.085333a30.122667 30.122667 0 0 1 32.426666-27.875555h809.870223a30.122667 30.122667 0 0 1 32.398222 27.875555l-3.783111 579.754667z"  /><path fill="currentColor" d="M765.679218 408.917333l-497.009778 5.290667a37.660444 37.660444 0 0 0 0 75.292444h497.009778a37.660444 37.660444 0 0 0 0-75.292444v-5.290667zM268.66944 348.672h225.905778c20.792889 0 37.660444-16.839111 37.660444-37.632a38.4 38.4 0 0 0-37.660444-37.660444H268.66944a37.660444 37.660444 0 0 0 0 75.292444z m497.009778 201.813333H268.66944a37.660444 37.660444 0 0 0 0 75.320889h497.009778a37.660444 37.660444 0 1 0 0-75.320889z"  /></svg>