<?xml version="1.0" standalone="no"?><!DOCTYPE svg PUBLIC "-//W3C//DTD SVG 1.1//EN" "http://www.w3.org/Graphics/SVG/1.1/DTD/svg11.dtd"><svg class="icon" width="200px" height="200.00px" viewBox="0 0 1024 1024" version="1.1" xmlns="http://www.w3.org/2000/svg"><path fill="currentColor" d="M534.698667 993.848889l-210.659556-239.928889H67.811556a38.855111 38.855111 0 0 1-38.855112-38.855111V311.096889c0-21.475556 17.408-38.855111 38.855112-38.855111h256.227555l210.659556-239.900445a61.212444 61.212444 0 0 1 104.476444 43.320889v874.894222a61.297778 61.297778 0 0 1-61.269333 61.240889c-16.213333 0-31.744-6.456889-43.207111-17.948444zM106.609778 676.295111h233.528889c10.268444 0 20.138667 4.096 27.420444 11.377778l193.991111 223.288889V115.228444l-193.991111 223.288889c-7.281778 7.253333-17.152 11.349333-27.448889 11.349334H106.666667v326.4zM835.128889 825.315556l-33.962667-62.577778a283.505778 283.505778 0 0 0 3.328-496.64l34.787556-62.065778a354.673778 354.673778 0 0 1-4.152889 621.198222v0.085334z"  /><path fill="currentColor" d="M747.036444 715.264l-36.494222-61.070222a162.474667 162.474667 0 0 0 79.815111-140.600889 163.015111 163.015111 0 0 0-61.354666-127.744 164.721778 164.721778 0 0 0-18.488889-12.885333l36.522666-61.041778a234.865778 234.865778 0 0 1 0 403.342222z"  /></svg>