<?xml version="1.0" standalone="no"?><!DOCTYPE svg PUBLIC "-//W3C//DTD SVG 1.1//EN" "http://www.w3.org/Graphics/SVG/1.1/DTD/svg11.dtd"><svg class="icon" width="200px" height="199.42px" viewBox="0 0 1027 1024" version="1.1" xmlns="http://www.w3.org/2000/svg"><path fill="currentColor" d="M991.004444 980.622222c-20.224 0-36.551111-16.526222-36.551111-36.579555 0-117.816889-95.857778-213.902222-213.902222-213.902223-118.044444 0-213.902222 95.886222-213.902222 213.902223 0 20.224-16.497778 36.579556-36.551111 36.579555-20.195556 0-36.551111-16.526222-36.551111-36.579555 0-106.951111 59.107556-204.344889 154.197333-254.321778l6.627556-3.498667-5.660445-4.835555a203.605333 203.605333 0 0 1-71.736889-154.794667c0-112.213333 91.392-203.605333 203.576889-203.605333s203.576889 91.392 203.576889 203.605333a202.951111 202.951111 0 0 1-71.736889 154.766222l-5.632 4.864 6.599111 3.498667a286.805333 286.805333 0 0 1 154.197334 254.321778 36.522667 36.522667 0 0 1-36.551112 36.579555z m-250.453333-584.533333a130.417778 130.417778 0 0 0-130.275555 130.275555c0 71.964444 58.538667 130.275556 130.275555 130.275556 71.964444 0 130.275556-58.510222 130.275556-130.275556 0-71.736889-58.311111-130.275556-130.275556-130.275555z"  /><path fill="currentColor" d="M148.622222 980.622222A120.234667 120.234667 0 0 1 28.444444 860.444444V177.436444a120.234667 120.234667 0 0 1 120.177778-120.149333h751.331556a120.234667 120.234667 0 0 1 120.149333 120.149333v167.025778c0 20.224-16.497778 36.579556-36.551111 36.579556-20.195556 0-36.551111-16.554667-36.551111-36.579556V177.436444c0-25.856-20.992-46.848-46.848-46.848H148.622222c-25.884444 0-46.876444 20.992-46.876444 46.848V860.444444c0 25.884444 20.992 46.848 46.876444 46.848h158.264889c20.224 0 36.551111 16.554667 36.551111 36.579556 0 20.195556-16.497778 36.551111-36.551111 36.551111H148.622222v0.199111z"  /><path fill="currentColor" d="M226.787556 367.672889c-20.224 0-36.551111-16.526222-36.551112-36.551111 0-20.224 16.497778-36.579556 36.551112-36.579556h184.32c20.224 0 36.551111 16.554667 36.551111 36.579556 0 20.195556-16.497778 36.551111-36.551111 36.551111h-184.32z m0 187.818667c-20.224 0-36.551111-16.497778-36.551112-36.551112 0-20.195556 16.497778-36.551111 36.551112-36.551111h163.527111c20.195556 0 36.551111 16.526222 36.551111 36.551111 0 20.224-16.526222 36.551111-36.551111 36.551112h-163.555556z m0 188.017777c-20.224 0-36.551111-16.497778-36.551112-36.551111 0-20.195556 16.497778-36.551111 36.551112-36.551111h121.713777c20.195556 0 36.551111 16.526222 36.551111 36.551111 0 20.224-16.497778 36.579556-36.551111 36.579556h-121.742222z"  /></svg>