<?xml version="1.0" standalone="no"?><!DOCTYPE svg PUBLIC "-//W3C//DTD SVG 1.1//EN" "http://www.w3.org/Graphics/SVG/1.1/DTD/svg11.dtd"><svg class="icon" width="200px" height="200.00px" viewBox="0 0 1024 1024" version="1.1" xmlns="http://www.w3.org/2000/svg"><path fill="currentColor" d="M512 0C230.030222 0 0 228.778667 0 512c0 281.969778 228.778667 512 512 512 281.969778 0 512-228.778667 512-512 0-281.969778-228.892444-512-512-512z m0 951.580444C269.141333 951.580444 72.419556 754.858667 72.419556 512S269.141333 72.419556 512 72.419556 951.580444 269.141333 951.580444 512 754.858667 951.580444 512 951.580444z m262.058667-207.246222c-21.048889-80.554667-77.653333-143.559111-150.072889-175.701333a196.352 196.352 0 0 0 91.050666-165.745778c0-108.572444-88.177778-196.750222-196.750222-196.750222a196.892444 196.892444 0 0 0-196.750222 196.750222 194.872889 194.872889 0 0 0 91.050667 165.745778 263.793778 263.793778 0 0 0-150.641778 175.701333 35.100444 35.100444 0 0 0 25.031111 42.666667c2.986667 0.568889 5.859556 1.137778 8.817778 1.137778 15.786667 0 29.752889-10.524444 33.848889-26.311111a194.275556 194.275556 0 0 1 187.960889-145.379556 194.531556 194.531556 0 0 1 188.16 145.351111c4.693333 18.659556 23.893333 29.752889 42.666666 25.088 19.228444-4.579556 30.890667-23.893333 25.628445-42.552889z m-255.658667-468.195555a126.549333 126.549333 0 0 1 126.634667 126.634666 126.549333 126.549333 0 0 1-126.634667 126.606223 126.549333 126.549333 0 0 1-126.634667-126.606223 126.549333 126.549333 0 0 1 126.634667-126.634666z"  /></svg>