<?xml version="1.0" standalone="no"?><!DOCTYPE svg PUBLIC "-//W3C//DTD SVG 1.1//EN" "http://www.w3.org/Graphics/SVG/1.1/DTD/svg11.dtd"><svg class="icon" width="200px" height="200.00px" viewBox="0 0 1024 1024" version="1.1" xmlns="http://www.w3.org/2000/svg"><path fill="currentColor" d="M870.20059 149.333493A506.111578 506.111578 0 0 0 510.549335 0.000284 510.008464 510.008464 0 0 0 149.674969 149.333493 514.189794 514.189794 0 0 0 0.483982 511.999858c0 141.397216 57.002619 269.397109 149.190987 362.069031A508.017354 508.017354 0 0 0 510.577779 1023.999431c140.686105 0 268.060221-57.287063 359.651256-149.930542A511.686685 511.686685 0 0 0 1019.391577 511.999858c0-141.397216-57.002619-269.397109-149.190987-362.666365zM340.736143 113.379746a377.599685 377.599685 0 0 0-33.962639 53.0204c-4.266663 7.310216-7.907549 15.24621-12.145767 23.779536-14.563543-7.935993-27.875532-17.066652-41.841743-26.225756a434.204083 434.204083 0 0 1 87.950149-50.57418zM205.482922 205.369002l10.29688-10.353769c18.801762 14.023099 38.826634 26.823089 60.046173 38.399968-27.875532 72.533273-45.482629 159.686978-47.900405 254.179344H79.331916A431.217418 431.217418 0 0 1 205.482922 205.369002z m0 613.204823a432.753417 432.753417 0 0 1-126.151006-282.822876h148.593654c2.417776 93.866588 19.996428 181.617626 47.900405 254.776677a434.061861 434.061861 0 0 0-60.017728 37.77419l-10.325325-9.727991z m47.303072 40.817743c13.340433-9.756436 27.306644-18.289763 41.841743-26.197311 3.640886 7.907549 7.879105 15.843542 12.145767 23.779536 10.894213 18.887095 21.816871 36.551081 33.962639 52.394623a404.877885 404.877885 0 0 1-87.950149-49.976848z m233.50025 84.73593a563.96753 563.96753 0 0 1-47.303072-4.892441c-34.588416-21.333316-65.507501-57.287063-91.591035-104.81769a368.412137 368.412137 0 0 1-10.922657-21.959093c5.461329-2.417776 11.51999-4.863996 16.981319-7.310216 41.870187-15.24621 86.129706-24.974201 132.238112-26.823089v165.802529h0.568888z m0-212.735823a503.921358 503.921358 0 0 0-148.593654 30.492419c-6.684439 2.417776-13.368878 4.863996-19.399095 7.310216-25.486201-67.0435-40.647077-146.886989-43.064853-233.443361h211.057602v195.640726z m0-243.199797H275.825975c2.417776-86.556372 17.578652-166.399861 43.064853-234.040694 6.058662 3.043553 12.7431 4.863996 19.399095 7.907549 46.705739 17.066652 97.052364 28.046199 148.593653 30.492419v195.640726h-0.597332z m0-243.199798a429.42542 429.42542 0 0 1-132.209668-27.420421c-6.087106-2.44622-11.51999-4.266663-16.981319-6.712884 3.640886-7.310216 7.281772-14.620432 10.894213-21.333315 26.083534-46.933294 57.031064-83.484375 91.591035-104.817691 15.160876-2.44622 30.94753-4.266663 47.303071-4.89244v165.176751h-0.597332z m328.703726-39.623078a435.08586 435.08586 0 0 1 125.553673 282.822876h-148.593654c-2.417776-94.463921-19.399095-181.617626-47.303072-254.1509a625.891034 625.891034 0 0 0 60.017728-38.399968c3.071997 3.043553 6.684439 6.087106 10.325325 9.727992z m-47.900405-41.443521c-13.368878 9.756436-26.680867 18.289763-41.24441 26.225756-4.266663-8.533326-7.879105-16.46932-12.117323-23.779536a377.599685 377.599685 0 0 0-33.962638-53.0204 446.719628 446.719628 0 0 1 87.324371 50.57418z m-233.50025-84.707485c16.383986 0.597333 32.142195 2.417776 47.303072 4.863996 33.962638 21.333316 65.507501 57.287063 90.965258 104.846135 3.640886 6.712883 7.907549 14.023099 11.548434 21.333316-6.087106 2.44622-11.548435 4.863996-17.607096 6.712883a436.963191 436.963191 0 0 1-132.209668 27.420421V79.246441z m0 212.707379c51.54129-2.417776 101.262138-13.397322 148.593654-30.463975 6.655994-3.043553 13.340433-4.89244 19.399095-7.935993 25.486201 67.669277 40.647077 147.512766 43.662186 234.069138H533.61776v-195.66917z m0 243.825574H745.24425c-3.015109 86.556372-18.204429 166.399861-43.662186 233.443361a363.007697 363.007697 0 0 0-19.996428-7.310216c-46.705739-17.066652-96.426586-28.046199-147.996321-30.492419v-195.640726z m47.900405 403.484108c-15.160876 2.44622-31.516418 3.66933-47.303072 4.892441v-165.802529c46.079962 2.44622 90.367925 11.576879 132.238112 26.823089 5.432884 2.44622 11.51999 4.89244 16.981319 7.310216l-10.922657 21.959093c-26.083534 47.530627-57.031064 83.484375-90.993702 104.81769z m97.649696-29.240864c12.145768-15.843542 23.665758-33.535972 33.962639-52.423068 4.266663-8.533326 7.879105-15.843542 12.145767-23.779535 14.535099 7.935993 27.875532 16.46932 41.24441 26.225756a439.750745 439.750745 0 0 1-87.324371 49.976847z m135.850554-91.420368l-10.296881 10.353769a520.760455 520.760455 0 0 0-60.046172-37.802635c27.875532-73.130606 44.885296-160.910088 47.303072-254.776677h148.593654a434.915193 434.915193 0 0 1-125.553673 282.225543z"  /></svg>