<?xml version="1.0" standalone="no"?><!DOCTYPE svg PUBLIC "-//W3C//DTD SVG 1.1//EN" "http://www.w3.org/Graphics/SVG/1.1/DTD/svg11.dtd"><svg class="icon" width="200px" height="200.00px" viewBox="0 0 1024 1024" version="1.1" xmlns="http://www.w3.org/2000/svg"><path fill="currentColor" d="M506.339556 201.614222c9.415111 32 39.537778 52.707556 71.537777 52.707556h304.924445a75.52 75.52 0 0 0-75.264-75.292445H498.830222l7.509334 22.584889z m-30.094223-97.848889H807.537778c82.801778 0 150.584889 67.726222 150.584889 150.556445V284.444444c35.754667 28.245333 60.216889 71.537778 60.216889 120.462223v423.338666c0 82.801778-67.754667 150.584889-150.584889 150.584889H150.584889C67.754667 978.830222 0 911.047111 0 828.245333V179.029333C0 96.199111 67.754667 28.444444 150.584889 28.444444h193.877333c54.613333 0 105.415111 30.122667 131.783111 75.292445z m-131.783111 0H150.584889a75.52 75.52 0 0 0-75.292445 75.264v649.216a75.52 75.52 0 0 0 75.292445 75.292445h715.292444a75.52 75.52 0 0 0 75.292445-75.292445V404.906667a75.52 75.52 0 0 0-75.292445-75.292445H581.688889c-65.905778 0-124.245333-43.292444-143.075556-105.415111L416 156.444444c-9.386667-32-37.660444-52.707556-71.537778-52.707555z m-118.584889 611.555556H527.075556c20.707556 0 37.660444 16.924444 37.660444 37.632s-16.952889 37.632-37.660444 37.632H225.877333a37.745778 37.745778 0 0 1-37.632-37.632c0-20.707556 16.924444-37.660444 37.632-37.660445z"  /></svg>