<?xml version="1.0" standalone="no"?><!DOCTYPE svg PUBLIC "-//W3C//DTD SVG 1.1//EN" "http://www.w3.org/Graphics/SVG/1.1/DTD/svg11.dtd"><svg class="icon" width="200px" height="200.00px" viewBox="0 0 1024 1024" version="1.1" xmlns="http://www.w3.org/2000/svg"><path fill="currentColor" d="M662.584889 0H370.517333a73.016889 73.016889 0 0 0-73.016889 73.016889H134.912a85.589333 85.589333 0 0 0-85.418667 85.333333l-0.768 778.723556a85.333333 85.333333 0 0 0 85.532445 85.418666l272.867555-0.597333a36.551111 36.551111 0 0 0 36.494223-36.551111c0-20.138667-16.327111-36.465778-36.494223-36.465778H122.908444L122.595556 145.806222h174.933333a73.016889 73.016889 0 0 0 73.045333 73.244445h291.84a73.244444 73.244444 0 0 0 73.216-73.244445l174.478222 0.085334v401.834666a36.494222 36.494222 0 0 0 73.016889 0V158.208c0.056889-47.132444-38.144-85.333333-85.276444-85.333333 0 0-0.056889 0-0.056889 0.056889l-162.161778 0.142222A73.102222 73.102222 0 0 0 662.556444 0z m0.056889 145.806222h-292.124445V73.073778h292.067556v72.732444h0.056889zM334.648889 510.094222l218.168889 0.540445a36.864 36.864 0 0 1 36.750222 36.835555c0 20.309333-16.469333 36.778667-36.778667 36.778667h-218.168889c-20.48 0-37.12-16.611556-37.12-37.12a37.034667 37.034667 0 0 1 37.148445-37.034667z m-0.426667-145.180444h364.714667a36.721778 36.721778 0 1 1 0 73.443555H334.222222a36.721778 36.721778 0 1 1 0-73.443555z m474.453334 438.442666l109.596444-0.284444a36.352 36.352 0 0 1 36.408889 36.352 36.408889 36.408889 0 0 1-36.408889 36.408889H808.675556v109.397333a36.494222 36.494222 0 1 1-73.016889 0v-109.368889H626.062222a36.408889 36.408889 0 1 1 0-72.874666h109.596445v-109.368889a36.494222 36.494222 0 0 1 73.016889 0v109.738666z m-473.998223-146.403555l72.163556-0.284445a36.608 36.608 0 0 1 36.778667 36.608c0 20.366222-16.412444 36.920889-36.778667 37.091556l-72.163556 0.597333a36.778667 36.778667 0 0 1-37.091555-36.750222 37.262222 37.262222 0 0 1 37.091555-37.262222z"  /></svg>