<?xml version="1.0" standalone="no"?><!DOCTYPE svg PUBLIC "-//W3C//DTD SVG 1.1//EN" "http://www.w3.org/Graphics/SVG/1.1/DTD/svg11.dtd"><svg class="icon" width="200px" height="198.83px" viewBox="0 0 1030 1024" version="1.1" xmlns="http://www.w3.org/2000/svg"><path fill="currentColor" d="M870.769778 608.312889c0 20.935111-1.905778 43.804444-5.688889 64.739555 100.920889 15.246222 150.556444 100.920889 150.556444 205.653334 0 20.935111-17.152 38.087111-38.115555 38.087111a38.172444 38.172444 0 0 1-38.058667-38.115556c0-70.428444-24.860444-127.544889-93.411555-133.262222-57.144889 161.848889-154.481778 278.016-337.294223 278.016-180.906667 0-278.215111-114.261333-337.265777-276.110222-62.862222 11.406222-81.976889 66.645333-81.976889 131.384889 0 20.935111-17.152 38.087111-38.115556 38.087111A38.172444 38.172444 0 0 1 13.368889 878.648889c0-100.892444 43.918222-186.595556 139.093333-205.653333-3.783111-20.906667-5.688889-43.776-5.688889-66.616889v-96.085334C47.729778 495.104 0 407.495111 0 304.64c0-20.935111 17.123556-38.087111 38.115556-38.087111 20.906667 0 38.058667 17.152 38.058666 38.087111 0 62.833778 13.454222 114.232889 70.542222 129.479111v-22.840889c0-78.08 52.935111-131.413333 151.950223-161.848889C306.289778 110.449778 383.089778 0 525.909333 0c146.631111 0 207.786667 116.167111 209.664 260.892444 80.014222 32.341333 135.196444 81.834667 135.196445 150.414223v26.652444c64.768-11.434667 83.911111-64.768 83.911111-131.413333 0-20.935111 17.152-38.058667 38.115555-38.058667 20.935111 0 38.058667 17.123556 38.058667 38.087111 0 106.638222-55.324444 196.124444-160.085333 207.559111v94.151111zM521.102222 74.24c-93.297778 0-122.823111 66.673778-139.946666 156.16 55.210667-11.434667 80.896-15.246222 139.946666-15.246222 72.362667 0 71.68 5.745778 134.513778 20.963555-13.340444-91.392-39.310222-161.848889-134.513778-161.848889z m273.521778 534.072889v-200.817778c0-41.898667-59.022222-68.551111-93.297778-81.891555-64.739556-22.840889-99.271111-36.181333-192.568889-36.181334-188.501333 0-285.866667 55.239111-285.866666 119.978667v198.912c0 188.501333 97.365333 340.849778 285.866666 340.849778 188.501333 0 285.866667-152.348444 285.866667-340.849778z m-286.663111-0.426667c-21.134222-7.054222-36.977778-24.661333-42.268445-47.587555l-8.817777-112.753778A46.364444 46.364444 0 0 1 502.670222 398.222222h7.054222c28.188444 0 47.587556 22.897778 45.795556 49.322667l-8.760889 112.753778c-1.792 22.926222-17.635556 42.325333-38.798222 47.587555zM455.111111 697.770667a52.849778 52.849778 0 1 1 105.699556 0 52.849778 52.849778 0 0 1-105.699556 0z"  /></svg>