<?xml version="1.0" standalone="no"?><!DOCTYPE svg PUBLIC "-//W3C//DTD SVG 1.1//EN" "http://www.w3.org/Graphics/SVG/1.1/DTD/svg11.dtd"><svg class="icon" width="200px" height="200.00px" viewBox="0 0 1024 1024" version="1.1" xmlns="http://www.w3.org/2000/svg"><path fill="currentColor" d="M457.386667 86.072889L90.225778 296.732444a36.352 36.352 0 0 0 0 60.302223l367.160889 211.057777c25.031111 17.066667 58.026667 17.066667 83.143111 0.028445l367.672889-211.057778a36.408889 36.408889 0 0 0 0-60.330667l-367.786667-210.688a74.069333 74.069333 0 0 0-82.972444 0.028445zM949.674667 236.373333a109.112889 109.112889 0 0 1 0.085333 181.020445L581.973333 628.451556a148.024889 148.024889 0 0 1-166.229333-0.056889L48.64 417.336889a109.112889 109.112889 0 0 1 0.085333-180.935111L415.914667 25.742222a148.024889 148.024889 0 0 1 165.973333 0l367.758222 210.602667z"  /><path fill="currentColor" d="M990.862222 525.169778a36.380444 36.380444 0 0 1-9.187555 50.858666l-398.677334 236.231112a148.024889 148.024889 0 0 1-168.106666 0L16.128 576a36.380444 36.380444 0 0 1-9.159111-50.858667 36.977778 36.977778 0 0 1 51.2-9.102222l398.705778 236.202667c25.315556 17.436444 58.766222 17.436444 84.053333 0l398.705778-236.231111a36.977778 36.977778 0 0 1 51.2 9.130666z"  /><path fill="currentColor" d="M990.919111 707.896889c11.548444 16.611556 7.395556 39.367111-9.329778 50.830222l-398.791111 234.496a148.024889 148.024889 0 0 1-167.224889 0.056889L16.270222 758.755556a36.380444 36.380444 0 0 1-9.386666-50.830223 36.977778 36.977778 0 0 1 51.171555-9.329777l399.303111 234.552888a74.040889 74.040889 0 0 0 83.626667 0l398.762667-234.524444a36.920889 36.920889 0 0 1 51.171555 9.272889z"  /></svg>