<?xml version="1.0" standalone="no"?><!DOCTYPE svg PUBLIC "-//W3C//DTD SVG 1.1//EN" "http://www.w3.org/Graphics/SVG/1.1/DTD/svg11.dtd"><svg class="icon" width="200px" height="200.00px" viewBox="0 0 1024 1024" version="1.1" xmlns="http://www.w3.org/2000/svg"><path fill="currentColor" d="M685.340444 951.239111h-341.048888c-20.280889 0-36.408889 16.384-36.408889 36.380445S324.323556 1024 344.32 1024h341.048889c20.280889 0 36.408889-16.384 36.408889-36.408889 0-19.968-16.128-36.352-36.408889-36.352z m243.285334-181.077333l-66.929778-117.76c-19.171556-46.648889-82.773333-38.599111-75.264 5.831111 0.568889 1.649778 1.137778 3.043556 1.934222 4.721778l82.204445 144.981333c0.853333 1.365333 1.706667 2.759111 2.503111 3.868444H155.420444l84.423112-148.565333c3.072-5.290667 4.465778-11.121778 4.465777-17.237333v-211.057778c0-101.376 78.876444-206.648889 184.120889-244.963556 26.112-8.334222 45.568-12.231111 57.230222-13.909333 13.312-1.934222 38.599111-2.218667 56.376889 0 17.208889 2.247111 37.489778 7.224889 61.639111 15.274667 102.769778 38.883556 180.252444 143.587556 180.252445 243.569778v113.607111c1.678222 32.227556 63.886222 35.84 69.148444 0V434.915556c0-61.639111-22.186667-126.634667-62.748444-182.727112a363.178667 363.178667 0 0 0-131.640889-111.104C657.009778 63.032889 593.408 0 515.100444 0c-78.051556 0-141.368889 62.492444-143.587555 139.975111a360.903111 360.903111 0 0 0-131.925333 110.250667c-41.386667 56.661333-63.886222 121.941333-63.886223 184.433778v201.898666l-81.635555 143.872c-11.662222 20.536889-11.662222 46.08 0.284444 66.645334a67.185778 67.185778 0 0 0 57.742222 33.336888H878.364444a66.958222 66.958222 0 0 0 66.929778-66.929777 67.413333 67.413333 0 0 0-16.668444-43.320889zM514.844444 64.995556a79.075556 79.075556 0 0 1 74.154667 52.48 407.950222 407.950222 0 0 0-148.024889-0.568889 78.876444 78.876444 0 0 1 73.870222-51.911111z"  /></svg>