<?xml version="1.0" standalone="no"?><!DOCTYPE svg PUBLIC "-//W3C//DTD SVG 1.1//EN" "http://www.w3.org/Graphics/SVG/1.1/DTD/svg11.dtd"><svg class="icon" width="200px" height="200.00px" viewBox="0 0 1024 1024" version="1.1" xmlns="http://www.w3.org/2000/svg"><path fill="currentColor" d="M764.757333 1015.978667c-16.128 0-34.360889-4.664889-51.370666-13.169778l-201.244445-100.636445-202.439111 100.352a108.003556 108.003556 0 0 1-51.000889 12.686223c-23.409778 0-46.222222-7.395556-65.137778-21.134223l-0.568888-0.426666c-33.792-25.685333-50.830222-68.579556-43.434667-109.226667l0.085333-0.455111 41.415111-213.816889L34.133333 523.093333l-0.455111-0.455111a116.792889 116.792889 0 0 1-29.525333-112.725333l0.426667-1.365333c13.482667-41.813333 47.672889-71.168 89.457777-76.8l219.875556-39.907556 99.271111-201.187556C432.156444 52.821333 470.983111 28.444444 512.227556 28.444444a110.648889 110.648889 0 0 1 59.448888 17.521778c17.749333 11.093333 31.744 27.249778 40.135112 46.392889l98.161777 199.338667 220.615111 38.684444a109.596444 109.596444 0 0 1 88.035556 76.970667 111.729778 111.729778 0 0 1-27.448889 113.436444l-0.853333 0.796445-157.582222 148.622222 39.793777 214.471111a110.791111 110.791111 0 0 1-42.837333 108.572445c-17.464889 14.478222-40.988444 22.727111-64.910222 22.727111z m-6.257777-77.795556c7.054222 3.328 12.401778 4.067556 13.880888 4.067556a19.683556 19.683556 0 0 0 12.231112-3.896889l1.223111-0.938667c8.96-6.712889 13.198222-16.668444 11.320889-26.595555l-0.028445-0.142223-49.607111-267.548444 17.351111-17.322667 179.968-168.846222a27.278222 27.278222 0 0 0 6.627556-28.017778l-0.369778-1.080889-0.284445-1.080889a24.263111 24.263111 0 0 0-19.427555-16.952888l-1.564445-0.256-272.241777-47.303112-121.912889-248.064-0.426667-1.024c-3.157333-7.395556-13.482667-13.624889-22.528-13.624888-9.585778 0-18.773333 6.144-23.409778 15.587555l-0.113777 0.227556-122.368 246.272-273.493334 49.692444c-12.8 1.649778-18.716444 10.723556-21.447111 18.403556-2.360889 9.756444 0.853333 22.016 7.68 29.155555l199.879111 185.969778-8.078222 24.206222-46.592 242.062222c-1.792 9.159111 2.759111 20.053333 10.894222 25.969778l0.227556 0.170667a24.832 24.832 0 0 0 14.705778 4.664889c4.181333 0 8.248889-0.995556 11.719111-2.901334l1.365333-0.682666 248.576-123.249778 246.272 123.079111z"  /></svg>