<?xml version="1.0" standalone="no"?><!DOCTYPE svg PUBLIC "-//W3C//DTD SVG 1.1//EN" "http://www.w3.org/Graphics/SVG/1.1/DTD/svg11.dtd"><svg class="icon" width="200px" height="200.00px" viewBox="0 0 1024 1024" version="1.1" xmlns="http://www.w3.org/2000/svg"><path fill="currentColor" d="M313.059556 28.615111c22.670222 0 37.774222 15.217778 37.774222 37.973333v891.022223c0 22.755556-15.075556 37.944889-37.774222 37.944889-22.670222 0-37.774222-15.189333-37.774223-37.944889V66.503111c0-22.755556 15.104-37.888 37.774223-37.888z m398.222222 0c22.670222 0 37.774222 15.217778 37.774222 37.973333v891.022223c0 22.755556-15.075556 37.944889-37.774222 37.944889-22.670222 0-37.774222-15.189333-37.774222-37.944889V66.503111c0-22.755556 15.104-37.888 37.774222-37.888z"  /><path fill="currentColor" d="M995.384889 682.496c0 22.670222-15.217778 37.774222-37.973333 37.774222H66.474667c-22.755556 0-37.944889-15.104-37.944889-37.774222s15.217778-37.774222 37.973333-37.774222h891.022222c22.755556 0 37.831111 15.075556 37.831111 37.774222z m0-369.777778c0 22.670222-15.217778 37.774222-37.973333 37.774222H66.474667c-22.755556 0-37.944889-15.104-37.944889-37.774222s15.217778-37.774222 37.973333-37.774222h891.022222c22.755556 0 37.831111 15.075556 37.831111 37.774222z"  /></svg>