<?xml version="1.0" standalone="no"?><!DOCTYPE svg PUBLIC "-//W3C//DTD SVG 1.1//EN" "http://www.w3.org/Graphics/SVG/1.1/DTD/svg11.dtd"><svg class="icon" width="200px" height="200.00px" viewBox="0 0 1024 1024" version="1.1" xmlns="http://www.w3.org/2000/svg"><path fill="currentColor" d="M1019.363556 827.192889s-100.892444 20.195556-202.865778 41.130667l-136.106667 151.580444-146.119111-249.457778c-8.021333 0-16.412444 1.223111-24.917333 1.223111-8.476444 0-16.412444-0.796444-24.888889-1.194666L338.488889 1019.904l-136.106667-151.608889c-67.384889-13.824-134.769778-27.534222-202.183111-41.102222l158.549333-271.160889a377.941333 377.941333 0 0 1-40.049777-169.528889C120.803556 171.576889 295.736889-1.024 509.610667 0.853333c213.959111-2.104889 389.12 170.467556 391.338666 385.479111 0 58.88-13.710222 116.935111-40.021333 169.528889l158.748444 271.075556-0.312888 0.284444z m-331.377778 77.169778s48.839111-46.506667 94.947555-90.851556l130.986667-37.404444-92.444444-157.468445a391.025778 391.025778 0 0 1-217.799112 141.852445l84.309334 143.786666v0.085334z m-582.542222-128.739556L236.430222 813.511111a15047.224889 15047.224889 0 0 0 94.805334 91.164445l84.366222-144.184889a392.135111 392.135111 0 0 1-217.998222-141.852445l-92.16 157.212445v-0.227556zM509.610667 64.256C334.563556 64.796444 193.052444 207.729778 193.422222 383.630222c0.369778 175.900444 142.506667 318.236444 317.525334 318.037334 175.018667-0.199111 316.785778-142.876444 316.757333-318.776889C827.392 206.620444 684.942222 64 509.610667 64.256z m0 541.838222c-122.339556-0.625778-221.070222-100.693333-220.672-223.630222 0.426667-122.936889 99.84-222.350222 222.151111-222.151111 122.339556 0.227556 221.411556 99.953778 221.411555 222.890667a224 224 0 0 1-65.507555 157.838222 221.781333 221.781333 0 0 1-157.383111 65.052444z m0-382.208c-87.409778 0.455111-157.923556 71.936-157.639111 159.744 0.284444 87.836444 71.253333 158.833778 158.634666 158.72 87.409778-0.113778 158.208-71.310222 158.236445-159.146666a159.943111 159.943111 0 0 0-46.762667-112.839112 158.378667 158.378667 0 0 0-112.469333-46.478222z"  /></svg>