<?xml version="1.0" standalone="no"?><!DOCTYPE svg PUBLIC "-//W3C//DTD SVG 1.1//EN" "http://www.w3.org/Graphics/SVG/1.1/DTD/svg11.dtd"><svg class="icon" width="200px" height="200.00px" viewBox="0 0 1024 1024" version="1.1" xmlns="http://www.w3.org/2000/svg"><path fill="currentColor" d="M149.333333 97.507556A51.797333 51.797333 0 0 0 97.507556 149.333333v207.217778c0 28.615111 23.210667 51.825778 51.825777 51.825778h207.217778a51.797333 51.797333 0 0 0 51.825778-51.825778V149.333333a51.797333 51.797333 0 0 0-51.825778-51.825777H149.333333zM132.067556 28.444444h241.777777a103.623111 103.623111 0 0 1 103.594667 103.623112v241.777777a103.623111 103.623111 0 0 1-103.623111 103.594667h-241.777778A103.623111 103.623111 0 0 1 28.444444 373.816889v-241.777778A103.623111 103.623111 0 0 1 132.067556 28.444444z m0 587.150223c-19.057778 0-34.56 15.473778-34.56 34.531555v241.777778c0 19.057778 15.473778 34.531556 34.56 34.531556h241.777777c19.057778 0 34.531556-15.473778 34.531556-34.531556v-241.777778c0-19.057778-15.473778-34.531556-34.56-34.531555h-241.777778z m0-69.091556h241.777777a103.623111 103.623111 0 0 1 103.594667 103.623111v241.777778a103.623111 103.623111 0 0 1-103.623111 103.594667h-241.777778A103.623111 103.623111 0 0 1 28.444444 891.904v-241.777778a103.623111 103.623111 0 0 1 103.623112-103.623111zM650.126222 97.507556c-19.057778 0-34.531556 15.473778-34.531555 34.56v241.777777c0 19.057778 15.473778 34.531556 34.531555 34.531556h241.777778c19.057778 0 34.531556-15.473778 34.531556-34.56v-241.777778c0-19.057778-15.473778-34.531556-34.531556-34.531555h-241.777778z m0-69.063112h241.777778a103.623111 103.623111 0 0 1 103.594667 103.623112v241.777777a103.623111 103.623111 0 0 1-103.594667 103.594667h-241.777778a103.623111 103.623111 0 0 1-103.623111-103.623111v-241.777778A103.623111 103.623111 0 0 1 650.126222 28.444444z m0 587.150223c-19.057778 0-34.531556 15.473778-34.531555 34.531555v241.777778c0 19.057778 15.473778 34.531556 34.531555 34.531556h241.777778c19.057778 0 34.531556-15.473778 34.531556-34.531556v-241.777778c0-19.057778-15.473778-34.531556-34.531556-34.531555h-241.777778z m0-69.091556h241.777778a103.623111 103.623111 0 0 1 103.594667 103.623111v241.777778a103.623111 103.623111 0 0 1-103.594667 103.594667h-241.777778a103.623111 103.623111 0 0 1-103.594666-103.594667v-241.777778a103.623111 103.623111 0 0 1 103.594666-103.623111z"  /></svg>