<?xml version="1.0" standalone="no"?><!DOCTYPE svg PUBLIC "-//W3C//DTD SVG 1.1//EN" "http://www.w3.org/Graphics/SVG/1.1/DTD/svg11.dtd"><svg class="icon" width="200px" height="200.00px" viewBox="0 0 1024 1024" version="1.1" xmlns="http://www.w3.org/2000/svg"><path fill="currentColor" d="M879.872 42.666667H144.128A143.985778 143.985778 0 0 0 0 186.567111v645.404445a144.014222 144.014222 0 0 0 144.128 144.014222h735.744c79.644444 0 144.128-64.483556 144.128-143.985778V186.567111A143.928889 143.928889 0 0 0 879.872 42.666667zM663.608889 430.193778L952.035556 208.782222V831.431111L663.608889 430.193778z m266.183111-295.196445L506.311111 472.917333 94.947556 134.997333l-0.426667-0.199111a71.708444 71.708444 0 0 1 49.607111-20.110222h735.744c19.456 0 36.977778 7.850667 49.92 20.309333zM71.964444 831.459556V208.696889l288.938667 228.465778L71.964444 831.459556z m72.135112 72.476444c-11.690667 0-22.328889-3.413333-32.113778-8.305778L417.450667 481.848889 483.555556 546.816c12.913778 10.24 30.776889 10.353778 43.889777 0.284444l78.990223-73.045333L911.786667 895.715556a70.542222 70.542222 0 0 1-31.914667 8.248888H144.128z"  /></svg>