<?xml version="1.0" standalone="no"?><!DOCTYPE svg PUBLIC "-//W3C//DTD SVG 1.1//EN" "http://www.w3.org/Graphics/SVG/1.1/DTD/svg11.dtd"><svg class="icon" width="200px" height="200.00px" viewBox="0 0 1024 1024" version="1.1" xmlns="http://www.w3.org/2000/svg"><path fill="currentColor" d="M916.195556 756.679111v140.515556H76.885333V220.615111H916.195556v134.343111c0 19.427556 15.587556 32.170667 34.986666 32.170667 19.399111 0 32.142222-12.743111 32.142222-32.142222V227.271111c0-38.343111-32.142222-70.513778-70.428444-70.513778H861.866667c-19.399111-70.485333-83.2-127.715556-159.744-127.715555H166.200889C76.885333 29.070222 0.284444 105.699556 0.284444 195.128889v702.065778c0 38.314667 32.142222 70.485333 70.428445 70.485333h842.154667c38.286222 0 70.456889-32.142222 70.456888-70.485333v-140.487111c-0.512-12.771556-13.283556-32.142222-32.142222-32.142223-19.427556 0-35.015111 12.743111-35.015111 32.142223zM166.200889 99.043556h535.893333c38.286222 0 70.456889 25.571556 89.315556 57.742222H83.541333c12.743111-31.658667 44.373333-57.742222 82.688-57.742222z m535.893333 462.677333a32.142222 32.142222 0 1 0 32.170667-32.199111c-17.863111 0-32.142222 14.819556-32.142222 32.199111z m-226.588444 49.038222a25.543111 25.543111 0 0 1 27.022222 23.495111 25.571556 25.571556 0 0 1-23.466667 27.079111h-110.762666v66.389334c0 14.819556-11.719111 26.567111-26.538667 26.567111a26.368 26.368 0 0 1-26.538667-26.567111V661.333333H208.042667a25.543111 25.543111 0 0 1-27.050667-23.495111 25.571556 25.571556 0 0 1 23.466667-27.079111H315.733333V578.56H208.042667a25.571556 25.571556 0 0 1-27.050667-23.495111 25.571556 25.571556 0 0 1 23.466667-27.050667H281.031111l-74.524444-126.179555a24.433778 24.433778 0 0 1 8.675555-33.735111c0.512 0 0.512-0.512 1.024-0.512a26.368 26.368 0 0 1 35.726222 9.216l89.827556 151.694222h4.608l89.827556-151.694222a26.453333 26.453333 0 0 1 35.726222-9.216c12.231111 6.144 16.839111 21.475556 10.211555 33.223111 0 0.512-0.512 0.512-0.512 1.024l-74.524444 126.663111h68.408889a25.571556 25.571556 0 0 1 27.022222 23.495111 25.543111 25.543111 0 0 1-23.466667 27.079111h-110.762666v32.199111h107.207111v-0.512zM901.688889 496.839111a63.630222 63.630222 0 0 1 63.288889 63.345778v3.584a63.630222 63.630222 0 0 1-63.288889 63.317333h-176.099556a63.630222 63.630222 0 0 1-63.288889-63.317333v-3.584a63.630222 63.630222 0 0 1 63.288889-63.345778h176.071111z m0-56.177778h-176.099556a119.637333 119.637333 0 0 0-119.438222 119.523556v3.584a119.637333 119.637333 0 0 0 119.438222 119.523555h176.071111a119.637333 119.637333 0 0 0 119.466667-119.523555v-3.584a119.637333 119.637333 0 0 0-119.466667-119.523556z"  /></svg>