<?xml version="1.0" standalone="no"?><!DOCTYPE svg PUBLIC "-//W3C//DTD SVG 1.1//EN" "http://www.w3.org/Graphics/SVG/1.1/DTD/svg11.dtd"><svg class="icon" width="200px" height="200.00px" viewBox="0 0 1024 1024" version="1.1" xmlns="http://www.w3.org/2000/svg"><path fill="currentColor" d="M364.548096 131.523458L816.347101 271.238688l100.690537-66.046166-1.763507-2.161717-412.60365-132.262993-2.588372-0.31288a38.171384 38.171384 0 0 0-32.226661 3.555457l-2.588372 0.967084-100.71898 56.545985zM282.118386 177.829727L128.863976 263.957112l482.262159 141.933835 130.84081-85.842948L282.118386 177.829727z m-7.452238-73.953501v-0.113775h0.113775L433.666176 14.563151l0.967084-0.426655a106.493042 106.493042 0 0 1 85.046527-9.158856l2.303936 0.199105 433.196855 138.492153 1.70662 2.047943a71.279798 71.279798 0 0 1 44.741868 66.615039v428.930307l0.142218 2.417711-0.142218 2.41771v18.004834l-2.759035 5.347407a135.27802 135.27802 0 0 1-38.626482 71.734896l-2.076387 2.474598-269.532069 258.126163-0.398211 0.085331a100.235438 100.235438 0 0 1-62.860476 22.129163 91.588567 91.588567 0 0 1-24.632204-3.413239l-2.218605 0.398212-507.036583-177.260854-1.223077-1.706619a105.326852 105.326852 0 0 1-58.992139-73.953502L28.457876 764.536985V285.688064l1.365296-2.389267a94.148496 94.148496 0 0 1 40.105552-64.424877l0.398211 0.625761 3.896781-3.413239-2.047943 1.279964a69.686953 69.686953 0 0 1 12.600539-6.85492l189.889836-106.663704z m658.442155 172.709869l-280.454432 184.087331v480.669314l2.901252-2.901252 1.848838-0.341324 253.774284-244.416322 1.365295-1.79195c10.609483-10.35349 17.464404-23.949557 19.540791-38.626483l1.023972-3.157245v-5.347407V276.586095z m-348.946752 667.003694V469.320297L96.978639 325.992722v417.097748l0.682648 6.826477a36.976751 36.976751 0 0 0 25.229522 31.28802l10.751701 3.470125 0.62576 0.910197 449.893281 157.976057zM161.545735 547.625677a34.274603 34.274603 0 0 1 22.18605-64.823088l189.349407 64.823088a34.274603 34.274603 0 0 1-22.18605 64.851532l-189.349407-64.851532z"  /></svg>