<?xml version="1.0" standalone="no"?><!DOCTYPE svg PUBLIC "-//W3C//DTD SVG 1.1//EN" "http://www.w3.org/Graphics/SVG/1.1/DTD/svg11.dtd"><svg class="icon" width="200px" height="200.00px" viewBox="0 0 1024 1024" version="1.1" xmlns="http://www.w3.org/2000/svg"><path fill="currentColor" d="M1009.720889 111.815111c-0.455111-2.190222-0.938667-4.380444-1.336889-6.570667a91.932444 91.932444 0 0 0-79.075556-74.808888 106.012444 106.012444 0 0 0-13.368888-0.853334c-125.468444-0.056889-307.854222-0.056889-433.351112-0.056889H253.866667c-44.003556 0-83.740444 33.905778-90.453334 77.169778-1.024 6.485333-12.686222 53.674667-18.204444 53.703111-17.607111 0.085333-35.214222 0.170667-52.792889 0l-0.967111-0.028444c-45.141333 0-83.968 34.417778-90.339556 80.071111a98.304 98.304 0 0 0-0.967111 13.511111l-0.028444 129.934222C0.056889 565.504 0 718.648889 0.227556 900.266667c0.056889 53.589333 42.552889 88.832 83.626666 91.960889 3.669333 0.284444 7.452444 0.568889 11.406222 0.568888h819.712c42.723556 0 77.312-24.206222 90.282667-63.232 1.564444-4.636444 2.389333-9.187556 3.214222-13.568 0.312889-1.792 0.654222-3.612444 1.052445-5.404444l0.341333-1.194667 0.739556-2.616889V117.276444l-0.881778-5.461333zM75.235556 263.708444c0-5.774222 0.796444-10.154667 2.446222-13.767111 5.12-10.922667 12.885333-16.156444 24.519111-16.469333 8.163556-0.199111 16.327111-0.284444 24.462222-0.284444 6.229333 0 12.430222 0.056889 18.631111 0.085333l12.572445 0.056889v534.727111c-0.056889 3.157333-0.284444 7.964444 3.697777 12.003555 3.953778 4.039111 6.058667 4.039111 7.907556 4.039112l3.584-0.028445h57.258667v-140.515555c0-164.465778 0-328.931556 0.199111-493.425778 0-12.544 4.209778-25.315556 12.458666-37.944889 1.877333-2.872889 5.319111-13.141333 16.696889-14.051556h149.703111c145.777778 0 348.444444 0.028444 494.250667 0 9.386667 0 15.985778 9.159111 21.333333 13.653334 6.115556 5.091556 12.202667 11.491556 12.856889 20.195555 0.113778 1.393778 0 2.816 0 4.209778V174.08c0 237.112889 0.085333 474.225778 0 711.338667 0 5.148444 1.137778 9.614222 0 13.255111-3.413333 10.695111-18.232889 23.779556-29.923555 24.064H105.984c-6.087111 0-10.723556 1.848889-14.563556 0-10.012444-4.835556-15.132444-21.048889-16.128-33.080889-0.085333-0.796444-0.056889-1.592889-0.056888-2.417778v-1.479111V263.68z"  /><path fill="currentColor" d="M620.032 186.026667h-281.486222v284.16h281.486222V186.026667z m-217.543111 218.168889v-153.6h153.6v153.6h-153.6z m407.893333 323.100444H354.190222c-1.194667 0-2.389333 0.056889-3.584 0.142222l-11.975111 0.654222v56.092445h488.163556l0.597333-9.386667a19.797333 19.797333 0 0 0 0.085333-1.792v-9.841778-23.04c-0.028444-8.760889-5.432889-12.828444-17.066666-12.828444z m-471.836444-152.462222h488.647111v-44.288c0-8.590222-5.319111-12.600889-16.725333-12.600889H338.545778v56.888889z m0 47.672889h488.391111v56.888889h-488.391111v-56.888889zM660.906667 354.588444v-51.143111c1.393778-0.056889 2.616889-0.170667 3.868444-0.170666 48.753778 0 97.507556 0 146.289778-0.085334 3.271111 0 4.551111 0.796444 4.522667 4.266667-0.142222 14.848-0.056889 29.696-0.085334 44.544 0 0.768-0.170667 1.564444-0.284444 2.56h-154.311111z m0-156.842666h149.646222c4.693333 0 4.693333 0 4.693333 4.778666v46.250667h-154.368V197.745778z m-0.170667 260.380444v-10.296889c0-12.401778 0.085333-24.803556-0.028444-37.176889-0.028444-2.588444 0.455111-3.754667 3.413333-3.726222 49.208889 0.085333 98.474667 0.056889 147.712 0.028445 2.133333 0 3.527111 0.170667 3.527111 2.929777-0.113778 15.445333-0.056889 30.890667-0.085333 46.336 0 0.568889-0.170667 1.137778-0.312889 1.905778h-154.225778z"  /></svg>